G04 Generated by Ultiboard 14.2 *
%FSLAX33Y33*%
%MOMM*%

%ADD10C,0.001*%
%ADD11C,0.889*%
%ADD12C,0.995*%
%ADD13C,1.181*%
%ADD14C,1.016*%


G04 ColorRGB 000000 for the following layer *
%LNDrill-Copper Top-Copper Bottom*%
%LPD*%
G54D11*
X-16256Y112268D03*
X11652Y79248D03*
X-3048Y79248D03*
X-3016Y84328D03*
X11684Y84328D03*
X-20288Y91440D03*
X-5588Y91440D03*
X-20288Y96520D03*
X-5588Y96520D03*
X19304Y76232D03*
X19304Y90932D03*
X26416Y90900D03*
X26416Y76200D03*
X19304Y109188D03*
X19304Y94488D03*
X26416Y94520D03*
X26416Y109220D03*
X23368Y112776D03*
X33560Y91948D03*
X48260Y91948D03*
X33560Y97028D03*
X48260Y97028D03*
X37592Y112776D03*
X65500Y79756D03*
X50800Y79756D03*
X50832Y84836D03*
X65532Y84836D03*
X71628Y76708D03*
X71628Y91408D03*
X79248Y91408D03*
X79248Y76708D03*
X71628Y109188D03*
X71628Y94488D03*
X79248Y94520D03*
X79248Y109220D03*
X75184Y112776D03*
X11652Y36576D03*
X-3048Y36576D03*
X18796Y31528D03*
X18796Y46228D03*
X25400Y46196D03*
X25400Y31496D03*
X-3016Y41656D03*
X11684Y41656D03*
X-19780Y48768D03*
X-5080Y48768D03*
X18796Y63976D03*
X18796Y49276D03*
X25400Y49308D03*
X25400Y64008D03*
X-19780Y53848D03*
X-5080Y53848D03*
X-15748Y68072D03*
X22860Y68072D03*
X73152Y32512D03*
X73152Y47212D03*
X79248Y47212D03*
X79248Y32512D03*
X64992Y38100D03*
X50292Y38100D03*
X50324Y43180D03*
X65024Y43180D03*
X33052Y48260D03*
X47752Y48260D03*
X73152Y64484D03*
X73152Y49784D03*
X79248Y49816D03*
X79248Y64516D03*
X33052Y53340D03*
X47752Y53340D03*
X66294Y65278D03*
X67564Y66548D03*
X65024Y66548D03*
X37084Y68072D03*
X77216Y68072D03*
X-9906Y64262D03*
X-8636Y65532D03*
X-11176Y65532D03*
X11430Y64262D03*
X12700Y65532D03*
X10160Y65532D03*
X43942Y65278D03*
X45212Y66548D03*
X42672Y66548D03*
G54D12*
X-18796Y112268D03*
X20828Y112776D03*
X35052Y112776D03*
X72644Y112776D03*
X-18288Y68072D03*
X20320Y68072D03*
X34544Y68072D03*
X74676Y68072D03*
G54D13*
X-12192Y81280D03*
X-14732Y81280D03*
X-17272Y81280D03*
X-9652Y81280D03*
X1016Y94996D03*
X3556Y94996D03*
X53848Y95504D03*
X56388Y95504D03*
X64008Y106680D03*
X64008Y109220D03*
X64008Y111760D03*
X2540Y55372D03*
X0Y55372D03*
X56896Y55372D03*
X54356Y55372D03*
X57404Y109220D03*
X57404Y106680D03*
X57404Y111760D03*
X51308Y109220D03*
X51308Y106680D03*
X51308Y111760D03*
X45212Y106680D03*
X45212Y109220D03*
X45212Y111760D03*
X5080Y108712D03*
X5080Y106172D03*
X5080Y111252D03*
X11684Y106172D03*
X11684Y108712D03*
X11684Y111252D03*
X-1524Y108712D03*
X-1524Y106172D03*
X-1524Y111252D03*
X-8128Y106172D03*
X-8128Y108712D03*
X-8128Y111252D03*
G54D14*
X-4064Y65532D03*
X-2794Y66802D03*
X-1524Y65532D03*
X3048Y65532D03*
X4318Y66802D03*
X5588Y65532D03*
X50292Y66040D03*
X51562Y67310D03*
X52832Y66040D03*
X57404Y66040D03*
X58674Y67310D03*
X59944Y66040D03*

M02*
