G04 Generated by Ultiboard 14.2 *
%FSLAX33Y33*%
%MOMM*%

%ADD10C,0.001*%
%ADD11C,0.254*%
%ADD12C,0.127*%
%ADD13C,1.609*%
%ADD14R,0.529X0.529*%
%ADD15C,0.995*%
%ADD16C,1.537*%
%ADD17C,1.245*%
%ADD18C,1.397*%


G04 ColorRGB CCFFCC for the following layer *
%LNCopper Inner 1*%
%LPD*%
G54D10*
G36*
X83691Y28577D02*
X83691Y28577D01*
X-22985Y28577D01*
X-22985Y117727D01*
X83691Y117727D01*
X83691Y28577D01*
D02*
G37*
%LPC*%
G36*
X71522Y113041D02*
X71522Y113041D01*
X71522Y112511D01*
G75*
D01*
G03X72379Y111654I857J0*
G01*
X72379Y111654D01*
X72909Y111654D01*
G75*
D01*
G03X73766Y112511I0J857*
G01*
X73766Y112511D01*
X73766Y113041D01*
G74*
D01*
G03X72909Y113898I857J0*
G01*
X72909Y113898D01*
X72379Y113898D01*
G75*
D01*
G03X71522Y113041I0J-857*
G01*
D02*
G37*
G36*
X72249Y109910D02*
G75*
D01*
G03X72249Y109910I-621J-722*
G01*
D02*
G37*
G36*
X72249Y46908D02*
G75*
D01*
G03X72249Y46908I903J304*
G01*
D02*
G37*
G36*
X72283Y32903D02*
G75*
D01*
G03X72283Y32121I869J-391*
G01*
X72283Y32121D01*
X72674Y32512D01*
X72283Y32903D01*
D02*
G37*
G36*
X72249Y49480D02*
G75*
D01*
G03X72249Y49480I903J304*
G01*
D02*
G37*
G36*
X72249Y95210D02*
G75*
D01*
G03X72249Y95210I-621J-722*
G01*
D02*
G37*
G36*
X72249Y92130D02*
G75*
D01*
G03X72249Y92130I-621J-722*
G01*
D02*
G37*
G36*
X78927Y75811D02*
G75*
D01*
G03X78927Y75811I321J897*
G01*
D02*
G37*
G36*
X72497Y77099D02*
X72497Y77099D01*
X72106Y76708D01*
X72497Y76317D01*
G75*
D01*
G03X72497Y77099I-869J391*
G01*
D02*
G37*
G36*
X72249Y64788D02*
G75*
D01*
G03X72249Y64788I903J-304*
G01*
D02*
G37*
G36*
X24249Y112022D02*
G75*
D01*
G03X24249Y112022I-881J754*
G01*
D02*
G37*
G36*
X249Y94140D02*
G75*
D01*
G03X249Y94140I767J856*
G01*
D02*
G37*
G36*
X249Y54250D02*
G75*
D01*
G03X249Y54250I-249J1122*
G01*
D02*
G37*
G36*
X48249Y49072D02*
G75*
D01*
G03X48249Y49072I-497J-812*
G01*
D02*
G37*
G36*
X19161Y75811D02*
G75*
D01*
G03X19161Y75811I143J421*
G01*
D02*
G37*
G36*
X48249Y92900D02*
G75*
D01*
G03X48249Y92900I11J-952*
G01*
D02*
G37*
G36*
X48249Y97980D02*
G75*
D01*
G03X48249Y97980I11J-952*
G01*
D02*
G37*
G36*
X72019Y75839D02*
X72019Y75839D01*
X71628Y76230D01*
X71237Y75839D01*
G75*
D01*
G03X72019Y75839I391J869*
G01*
D02*
G37*
G36*
X25546Y75811D02*
G75*
D01*
G03X25546Y75811I870J389*
G01*
D02*
G37*
G36*
X48249Y52528D02*
G75*
D01*
G03X48249Y52528I-497J812*
G01*
D02*
G37*
G36*
X78296Y109220D02*
G75*
D01*
G03X78296Y109220I952J0*
G01*
D02*
G37*
G36*
X74024Y112776D02*
G75*
D01*
G03X74024Y112776I1160J0*
G01*
D02*
G37*
G36*
X78296Y49816D02*
G75*
D01*
G03X78296Y49816I952J0*
G01*
D02*
G37*
G36*
X73543Y31643D02*
X73543Y31643D01*
X73152Y32034D01*
X72761Y31643D01*
G75*
D01*
G03X73543Y31643I391J869*
G01*
D02*
G37*
G36*
X78296Y32512D02*
G75*
D01*
G03X78296Y32512I952J0*
G01*
D02*
G37*
G36*
X74021Y32903D02*
X74021Y32903D01*
X73630Y32512D01*
X74021Y32121D01*
G75*
D01*
G03X74021Y32903I-869J391*
G01*
D02*
G37*
G36*
X72761Y33381D02*
X72761Y33381D01*
X73152Y32990D01*
X73543Y33381D01*
G75*
D01*
G03X72761Y33381I-391J-869*
G01*
D02*
G37*
G36*
X72708Y32512D02*
G75*
D01*
G03X72708Y32512I444J0*
G01*
D02*
G37*
G36*
X78296Y47212D02*
G75*
D01*
G03X78296Y47212I952J0*
G01*
D02*
G37*
G36*
X78296Y94520D02*
G75*
D01*
G03X78296Y94520I952J0*
G01*
D02*
G37*
G36*
X78296Y91408D02*
G75*
D01*
G03X78296Y91408I952J0*
G01*
D02*
G37*
G36*
X78296Y64516D02*
G75*
D01*
G03X78296Y64516I952J0*
G01*
D02*
G37*
G36*
X73554Y68337D02*
X73554Y68337D01*
X73554Y67807D01*
G75*
D01*
G03X74411Y66950I857J0*
G01*
X74411Y66950D01*
X74941Y66950D01*
G75*
D01*
G03X75798Y67807I0J857*
G01*
X75798Y67807D01*
X75798Y68337D01*
G74*
D01*
G03X74941Y69194I857J0*
G01*
X74941Y69194D01*
X74411Y69194D01*
G75*
D01*
G03X73554Y68337I0J-857*
G01*
D02*
G37*
G36*
X76056Y68072D02*
G75*
D01*
G03X76056Y68072I1160J0*
G01*
D02*
G37*
G36*
X-9277Y106172D02*
G75*
D01*
G03X-9277Y106172I1149J0*
G01*
D02*
G37*
G36*
X-2673Y106172D02*
G75*
D01*
G03X-2673Y106172I1149J0*
G01*
D02*
G37*
G36*
X-7701Y109120D02*
X-7701Y109120D01*
X-7053Y109120D01*
G74*
D01*
G03X-7720Y109787I1075J408*
G01*
X-7720Y109787D01*
X-7720Y109139D01*
G75*
D01*
G03X-8536Y109139I-408J-427*
G01*
X-8536Y109139D01*
X-8536Y109787D01*
G74*
D01*
G03X-9203Y109120I408J1075*
G01*
X-9203Y109120D01*
X-8555Y109120D01*
G75*
D01*
G03X-8555Y108304I427J-408*
G01*
X-8555Y108304D01*
X-9203Y108304D01*
G74*
D01*
G03X-8536Y107637I1075J408*
G01*
X-8536Y107637D01*
X-8536Y108285D01*
G75*
D01*
G03X-7720Y108285I408J427*
G01*
X-7720Y108285D01*
X-7720Y107637D01*
G74*
D01*
G03X-7053Y108304I408J1075*
G01*
X-7053Y108304D01*
X-7701Y108304D01*
G75*
D01*
G03X-7701Y109120I-427J408*
G01*
D02*
G37*
G36*
X-2673Y108712D02*
G75*
D01*
G03X-2673Y108712I1149J0*
G01*
D02*
G37*
G36*
X-19918Y112533D02*
X-19918Y112533D01*
X-19918Y112003D01*
G75*
D01*
G03X-19061Y111146I857J0*
G01*
X-19061Y111146D01*
X-18531Y111146D01*
G75*
D01*
G03X-17674Y112003I0J857*
G01*
X-17674Y112003D01*
X-17674Y112533D01*
G74*
D01*
G03X-18531Y113390I857J0*
G01*
X-18531Y113390D01*
X-19061Y113390D01*
G75*
D01*
G03X-19918Y112533I0J-857*
G01*
D02*
G37*
G36*
X-17416Y112268D02*
G75*
D01*
G03X-17416Y112268I1160J0*
G01*
D02*
G37*
G36*
X-9277Y111252D02*
G75*
D01*
G03X-9277Y111252I1149J0*
G01*
D02*
G37*
G36*
X-2673Y111252D02*
G75*
D01*
G03X-2673Y111252I1149J0*
G01*
D02*
G37*
G36*
X3931Y106172D02*
G75*
D01*
G03X3931Y106172I1149J0*
G01*
D02*
G37*
G36*
X10535Y106172D02*
G75*
D01*
G03X10535Y106172I1149J0*
G01*
D02*
G37*
G36*
X3931Y108712D02*
G75*
D01*
G03X3931Y108712I1149J0*
G01*
D02*
G37*
G36*
X12111Y109120D02*
X12111Y109120D01*
X12759Y109120D01*
G74*
D01*
G03X12092Y109787I1075J408*
G01*
X12092Y109787D01*
X12092Y109139D01*
G75*
D01*
G03X11276Y109139I-408J-427*
G01*
X11276Y109139D01*
X11276Y109787D01*
G74*
D01*
G03X10609Y109120I408J1075*
G01*
X10609Y109120D01*
X11257Y109120D01*
G75*
D01*
G03X11257Y108304I427J-408*
G01*
X11257Y108304D01*
X10609Y108304D01*
G74*
D01*
G03X11276Y107637I1075J408*
G01*
X11276Y107637D01*
X11276Y108285D01*
G75*
D01*
G03X12092Y108285I408J427*
G01*
X12092Y108285D01*
X12092Y107637D01*
G74*
D01*
G03X12759Y108304I408J1075*
G01*
X12759Y108304D01*
X12111Y108304D01*
G75*
D01*
G03X12111Y109120I-427J408*
G01*
D02*
G37*
G36*
X18352Y109188D02*
G75*
D01*
G03X18352Y109188I952J0*
G01*
D02*
G37*
G36*
X3931Y111252D02*
G75*
D01*
G03X3931Y111252I1149J0*
G01*
D02*
G37*
G36*
X10535Y111252D02*
G75*
D01*
G03X10535Y111252I1149J0*
G01*
D02*
G37*
G36*
X19706Y113041D02*
X19706Y113041D01*
X19706Y112511D01*
G75*
D01*
G03X20563Y111654I857J0*
G01*
X20563Y111654D01*
X21093Y111654D01*
G75*
D01*
G03X21950Y112511I0J857*
G01*
X21950Y112511D01*
X21950Y113041D01*
G74*
D01*
G03X21093Y113898I857J0*
G01*
X21093Y113898D01*
X20563Y113898D01*
G75*
D01*
G03X19706Y113041I0J-857*
G01*
D02*
G37*
G36*
X50159Y106680D02*
G75*
D01*
G03X50159Y106680I1149J0*
G01*
D02*
G37*
G36*
X56255Y106680D02*
G75*
D01*
G03X56255Y106680I1149J0*
G01*
D02*
G37*
G36*
X62859Y106680D02*
G75*
D01*
G03X62859Y106680I1149J0*
G01*
D02*
G37*
G36*
X50159Y109220D02*
G75*
D01*
G03X50159Y109220I1149J0*
G01*
D02*
G37*
G36*
X56255Y109220D02*
G75*
D01*
G03X56255Y109220I1149J0*
G01*
D02*
G37*
G36*
X64435Y109628D02*
X64435Y109628D01*
X65083Y109628D01*
G74*
D01*
G03X64416Y110295I1075J408*
G01*
X64416Y110295D01*
X64416Y109647D01*
G75*
D01*
G03X63600Y109647I-408J-427*
G01*
X63600Y109647D01*
X63600Y110295D01*
G74*
D01*
G03X62933Y109628I408J1075*
G01*
X62933Y109628D01*
X63581Y109628D01*
G75*
D01*
G03X63581Y108812I427J-408*
G01*
X63581Y108812D01*
X62933Y108812D01*
G74*
D01*
G03X63600Y108145I1075J408*
G01*
X63600Y108145D01*
X63600Y108793D01*
G75*
D01*
G03X64416Y108793I408J427*
G01*
X64416Y108793D01*
X64416Y108145D01*
G74*
D01*
G03X65083Y108812I408J1075*
G01*
X65083Y108812D01*
X64435Y108812D01*
G75*
D01*
G03X64435Y109628I-427J408*
G01*
D02*
G37*
G36*
X50159Y111760D02*
G75*
D01*
G03X50159Y111760I1149J0*
G01*
D02*
G37*
G36*
X56255Y111760D02*
G75*
D01*
G03X56255Y111760I1149J0*
G01*
D02*
G37*
G36*
X62859Y111760D02*
G75*
D01*
G03X62859Y111760I1149J0*
G01*
D02*
G37*
G36*
X44063Y106680D02*
G75*
D01*
G03X44063Y106680I1149J0*
G01*
D02*
G37*
G36*
X25464Y109220D02*
G75*
D01*
G03X25464Y109220I952J0*
G01*
D02*
G37*
G36*
X45639Y109628D02*
X45639Y109628D01*
X46287Y109628D01*
G74*
D01*
G03X45620Y110295I1075J408*
G01*
X45620Y110295D01*
X45620Y109647D01*
G75*
D01*
G03X44804Y109647I-408J-427*
G01*
X44804Y109647D01*
X44804Y110295D01*
G74*
D01*
G03X44137Y109628I408J1075*
G01*
X44137Y109628D01*
X44785Y109628D01*
G75*
D01*
G03X44785Y108812I427J-408*
G01*
X44785Y108812D01*
X44137Y108812D01*
G74*
D01*
G03X44804Y108145I1075J408*
G01*
X44804Y108145D01*
X44804Y108793D01*
G75*
D01*
G03X45620Y108793I408J427*
G01*
X45620Y108793D01*
X45620Y108145D01*
G74*
D01*
G03X46287Y108812I408J1075*
G01*
X46287Y108812D01*
X45639Y108812D01*
G75*
D01*
G03X45639Y109628I-427J408*
G01*
D02*
G37*
G36*
X33930Y113041D02*
X33930Y113041D01*
X33930Y112511D01*
G75*
D01*
G03X34787Y111654I857J0*
G01*
X34787Y111654D01*
X35317Y111654D01*
G75*
D01*
G03X36174Y112511I0J857*
G01*
X36174Y112511D01*
X36174Y113041D01*
G74*
D01*
G03X35317Y113898I857J0*
G01*
X35317Y113898D01*
X34787Y113898D01*
G75*
D01*
G03X33930Y113041I0J-857*
G01*
D02*
G37*
G36*
X36432Y112776D02*
G75*
D01*
G03X36432Y112776I1160J0*
G01*
D02*
G37*
G36*
X44063Y111760D02*
G75*
D01*
G03X44063Y111760I1149J0*
G01*
D02*
G37*
G36*
X-6032Y48768D02*
G75*
D01*
G03X-6032Y48768I952J0*
G01*
D02*
G37*
G36*
X-4000Y36576D02*
G75*
D01*
G03X-4000Y36576I952J0*
G01*
D02*
G37*
G36*
X-3968Y41656D02*
G75*
D01*
G03X-3968Y41656I952J0*
G01*
D02*
G37*
G36*
X-20732Y48768D02*
G75*
D01*
G03X-20732Y48768I952J0*
G01*
D02*
G37*
G36*
X-6540Y96520D02*
G75*
D01*
G03X-6540Y96520I952J0*
G01*
D02*
G37*
G36*
X-4000Y79248D02*
G75*
D01*
G03X-4000Y79248I952J0*
G01*
D02*
G37*
G36*
X-16845Y81688D02*
X-16845Y81688D01*
X-16197Y81688D01*
G74*
D01*
G03X-16864Y82355I1075J408*
G01*
X-16864Y82355D01*
X-16864Y81707D01*
G75*
D01*
G03X-17680Y81707I-408J-427*
G01*
X-17680Y81707D01*
X-17680Y82355D01*
G74*
D01*
G03X-18347Y81688I408J1075*
G01*
X-18347Y81688D01*
X-17699Y81688D01*
G75*
D01*
G03X-17699Y80872I427J-408*
G01*
X-17699Y80872D01*
X-18347Y80872D01*
G74*
D01*
G03X-17680Y80205I1075J408*
G01*
X-17680Y80205D01*
X-17680Y80853D01*
G75*
D01*
G03X-16864Y80853I408J427*
G01*
X-16864Y80853D01*
X-16864Y80205D01*
G74*
D01*
G03X-16197Y80872I408J1075*
G01*
X-16197Y80872D01*
X-16845Y80872D01*
G75*
D01*
G03X-16845Y81688I-427J408*
G01*
D02*
G37*
G36*
X-15881Y81280D02*
G75*
D01*
G03X-15881Y81280I1149J0*
G01*
D02*
G37*
G36*
X-13341Y81280D02*
G75*
D01*
G03X-13341Y81280I1149J0*
G01*
D02*
G37*
G36*
X-10801Y81280D02*
G75*
D01*
G03X-10801Y81280I1149J0*
G01*
D02*
G37*
G36*
X-3968Y84328D02*
G75*
D01*
G03X-3968Y84328I952J0*
G01*
D02*
G37*
G36*
X-21240Y91440D02*
G75*
D01*
G03X-21240Y91440I952J0*
G01*
D02*
G37*
G36*
X-6540Y91440D02*
G75*
D01*
G03X-6540Y91440I952J0*
G01*
D02*
G37*
G36*
X-21240Y96520D02*
G75*
D01*
G03X-21240Y96520I952J0*
G01*
D02*
G37*
G36*
X-16908Y68072D02*
G75*
D01*
G03X-16908Y68072I1160J0*
G01*
D02*
G37*
G36*
X-20732Y53848D02*
G75*
D01*
G03X-20732Y53848I952J0*
G01*
D02*
G37*
G36*
X-6032Y53848D02*
G75*
D01*
G03X-6032Y53848I952J0*
G01*
D02*
G37*
G36*
X-9496Y65122D02*
G75*
D01*
G03X-10316Y65122I-410J-860*
G01*
G75*
D01*
G03X-10766Y64672I-860J410*
G01*
G75*
D01*
G03X-9046Y64672I860J-410*
G01*
G74*
D01*
G03X-8974Y64641I410J860*
G01*
X-8974Y64641D01*
X-8974Y65194D01*
X-9527Y65194D01*
G74*
D01*
G03X-9496Y65122I891J338*
G01*
D02*
G37*
G36*
X-9527Y65870D02*
X-9527Y65870D01*
X-8974Y65870D01*
X-8974Y66423D01*
G74*
D01*
G03X-9527Y65870I338J891*
G01*
D02*
G37*
G36*
X-8298Y66423D02*
X-8298Y66423D01*
X-8298Y65870D01*
X-7745Y65870D01*
G74*
D01*
G03X-8298Y66423I891J338*
G01*
D02*
G37*
G36*
X-7745Y65194D02*
X-7745Y65194D01*
X-8298Y65194D01*
X-8298Y64641D01*
G74*
D01*
G03X-7745Y65194I338J891*
G01*
D02*
G37*
G36*
X-9080Y65532D02*
G75*
D01*
G03X-9080Y65532I444J0*
G01*
D02*
G37*
G36*
X-1769Y66557D02*
G75*
D01*
G03X-3819Y66557I-1025J245*
G01*
G75*
D01*
G03X-3039Y65777I-245J-1025*
G01*
G75*
D01*
G03X-2549Y65777I245J1025*
G01*
G75*
D01*
G03X-1769Y66557I1025J-245*
G01*
D02*
G37*
G36*
X-19410Y68337D02*
X-19410Y68337D01*
X-19410Y67807D01*
G75*
D01*
G03X-18553Y66950I857J0*
G01*
X-18553Y66950D01*
X-18023Y66950D01*
G75*
D01*
G03X-17166Y67807I0J857*
G01*
X-17166Y67807D01*
X-17166Y68337D01*
G74*
D01*
G03X-18023Y69194I857J0*
G01*
X-18023Y69194D01*
X-18553Y69194D01*
G75*
D01*
G03X-19410Y68337I0J-857*
G01*
D02*
G37*
G36*
X17844Y49276D02*
G75*
D01*
G03X17844Y49276I952J0*
G01*
D02*
G37*
G36*
X17927Y31919D02*
G75*
D01*
G03X17927Y31137I869J-391*
G01*
X17927Y31137D01*
X18318Y31528D01*
X17927Y31919D01*
D02*
G37*
G36*
X19665Y31919D02*
X19665Y31919D01*
X19274Y31528D01*
X19665Y31137D01*
G75*
D01*
G03X19665Y31919I-869J391*
G01*
D02*
G37*
G36*
X19187Y30659D02*
X19187Y30659D01*
X18796Y31050D01*
X18405Y30659D01*
G75*
D01*
G03X19187Y30659I391J869*
G01*
D02*
G37*
G36*
X18352Y31528D02*
G75*
D01*
G03X18352Y31528I444J0*
G01*
D02*
G37*
G36*
X18405Y32397D02*
X18405Y32397D01*
X18796Y32006D01*
X19187Y32397D01*
G75*
D01*
G03X18405Y32397I-391J-869*
G01*
D02*
G37*
G36*
X12043Y35707D02*
X12043Y35707D01*
X11652Y36098D01*
X11261Y35707D01*
G75*
D01*
G03X12043Y35707I391J869*
G01*
D02*
G37*
G36*
X11261Y37445D02*
X11261Y37445D01*
X11652Y37054D01*
X12043Y37445D01*
G75*
D01*
G03X11261Y37445I-391J-869*
G01*
D02*
G37*
G36*
X11208Y36576D02*
G75*
D01*
G03X11208Y36576I444J0*
G01*
D02*
G37*
G36*
X10783Y36967D02*
G75*
D01*
G03X10783Y36185I869J-391*
G01*
X10783Y36185D01*
X11174Y36576D01*
X10783Y36967D01*
D02*
G37*
G36*
X12521Y36967D02*
X12521Y36967D01*
X12130Y36576D01*
X12521Y36185D01*
G75*
D01*
G03X12521Y36967I-869J391*
G01*
D02*
G37*
G36*
X10732Y41656D02*
G75*
D01*
G03X10732Y41656I952J0*
G01*
D02*
G37*
G36*
X17844Y46228D02*
G75*
D01*
G03X17844Y46228I952J0*
G01*
D02*
G37*
G36*
X49340Y38100D02*
G75*
D01*
G03X49340Y38100I952J0*
G01*
D02*
G37*
G36*
X64123Y38491D02*
G75*
D01*
G03X64123Y37709I869J-391*
G01*
X64123Y37709D01*
X64514Y38100D01*
X64123Y38491D01*
D02*
G37*
G36*
X65861Y38491D02*
X65861Y38491D01*
X65470Y38100D01*
X65861Y37709D01*
G75*
D01*
G03X65861Y38491I-869J391*
G01*
D02*
G37*
G36*
X64548Y38100D02*
G75*
D01*
G03X64548Y38100I444J0*
G01*
D02*
G37*
G36*
X65383Y37231D02*
X65383Y37231D01*
X64992Y37622D01*
X64601Y37231D01*
G75*
D01*
G03X65383Y37231I391J869*
G01*
D02*
G37*
G36*
X64601Y38969D02*
X64601Y38969D01*
X64992Y38578D01*
X65383Y38969D01*
G75*
D01*
G03X64601Y38969I-391J-869*
G01*
D02*
G37*
G36*
X49372Y43180D02*
G75*
D01*
G03X49372Y43180I952J0*
G01*
D02*
G37*
G36*
X64072Y43180D02*
G75*
D01*
G03X64072Y43180I952J0*
G01*
D02*
G37*
G36*
X24448Y49308D02*
G75*
D01*
G03X24448Y49308I952J0*
G01*
D02*
G37*
G36*
X24448Y31496D02*
G75*
D01*
G03X24448Y31496I952J0*
G01*
D02*
G37*
G36*
X24448Y46196D02*
G75*
D01*
G03X24448Y46196I952J0*
G01*
D02*
G37*
G36*
X32100Y48260D02*
G75*
D01*
G03X32100Y48260I952J0*
G01*
D02*
G37*
G36*
X18352Y94488D02*
G75*
D01*
G03X18352Y94488I952J0*
G01*
D02*
G37*
G36*
X18435Y76623D02*
G75*
D01*
G03X18435Y75841I869J-391*
G01*
X18435Y75841D01*
X18826Y76232D01*
X18435Y76623D01*
D02*
G37*
G36*
X20173Y76623D02*
X20173Y76623D01*
X19782Y76232D01*
X20173Y75841D01*
G75*
D01*
G03X20173Y76623I-869J391*
G01*
D02*
G37*
G36*
X18913Y77101D02*
X18913Y77101D01*
X19304Y76710D01*
X19695Y77101D01*
G75*
D01*
G03X18913Y77101I-391J-869*
G01*
D02*
G37*
G36*
X11261Y80117D02*
X11261Y80117D01*
X11652Y79726D01*
X12043Y80117D01*
G75*
D01*
G03X11261Y80117I-391J-869*
G01*
D02*
G37*
G36*
X12043Y78379D02*
X12043Y78379D01*
X11652Y78770D01*
X11261Y78379D01*
G75*
D01*
G03X12043Y78379I391J869*
G01*
D02*
G37*
G36*
X11208Y79248D02*
G75*
D01*
G03X11208Y79248I444J0*
G01*
D02*
G37*
G36*
X10783Y79639D02*
G75*
D01*
G03X10783Y78857I869J-391*
G01*
X10783Y78857D01*
X11174Y79248D01*
X10783Y79639D01*
D02*
G37*
G36*
X12521Y79639D02*
X12521Y79639D01*
X12130Y79248D01*
X12521Y78857D01*
G75*
D01*
G03X12521Y79639I-869J391*
G01*
D02*
G37*
G36*
X10732Y84328D02*
G75*
D01*
G03X10732Y84328I952J0*
G01*
D02*
G37*
G36*
X18352Y90932D02*
G75*
D01*
G03X18352Y90932I952J0*
G01*
D02*
G37*
G36*
X2407Y94996D02*
G75*
D01*
G03X2407Y94996I1149J0*
G01*
D02*
G37*
G36*
X71237Y77577D02*
X71237Y77577D01*
X71628Y77186D01*
X72019Y77577D01*
G75*
D01*
G03X71237Y77577I-391J-869*
G01*
D02*
G37*
G36*
X71184Y76708D02*
G75*
D01*
G03X71184Y76708I444J0*
G01*
D02*
G37*
G36*
X70759Y77099D02*
G75*
D01*
G03X70759Y76317I869J-391*
G01*
X70759Y76317D01*
X71150Y76708D01*
X70759Y77099D01*
D02*
G37*
G36*
X49848Y79756D02*
G75*
D01*
G03X49848Y79756I952J0*
G01*
D02*
G37*
G36*
X64631Y80147D02*
G75*
D01*
G03X64631Y79365I869J-391*
G01*
X64631Y79365D01*
X65022Y79756D01*
X64631Y80147D01*
D02*
G37*
G36*
X66369Y80147D02*
X66369Y80147D01*
X65978Y79756D01*
X66369Y79365D01*
G75*
D01*
G03X66369Y80147I-869J391*
G01*
D02*
G37*
G36*
X65056Y79756D02*
G75*
D01*
G03X65056Y79756I444J0*
G01*
D02*
G37*
G36*
X65891Y78887D02*
X65891Y78887D01*
X65500Y79278D01*
X65109Y78887D01*
G75*
D01*
G03X65891Y78887I391J869*
G01*
D02*
G37*
G36*
X65109Y80625D02*
X65109Y80625D01*
X65500Y80234D01*
X65891Y80625D01*
G75*
D01*
G03X65109Y80625I-391J-869*
G01*
D02*
G37*
G36*
X49880Y84836D02*
G75*
D01*
G03X49880Y84836I952J0*
G01*
D02*
G37*
G36*
X64580Y84836D02*
G75*
D01*
G03X64580Y84836I952J0*
G01*
D02*
G37*
G36*
X52699Y95504D02*
G75*
D01*
G03X52699Y95504I1149J0*
G01*
D02*
G37*
G36*
X55239Y95504D02*
G75*
D01*
G03X55239Y95504I1149J0*
G01*
D02*
G37*
G36*
X19695Y75363D02*
X19695Y75363D01*
X19304Y75754D01*
X18913Y75363D01*
G75*
D01*
G03X19695Y75363I391J869*
G01*
D02*
G37*
G36*
X1391Y55372D02*
G75*
D01*
G03X1391Y55372I1149J0*
G01*
D02*
G37*
G36*
X11840Y65122D02*
G75*
D01*
G03X11020Y65122I-410J-860*
G01*
G75*
D01*
G03X10570Y64672I-860J410*
G01*
G75*
D01*
G03X12290Y64672I860J-410*
G01*
G74*
D01*
G03X12362Y64641I410J860*
G01*
X12362Y64641D01*
X12362Y65194D01*
X11809Y65194D01*
G74*
D01*
G03X11840Y65122I891J338*
G01*
D02*
G37*
G36*
X17844Y63976D02*
G75*
D01*
G03X17844Y63976I952J0*
G01*
D02*
G37*
G36*
X5343Y66557D02*
G75*
D01*
G03X3293Y66557I-1025J245*
G01*
G75*
D01*
G03X4073Y65777I-245J-1025*
G01*
G75*
D01*
G03X4563Y65777I245J1025*
G01*
G75*
D01*
G03X5343Y66557I1025J-245*
G01*
D02*
G37*
G36*
X11809Y65870D02*
X11809Y65870D01*
X12362Y65870D01*
X12362Y66423D01*
G74*
D01*
G03X11809Y65870I338J891*
G01*
D02*
G37*
G36*
X13038Y66423D02*
X13038Y66423D01*
X13038Y65870D01*
X13591Y65870D01*
G74*
D01*
G03X13038Y66423I891J338*
G01*
D02*
G37*
G36*
X13591Y65194D02*
X13591Y65194D01*
X13038Y65194D01*
X13038Y64641D01*
G74*
D01*
G03X13591Y65194I338J891*
G01*
D02*
G37*
G36*
X12256Y65532D02*
G75*
D01*
G03X12256Y65532I444J0*
G01*
D02*
G37*
G36*
X19198Y68337D02*
X19198Y68337D01*
X19198Y67807D01*
G75*
D01*
G03X20055Y66950I857J0*
G01*
X20055Y66950D01*
X20585Y66950D01*
G75*
D01*
G03X21442Y67807I0J857*
G01*
X21442Y67807D01*
X21442Y68337D01*
G74*
D01*
G03X20585Y69194I857J0*
G01*
X20585Y69194D01*
X20055Y69194D01*
G75*
D01*
G03X19198Y68337I0J-857*
G01*
D02*
G37*
G36*
X21700Y68072D02*
G75*
D01*
G03X21700Y68072I1160J0*
G01*
D02*
G37*
G36*
X25464Y90900D02*
G75*
D01*
G03X25464Y90900I952J0*
G01*
D02*
G37*
G36*
X32608Y91948D02*
G75*
D01*
G03X32608Y91948I952J0*
G01*
D02*
G37*
G36*
X25464Y94520D02*
G75*
D01*
G03X25464Y94520I952J0*
G01*
D02*
G37*
G36*
X32608Y97028D02*
G75*
D01*
G03X32608Y97028I952J0*
G01*
D02*
G37*
G36*
X53207Y55372D02*
G75*
D01*
G03X53207Y55372I1149J0*
G01*
D02*
G37*
G36*
X55747Y55372D02*
G75*
D01*
G03X55747Y55372I1149J0*
G01*
D02*
G37*
G36*
X52587Y67065D02*
G75*
D01*
G03X50537Y67065I-1025J245*
G01*
G75*
D01*
G03X51317Y66285I-245J-1025*
G01*
G75*
D01*
G03X51807Y66285I245J1025*
G01*
G75*
D01*
G03X52587Y67065I1025J-245*
G01*
D02*
G37*
G36*
X59699Y67065D02*
G75*
D01*
G03X57649Y67065I-1025J245*
G01*
G75*
D01*
G03X58429Y66285I-245J-1025*
G01*
G75*
D01*
G03X58919Y66285I245J1025*
G01*
G75*
D01*
G03X59699Y67065I1025J-245*
G01*
D02*
G37*
G36*
X66704Y66138D02*
G75*
D01*
G03X65884Y66138I-410J-860*
G01*
G75*
D01*
G03X65434Y65688I-860J410*
G01*
G75*
D01*
G03X67154Y65688I860J-410*
G01*
G74*
D01*
G03X67226Y65657I410J860*
G01*
X67226Y65657D01*
X67226Y66210D01*
X66673Y66210D01*
G74*
D01*
G03X66704Y66138I891J338*
G01*
D02*
G37*
G36*
X68455Y66210D02*
X68455Y66210D01*
X67902Y66210D01*
X67902Y65657D01*
G74*
D01*
G03X68455Y66210I338J891*
G01*
D02*
G37*
G36*
X67902Y67439D02*
X67902Y67439D01*
X67902Y66886D01*
X68455Y66886D01*
G74*
D01*
G03X67902Y67439I891J338*
G01*
D02*
G37*
G36*
X67120Y66548D02*
G75*
D01*
G03X67120Y66548I444J0*
G01*
D02*
G37*
G36*
X66673Y66886D02*
X66673Y66886D01*
X67226Y66886D01*
X67226Y67439D01*
G74*
D01*
G03X66673Y66886I338J891*
G01*
D02*
G37*
G36*
X32100Y53340D02*
G75*
D01*
G03X32100Y53340I952J0*
G01*
D02*
G37*
G36*
X24448Y64008D02*
G75*
D01*
G03X24448Y64008I952J0*
G01*
D02*
G37*
G36*
X44352Y66138D02*
G75*
D01*
G03X43532Y66138I-410J-860*
G01*
G75*
D01*
G03X43082Y65688I-860J410*
G01*
G75*
D01*
G03X44802Y65688I860J-410*
G01*
G74*
D01*
G03X44874Y65657I410J860*
G01*
X44874Y65657D01*
X44874Y66210D01*
X44321Y66210D01*
G74*
D01*
G03X44352Y66138I891J338*
G01*
D02*
G37*
G36*
X46103Y66210D02*
X46103Y66210D01*
X45550Y66210D01*
X45550Y65657D01*
G74*
D01*
G03X46103Y66210I338J891*
G01*
D02*
G37*
G36*
X33422Y68337D02*
X33422Y68337D01*
X33422Y67807D01*
G75*
D01*
G03X34279Y66950I857J0*
G01*
X34279Y66950D01*
X34809Y66950D01*
G75*
D01*
G03X35666Y67807I0J857*
G01*
X35666Y67807D01*
X35666Y68337D01*
G74*
D01*
G03X34809Y69194I857J0*
G01*
X34809Y69194D01*
X34279Y69194D01*
G75*
D01*
G03X33422Y68337I0J-857*
G01*
D02*
G37*
G36*
X35924Y68072D02*
G75*
D01*
G03X35924Y68072I1160J0*
G01*
D02*
G37*
G36*
X45550Y67439D02*
X45550Y67439D01*
X45550Y66886D01*
X46103Y66886D01*
G74*
D01*
G03X45550Y67439I891J338*
G01*
D02*
G37*
G36*
X44321Y66886D02*
X44321Y66886D01*
X44874Y66886D01*
X44874Y67439D01*
G74*
D01*
G03X44321Y66886I338J891*
G01*
D02*
G37*
G36*
X44768Y66548D02*
G75*
D01*
G03X44768Y66548I444J0*
G01*
D02*
G37*
%LPD*%
G54D11*
X71522Y113041D02*
X71522Y112511D01*
G75*
D01*
G03X72379Y111654I857J0*
G01*
X72909Y111654D01*
G75*
D01*
G03X73766Y112511I0J857*
G01*
X73766Y113041D01*
G74*
D01*
G03X72909Y113898I857J0*
G01*
X72379Y113898D01*
G75*
D01*
G03X71522Y113041I0J-857*
G01*
X72249Y109910D02*
G75*
D01*
G03X72249Y109910I-621J-722*
G01*
X72249Y46908D02*
G75*
D01*
G03X72249Y46908I903J304*
G01*
X72283Y32903D02*
G75*
D01*
G03X72283Y32121I869J-391*
G01*
X72674Y32512D01*
X72283Y32903D01*
X72249Y49480D02*
G75*
D01*
G03X72249Y49480I903J304*
G01*
X72249Y95210D02*
G75*
D01*
G03X72249Y95210I-621J-722*
G01*
X72249Y92130D02*
G75*
D01*
G03X72249Y92130I-621J-722*
G01*
X78927Y75811D02*
G75*
D01*
G03X78927Y75811I321J897*
G01*
X72497Y77099D02*
X72106Y76708D01*
X72497Y76317D01*
G75*
D01*
G03X72497Y77099I-869J391*
G01*
X72249Y64788D02*
G75*
D01*
G03X72249Y64788I903J-304*
G01*
X24249Y112022D02*
G75*
D01*
G03X24249Y112022I-881J754*
G01*
X249Y94140D02*
G75*
D01*
G03X249Y94140I767J856*
G01*
X249Y54250D02*
G75*
D01*
G03X249Y54250I-249J1122*
G01*
X48249Y49072D02*
G75*
D01*
G03X48249Y49072I-497J-812*
G01*
X19161Y75811D02*
G75*
D01*
G03X19161Y75811I143J421*
G01*
X48249Y92900D02*
G75*
D01*
G03X48249Y92900I11J-952*
G01*
X48249Y97980D02*
G75*
D01*
G03X48249Y97980I11J-952*
G01*
X72019Y75839D02*
X71628Y76230D01*
X71237Y75839D01*
G75*
D01*
G03X72019Y75839I391J869*
G01*
X25546Y75811D02*
G75*
D01*
G03X25546Y75811I870J389*
G01*
X48249Y52528D02*
G75*
D01*
G03X48249Y52528I-497J812*
G01*
X78296Y109220D02*
G75*
D01*
G03X78296Y109220I952J0*
G01*
X74024Y112776D02*
G75*
D01*
G03X74024Y112776I1160J0*
G01*
X78296Y49816D02*
G75*
D01*
G03X78296Y49816I952J0*
G01*
X73543Y31643D02*
X73152Y32034D01*
X72761Y31643D01*
G75*
D01*
G03X73543Y31643I391J869*
G01*
X78296Y32512D02*
G75*
D01*
G03X78296Y32512I952J0*
G01*
X74021Y32903D02*
X73630Y32512D01*
X74021Y32121D01*
G75*
D01*
G03X74021Y32903I-869J391*
G01*
X72761Y33381D02*
X73152Y32990D01*
X73543Y33381D01*
G75*
D01*
G03X72761Y33381I-391J-869*
G01*
X72708Y32512D02*
G75*
D01*
G03X72708Y32512I444J0*
G01*
X78296Y47212D02*
G75*
D01*
G03X78296Y47212I952J0*
G01*
X78296Y94520D02*
G75*
D01*
G03X78296Y94520I952J0*
G01*
X78296Y91408D02*
G75*
D01*
G03X78296Y91408I952J0*
G01*
X78296Y64516D02*
G75*
D01*
G03X78296Y64516I952J0*
G01*
X73554Y68337D02*
X73554Y67807D01*
G75*
D01*
G03X74411Y66950I857J0*
G01*
X74941Y66950D01*
G75*
D01*
G03X75798Y67807I0J857*
G01*
X75798Y68337D01*
G74*
D01*
G03X74941Y69194I857J0*
G01*
X74411Y69194D01*
G75*
D01*
G03X73554Y68337I0J-857*
G01*
X76056Y68072D02*
G75*
D01*
G03X76056Y68072I1160J0*
G01*
X-9277Y106172D02*
G75*
D01*
G03X-9277Y106172I1149J0*
G01*
X-2673Y106172D02*
G75*
D01*
G03X-2673Y106172I1149J0*
G01*
X-7701Y109120D02*
X-7053Y109120D01*
G74*
D01*
G03X-7720Y109787I1075J408*
G01*
X-7720Y109139D01*
G75*
D01*
G03X-8536Y109139I-408J-427*
G01*
X-8536Y109787D01*
G74*
D01*
G03X-9203Y109120I408J1075*
G01*
X-8555Y109120D01*
G75*
D01*
G03X-8555Y108304I427J-408*
G01*
X-9203Y108304D01*
G74*
D01*
G03X-8536Y107637I1075J408*
G01*
X-8536Y108285D01*
G75*
D01*
G03X-7720Y108285I408J427*
G01*
X-7720Y107637D01*
G74*
D01*
G03X-7053Y108304I408J1075*
G01*
X-7701Y108304D01*
G75*
D01*
G03X-7701Y109120I-427J408*
G01*
X-2673Y108712D02*
G75*
D01*
G03X-2673Y108712I1149J0*
G01*
X-19918Y112533D02*
X-19918Y112003D01*
G75*
D01*
G03X-19061Y111146I857J0*
G01*
X-18531Y111146D01*
G75*
D01*
G03X-17674Y112003I0J857*
G01*
X-17674Y112533D01*
G74*
D01*
G03X-18531Y113390I857J0*
G01*
X-19061Y113390D01*
G75*
D01*
G03X-19918Y112533I0J-857*
G01*
X-17416Y112268D02*
G75*
D01*
G03X-17416Y112268I1160J0*
G01*
X-9277Y111252D02*
G75*
D01*
G03X-9277Y111252I1149J0*
G01*
X-2673Y111252D02*
G75*
D01*
G03X-2673Y111252I1149J0*
G01*
X3931Y106172D02*
G75*
D01*
G03X3931Y106172I1149J0*
G01*
X10535Y106172D02*
G75*
D01*
G03X10535Y106172I1149J0*
G01*
X3931Y108712D02*
G75*
D01*
G03X3931Y108712I1149J0*
G01*
X12111Y109120D02*
X12759Y109120D01*
G74*
D01*
G03X12092Y109787I1075J408*
G01*
X12092Y109139D01*
G75*
D01*
G03X11276Y109139I-408J-427*
G01*
X11276Y109787D01*
G74*
D01*
G03X10609Y109120I408J1075*
G01*
X11257Y109120D01*
G75*
D01*
G03X11257Y108304I427J-408*
G01*
X10609Y108304D01*
G74*
D01*
G03X11276Y107637I1075J408*
G01*
X11276Y108285D01*
G75*
D01*
G03X12092Y108285I408J427*
G01*
X12092Y107637D01*
G74*
D01*
G03X12759Y108304I408J1075*
G01*
X12111Y108304D01*
G75*
D01*
G03X12111Y109120I-427J408*
G01*
X18352Y109188D02*
G75*
D01*
G03X18352Y109188I952J0*
G01*
X3931Y111252D02*
G75*
D01*
G03X3931Y111252I1149J0*
G01*
X10535Y111252D02*
G75*
D01*
G03X10535Y111252I1149J0*
G01*
X19706Y113041D02*
X19706Y112511D01*
G75*
D01*
G03X20563Y111654I857J0*
G01*
X21093Y111654D01*
G75*
D01*
G03X21950Y112511I0J857*
G01*
X21950Y113041D01*
G74*
D01*
G03X21093Y113898I857J0*
G01*
X20563Y113898D01*
G75*
D01*
G03X19706Y113041I0J-857*
G01*
X50159Y106680D02*
G75*
D01*
G03X50159Y106680I1149J0*
G01*
X56255Y106680D02*
G75*
D01*
G03X56255Y106680I1149J0*
G01*
X62859Y106680D02*
G75*
D01*
G03X62859Y106680I1149J0*
G01*
X50159Y109220D02*
G75*
D01*
G03X50159Y109220I1149J0*
G01*
X56255Y109220D02*
G75*
D01*
G03X56255Y109220I1149J0*
G01*
X64435Y109628D02*
X65083Y109628D01*
G74*
D01*
G03X64416Y110295I1075J408*
G01*
X64416Y109647D01*
G75*
D01*
G03X63600Y109647I-408J-427*
G01*
X63600Y110295D01*
G74*
D01*
G03X62933Y109628I408J1075*
G01*
X63581Y109628D01*
G75*
D01*
G03X63581Y108812I427J-408*
G01*
X62933Y108812D01*
G74*
D01*
G03X63600Y108145I1075J408*
G01*
X63600Y108793D01*
G75*
D01*
G03X64416Y108793I408J427*
G01*
X64416Y108145D01*
G74*
D01*
G03X65083Y108812I408J1075*
G01*
X64435Y108812D01*
G75*
D01*
G03X64435Y109628I-427J408*
G01*
X50159Y111760D02*
G75*
D01*
G03X50159Y111760I1149J0*
G01*
X56255Y111760D02*
G75*
D01*
G03X56255Y111760I1149J0*
G01*
X62859Y111760D02*
G75*
D01*
G03X62859Y111760I1149J0*
G01*
X44063Y106680D02*
G75*
D01*
G03X44063Y106680I1149J0*
G01*
X25464Y109220D02*
G75*
D01*
G03X25464Y109220I952J0*
G01*
X45639Y109628D02*
X46287Y109628D01*
G74*
D01*
G03X45620Y110295I1075J408*
G01*
X45620Y109647D01*
G75*
D01*
G03X44804Y109647I-408J-427*
G01*
X44804Y110295D01*
G74*
D01*
G03X44137Y109628I408J1075*
G01*
X44785Y109628D01*
G75*
D01*
G03X44785Y108812I427J-408*
G01*
X44137Y108812D01*
G74*
D01*
G03X44804Y108145I1075J408*
G01*
X44804Y108793D01*
G75*
D01*
G03X45620Y108793I408J427*
G01*
X45620Y108145D01*
G74*
D01*
G03X46287Y108812I408J1075*
G01*
X45639Y108812D01*
G75*
D01*
G03X45639Y109628I-427J408*
G01*
X33930Y113041D02*
X33930Y112511D01*
G75*
D01*
G03X34787Y111654I857J0*
G01*
X35317Y111654D01*
G75*
D01*
G03X36174Y112511I0J857*
G01*
X36174Y113041D01*
G74*
D01*
G03X35317Y113898I857J0*
G01*
X34787Y113898D01*
G75*
D01*
G03X33930Y113041I0J-857*
G01*
X36432Y112776D02*
G75*
D01*
G03X36432Y112776I1160J0*
G01*
X44063Y111760D02*
G75*
D01*
G03X44063Y111760I1149J0*
G01*
X-6032Y48768D02*
G75*
D01*
G03X-6032Y48768I952J0*
G01*
X-4000Y36576D02*
G75*
D01*
G03X-4000Y36576I952J0*
G01*
X-3968Y41656D02*
G75*
D01*
G03X-3968Y41656I952J0*
G01*
X-20732Y48768D02*
G75*
D01*
G03X-20732Y48768I952J0*
G01*
X-6540Y96520D02*
G75*
D01*
G03X-6540Y96520I952J0*
G01*
X-4000Y79248D02*
G75*
D01*
G03X-4000Y79248I952J0*
G01*
X-16845Y81688D02*
X-16197Y81688D01*
G74*
D01*
G03X-16864Y82355I1075J408*
G01*
X-16864Y81707D01*
G75*
D01*
G03X-17680Y81707I-408J-427*
G01*
X-17680Y82355D01*
G74*
D01*
G03X-18347Y81688I408J1075*
G01*
X-17699Y81688D01*
G75*
D01*
G03X-17699Y80872I427J-408*
G01*
X-18347Y80872D01*
G74*
D01*
G03X-17680Y80205I1075J408*
G01*
X-17680Y80853D01*
G75*
D01*
G03X-16864Y80853I408J427*
G01*
X-16864Y80205D01*
G74*
D01*
G03X-16197Y80872I408J1075*
G01*
X-16845Y80872D01*
G75*
D01*
G03X-16845Y81688I-427J408*
G01*
X-15881Y81280D02*
G75*
D01*
G03X-15881Y81280I1149J0*
G01*
X-13341Y81280D02*
G75*
D01*
G03X-13341Y81280I1149J0*
G01*
X-10801Y81280D02*
G75*
D01*
G03X-10801Y81280I1149J0*
G01*
X-3968Y84328D02*
G75*
D01*
G03X-3968Y84328I952J0*
G01*
X-21240Y91440D02*
G75*
D01*
G03X-21240Y91440I952J0*
G01*
X-6540Y91440D02*
G75*
D01*
G03X-6540Y91440I952J0*
G01*
X-21240Y96520D02*
G75*
D01*
G03X-21240Y96520I952J0*
G01*
X-16908Y68072D02*
G75*
D01*
G03X-16908Y68072I1160J0*
G01*
X-20732Y53848D02*
G75*
D01*
G03X-20732Y53848I952J0*
G01*
X-6032Y53848D02*
G75*
D01*
G03X-6032Y53848I952J0*
G01*
X-9496Y65122D02*
G75*
D01*
G03X-10316Y65122I-410J-860*
G01*
G75*
D01*
G03X-10766Y64672I-860J410*
G01*
G75*
D01*
G03X-9046Y64672I860J-410*
G01*
G74*
D01*
G03X-8974Y64641I410J860*
G01*
X-8974Y65194D01*
X-9527Y65194D01*
G74*
D01*
G03X-9496Y65122I891J338*
G01*
X-9527Y65870D02*
X-8974Y65870D01*
X-8974Y66423D01*
G74*
D01*
G03X-9527Y65870I338J891*
G01*
X-8298Y66423D02*
X-8298Y65870D01*
X-7745Y65870D01*
G74*
D01*
G03X-8298Y66423I891J338*
G01*
X-7745Y65194D02*
X-8298Y65194D01*
X-8298Y64641D01*
G74*
D01*
G03X-7745Y65194I338J891*
G01*
X-9080Y65532D02*
G75*
D01*
G03X-9080Y65532I444J0*
G01*
X-1769Y66557D02*
G75*
D01*
G03X-3819Y66557I-1025J245*
G01*
G75*
D01*
G03X-3039Y65777I-245J-1025*
G01*
G75*
D01*
G03X-2549Y65777I245J1025*
G01*
G75*
D01*
G03X-1769Y66557I1025J-245*
G01*
X-19410Y68337D02*
X-19410Y67807D01*
G75*
D01*
G03X-18553Y66950I857J0*
G01*
X-18023Y66950D01*
G75*
D01*
G03X-17166Y67807I0J857*
G01*
X-17166Y68337D01*
G74*
D01*
G03X-18023Y69194I857J0*
G01*
X-18553Y69194D01*
G75*
D01*
G03X-19410Y68337I0J-857*
G01*
X17844Y49276D02*
G75*
D01*
G03X17844Y49276I952J0*
G01*
X17927Y31919D02*
G75*
D01*
G03X17927Y31137I869J-391*
G01*
X18318Y31528D01*
X17927Y31919D01*
X19665Y31919D02*
X19274Y31528D01*
X19665Y31137D01*
G75*
D01*
G03X19665Y31919I-869J391*
G01*
X19187Y30659D02*
X18796Y31050D01*
X18405Y30659D01*
G75*
D01*
G03X19187Y30659I391J869*
G01*
X18352Y31528D02*
G75*
D01*
G03X18352Y31528I444J0*
G01*
X18405Y32397D02*
X18796Y32006D01*
X19187Y32397D01*
G75*
D01*
G03X18405Y32397I-391J-869*
G01*
X12043Y35707D02*
X11652Y36098D01*
X11261Y35707D01*
G75*
D01*
G03X12043Y35707I391J869*
G01*
X11261Y37445D02*
X11652Y37054D01*
X12043Y37445D01*
G75*
D01*
G03X11261Y37445I-391J-869*
G01*
X11208Y36576D02*
G75*
D01*
G03X11208Y36576I444J0*
G01*
X10783Y36967D02*
G75*
D01*
G03X10783Y36185I869J-391*
G01*
X11174Y36576D01*
X10783Y36967D01*
X12521Y36967D02*
X12130Y36576D01*
X12521Y36185D01*
G75*
D01*
G03X12521Y36967I-869J391*
G01*
X10732Y41656D02*
G75*
D01*
G03X10732Y41656I952J0*
G01*
X17844Y46228D02*
G75*
D01*
G03X17844Y46228I952J0*
G01*
X49340Y38100D02*
G75*
D01*
G03X49340Y38100I952J0*
G01*
X64123Y38491D02*
G75*
D01*
G03X64123Y37709I869J-391*
G01*
X64514Y38100D01*
X64123Y38491D01*
X65861Y38491D02*
X65470Y38100D01*
X65861Y37709D01*
G75*
D01*
G03X65861Y38491I-869J391*
G01*
X64548Y38100D02*
G75*
D01*
G03X64548Y38100I444J0*
G01*
X65383Y37231D02*
X64992Y37622D01*
X64601Y37231D01*
G75*
D01*
G03X65383Y37231I391J869*
G01*
X64601Y38969D02*
X64992Y38578D01*
X65383Y38969D01*
G75*
D01*
G03X64601Y38969I-391J-869*
G01*
X49372Y43180D02*
G75*
D01*
G03X49372Y43180I952J0*
G01*
X64072Y43180D02*
G75*
D01*
G03X64072Y43180I952J0*
G01*
X24448Y49308D02*
G75*
D01*
G03X24448Y49308I952J0*
G01*
X24448Y31496D02*
G75*
D01*
G03X24448Y31496I952J0*
G01*
X24448Y46196D02*
G75*
D01*
G03X24448Y46196I952J0*
G01*
X32100Y48260D02*
G75*
D01*
G03X32100Y48260I952J0*
G01*
X18352Y94488D02*
G75*
D01*
G03X18352Y94488I952J0*
G01*
X18435Y76623D02*
G75*
D01*
G03X18435Y75841I869J-391*
G01*
X18826Y76232D01*
X18435Y76623D01*
X20173Y76623D02*
X19782Y76232D01*
X20173Y75841D01*
G75*
D01*
G03X20173Y76623I-869J391*
G01*
X18913Y77101D02*
X19304Y76710D01*
X19695Y77101D01*
G75*
D01*
G03X18913Y77101I-391J-869*
G01*
X11261Y80117D02*
X11652Y79726D01*
X12043Y80117D01*
G75*
D01*
G03X11261Y80117I-391J-869*
G01*
X12043Y78379D02*
X11652Y78770D01*
X11261Y78379D01*
G75*
D01*
G03X12043Y78379I391J869*
G01*
X11208Y79248D02*
G75*
D01*
G03X11208Y79248I444J0*
G01*
X10783Y79639D02*
G75*
D01*
G03X10783Y78857I869J-391*
G01*
X11174Y79248D01*
X10783Y79639D01*
X12521Y79639D02*
X12130Y79248D01*
X12521Y78857D01*
G75*
D01*
G03X12521Y79639I-869J391*
G01*
X10732Y84328D02*
G75*
D01*
G03X10732Y84328I952J0*
G01*
X18352Y90932D02*
G75*
D01*
G03X18352Y90932I952J0*
G01*
X2407Y94996D02*
G75*
D01*
G03X2407Y94996I1149J0*
G01*
X71237Y77577D02*
X71628Y77186D01*
X72019Y77577D01*
G75*
D01*
G03X71237Y77577I-391J-869*
G01*
X71184Y76708D02*
G75*
D01*
G03X71184Y76708I444J0*
G01*
X70759Y77099D02*
G75*
D01*
G03X70759Y76317I869J-391*
G01*
X71150Y76708D01*
X70759Y77099D01*
X49848Y79756D02*
G75*
D01*
G03X49848Y79756I952J0*
G01*
X64631Y80147D02*
G75*
D01*
G03X64631Y79365I869J-391*
G01*
X65022Y79756D01*
X64631Y80147D01*
X66369Y80147D02*
X65978Y79756D01*
X66369Y79365D01*
G75*
D01*
G03X66369Y80147I-869J391*
G01*
X65056Y79756D02*
G75*
D01*
G03X65056Y79756I444J0*
G01*
X65891Y78887D02*
X65500Y79278D01*
X65109Y78887D01*
G75*
D01*
G03X65891Y78887I391J869*
G01*
X65109Y80625D02*
X65500Y80234D01*
X65891Y80625D01*
G75*
D01*
G03X65109Y80625I-391J-869*
G01*
X49880Y84836D02*
G75*
D01*
G03X49880Y84836I952J0*
G01*
X64580Y84836D02*
G75*
D01*
G03X64580Y84836I952J0*
G01*
X52699Y95504D02*
G75*
D01*
G03X52699Y95504I1149J0*
G01*
X55239Y95504D02*
G75*
D01*
G03X55239Y95504I1149J0*
G01*
X19695Y75363D02*
X19304Y75754D01*
X18913Y75363D01*
G75*
D01*
G03X19695Y75363I391J869*
G01*
X1391Y55372D02*
G75*
D01*
G03X1391Y55372I1149J0*
G01*
X11840Y65122D02*
G75*
D01*
G03X11020Y65122I-410J-860*
G01*
G75*
D01*
G03X10570Y64672I-860J410*
G01*
G75*
D01*
G03X12290Y64672I860J-410*
G01*
G74*
D01*
G03X12362Y64641I410J860*
G01*
X12362Y65194D01*
X11809Y65194D01*
G74*
D01*
G03X11840Y65122I891J338*
G01*
X17844Y63976D02*
G75*
D01*
G03X17844Y63976I952J0*
G01*
X5343Y66557D02*
G75*
D01*
G03X3293Y66557I-1025J245*
G01*
G75*
D01*
G03X4073Y65777I-245J-1025*
G01*
G75*
D01*
G03X4563Y65777I245J1025*
G01*
G75*
D01*
G03X5343Y66557I1025J-245*
G01*
X11809Y65870D02*
X12362Y65870D01*
X12362Y66423D01*
G74*
D01*
G03X11809Y65870I338J891*
G01*
X13038Y66423D02*
X13038Y65870D01*
X13591Y65870D01*
G74*
D01*
G03X13038Y66423I891J338*
G01*
X13591Y65194D02*
X13038Y65194D01*
X13038Y64641D01*
G74*
D01*
G03X13591Y65194I338J891*
G01*
X12256Y65532D02*
G75*
D01*
G03X12256Y65532I444J0*
G01*
X19198Y68337D02*
X19198Y67807D01*
G75*
D01*
G03X20055Y66950I857J0*
G01*
X20585Y66950D01*
G75*
D01*
G03X21442Y67807I0J857*
G01*
X21442Y68337D01*
G74*
D01*
G03X20585Y69194I857J0*
G01*
X20055Y69194D01*
G75*
D01*
G03X19198Y68337I0J-857*
G01*
X21700Y68072D02*
G75*
D01*
G03X21700Y68072I1160J0*
G01*
X25464Y90900D02*
G75*
D01*
G03X25464Y90900I952J0*
G01*
X32608Y91948D02*
G75*
D01*
G03X32608Y91948I952J0*
G01*
X25464Y94520D02*
G75*
D01*
G03X25464Y94520I952J0*
G01*
X32608Y97028D02*
G75*
D01*
G03X32608Y97028I952J0*
G01*
X53207Y55372D02*
G75*
D01*
G03X53207Y55372I1149J0*
G01*
X55747Y55372D02*
G75*
D01*
G03X55747Y55372I1149J0*
G01*
X52587Y67065D02*
G75*
D01*
G03X50537Y67065I-1025J245*
G01*
G75*
D01*
G03X51317Y66285I-245J-1025*
G01*
G75*
D01*
G03X51807Y66285I245J1025*
G01*
G75*
D01*
G03X52587Y67065I1025J-245*
G01*
X59699Y67065D02*
G75*
D01*
G03X57649Y67065I-1025J245*
G01*
G75*
D01*
G03X58429Y66285I-245J-1025*
G01*
G75*
D01*
G03X58919Y66285I245J1025*
G01*
G75*
D01*
G03X59699Y67065I1025J-245*
G01*
X66704Y66138D02*
G75*
D01*
G03X65884Y66138I-410J-860*
G01*
G75*
D01*
G03X65434Y65688I-860J410*
G01*
G75*
D01*
G03X67154Y65688I860J-410*
G01*
G74*
D01*
G03X67226Y65657I410J860*
G01*
X67226Y66210D01*
X66673Y66210D01*
G74*
D01*
G03X66704Y66138I891J338*
G01*
X68455Y66210D02*
X67902Y66210D01*
X67902Y65657D01*
G74*
D01*
G03X68455Y66210I338J891*
G01*
X67902Y67439D02*
X67902Y66886D01*
X68455Y66886D01*
G74*
D01*
G03X67902Y67439I891J338*
G01*
X67120Y66548D02*
G75*
D01*
G03X67120Y66548I444J0*
G01*
X66673Y66886D02*
X67226Y66886D01*
X67226Y67439D01*
G74*
D01*
G03X66673Y66886I338J891*
G01*
X32100Y53340D02*
G75*
D01*
G03X32100Y53340I952J0*
G01*
X24448Y64008D02*
G75*
D01*
G03X24448Y64008I952J0*
G01*
X44352Y66138D02*
G75*
D01*
G03X43532Y66138I-410J-860*
G01*
G75*
D01*
G03X43082Y65688I-860J410*
G01*
G75*
D01*
G03X44802Y65688I860J-410*
G01*
G74*
D01*
G03X44874Y65657I410J860*
G01*
X44874Y66210D01*
X44321Y66210D01*
G74*
D01*
G03X44352Y66138I891J338*
G01*
X46103Y66210D02*
X45550Y66210D01*
X45550Y65657D01*
G74*
D01*
G03X46103Y66210I338J891*
G01*
X33422Y68337D02*
X33422Y67807D01*
G75*
D01*
G03X34279Y66950I857J0*
G01*
X34809Y66950D01*
G75*
D01*
G03X35666Y67807I0J857*
G01*
X35666Y68337D01*
G74*
D01*
G03X34809Y69194I857J0*
G01*
X34279Y69194D01*
G75*
D01*
G03X33422Y68337I0J-857*
G01*
X35924Y68072D02*
G75*
D01*
G03X35924Y68072I1160J0*
G01*
X45550Y67439D02*
X45550Y66886D01*
X46103Y66886D01*
G74*
D01*
G03X45550Y67439I891J338*
G01*
X44321Y66886D02*
X44874Y66886D01*
X44874Y67439D01*
G74*
D01*
G03X44321Y66886I338J891*
G01*
X44768Y66548D02*
G75*
D01*
G03X44768Y66548I444J0*
G01*
X83691Y28577D02*
X-22985Y28577D01*
X-22985Y117727D01*
X83691Y117727D01*
X83691Y28577D01*
G54D12*
X-23622Y27940D02*
X-23622Y36982D01*
X-23622Y27940D02*
X-12827Y27940D01*
X84328Y27940D02*
X73533Y27940D01*
X84328Y27940D02*
X84328Y36982D01*
X84328Y118364D02*
X84328Y109322D01*
X84328Y118364D02*
X73533Y118364D01*
X-23622Y118364D02*
X-12827Y118364D01*
X-23622Y118364D02*
X-23622Y109322D01*
X-28622Y27940D02*
X-38622Y27940D01*
X-33622Y22940D02*
X-33622Y32940D01*
X-37372Y27940D02*
G75*
D01*
G02X-37372Y27940I3750J0*
G01*
X89328Y27940D02*
X99328Y27940D01*
X94328Y22940D02*
X94328Y32940D01*
X90578Y27940D02*
G75*
D01*
G02X90578Y27940I3750J0*
G01*
X93078Y27940D02*
G75*
D01*
G02X93078Y27940I1250J0*
G01*
X-28622Y118364D02*
X-38622Y118364D01*
X-33622Y113364D02*
X-33622Y123364D01*
X-37372Y118364D02*
G75*
D01*
G02X-37372Y118364I3750J0*
G01*
X-36122Y118364D02*
G75*
D01*
G02X-36122Y118364I2500J0*
G01*
X-34872Y118364D02*
G75*
D01*
G02X-34872Y118364I1250J0*
G01*
G54D13*
X-16256Y112268D03*
X23368Y112776D03*
X37592Y112776D03*
X75184Y112776D03*
X-15748Y68072D03*
X22860Y68072D03*
X37084Y68072D03*
X77216Y68072D03*
G54D14*
X-18796Y112268D03*
X20828Y112776D03*
X35052Y112776D03*
X72644Y112776D03*
X-18288Y68072D03*
X20320Y68072D03*
X34544Y68072D03*
X74676Y68072D03*
G54D15*
X-19060Y112004D02*
X-18532Y112004D01*
X-18532Y112532D01*
X-19060Y112532D01*
X-19060Y112004D01*D02*
X20564Y112512D02*
X21092Y112512D01*
X21092Y113040D01*
X20564Y113040D01*
X20564Y112512D01*D02*
X34788Y112512D02*
X35316Y112512D01*
X35316Y113040D01*
X34788Y113040D01*
X34788Y112512D01*D02*
X72380Y112512D02*
X72908Y112512D01*
X72908Y113040D01*
X72380Y113040D01*
X72380Y112512D01*D02*
X-18552Y67808D02*
X-18024Y67808D01*
X-18024Y68336D01*
X-18552Y68336D01*
X-18552Y67808D01*D02*
X20056Y67808D02*
X20584Y67808D01*
X20584Y68336D01*
X20056Y68336D01*
X20056Y67808D01*D02*
X34280Y67808D02*
X34808Y67808D01*
X34808Y68336D01*
X34280Y68336D01*
X34280Y67808D01*D02*
X74412Y67808D02*
X74940Y67808D01*
X74940Y68336D01*
X74412Y68336D01*
X74412Y67808D01*D02*
G54D16*
X-12192Y81280D03*
X-14732Y81280D03*
X-17272Y81280D03*
X-9652Y81280D03*
X1016Y94996D03*
X3556Y94996D03*
X53848Y95504D03*
X56388Y95504D03*
X64008Y106680D03*
X64008Y109220D03*
X64008Y111760D03*
X2540Y55372D03*
X0Y55372D03*
X56896Y55372D03*
X54356Y55372D03*
X57404Y109220D03*
X57404Y106680D03*
X57404Y111760D03*
X51308Y109220D03*
X51308Y106680D03*
X51308Y111760D03*
X45212Y106680D03*
X45212Y109220D03*
X45212Y111760D03*
X5080Y108712D03*
X5080Y106172D03*
X5080Y111252D03*
X11684Y106172D03*
X11684Y108712D03*
X11684Y111252D03*
X-1524Y108712D03*
X-1524Y106172D03*
X-1524Y111252D03*
X-8128Y106172D03*
X-8128Y108712D03*
X-8128Y111252D03*
G54D17*
X11652Y79248D03*
X-3048Y79248D03*
X-3016Y84328D03*
X11684Y84328D03*
X-20288Y91440D03*
X-5588Y91440D03*
X-20288Y96520D03*
X-5588Y96520D03*
X19304Y76232D03*
X19304Y90932D03*
X26416Y90900D03*
X26416Y76200D03*
X19304Y109188D03*
X19304Y94488D03*
X26416Y94520D03*
X26416Y109220D03*
X33560Y91948D03*
X48260Y91948D03*
X33560Y97028D03*
X48260Y97028D03*
X65500Y79756D03*
X50800Y79756D03*
X50832Y84836D03*
X65532Y84836D03*
X71628Y76708D03*
X71628Y91408D03*
X79248Y91408D03*
X79248Y76708D03*
X71628Y109188D03*
X71628Y94488D03*
X79248Y94520D03*
X79248Y109220D03*
X11652Y36576D03*
X-3048Y36576D03*
X18796Y31528D03*
X18796Y46228D03*
X25400Y46196D03*
X25400Y31496D03*
X-3016Y41656D03*
X11684Y41656D03*
X-19780Y48768D03*
X-5080Y48768D03*
X18796Y63976D03*
X18796Y49276D03*
X25400Y49308D03*
X25400Y64008D03*
X-19780Y53848D03*
X-5080Y53848D03*
X73152Y32512D03*
X73152Y47212D03*
X79248Y47212D03*
X79248Y32512D03*
X64992Y38100D03*
X50292Y38100D03*
X50324Y43180D03*
X65024Y43180D03*
X33052Y48260D03*
X47752Y48260D03*
X73152Y64484D03*
X73152Y49784D03*
X79248Y49816D03*
X79248Y64516D03*
X33052Y53340D03*
X47752Y53340D03*
X66294Y65278D03*
X67564Y66548D03*
X65024Y66548D03*
X-9906Y64262D03*
X-8636Y65532D03*
X-11176Y65532D03*
X11430Y64262D03*
X12700Y65532D03*
X10160Y65532D03*
X43942Y65278D03*
X45212Y66548D03*
X42672Y66548D03*
G54D18*
X-4064Y65532D03*
X-2794Y66802D03*
X-1524Y65532D03*
X3048Y65532D03*
X4318Y66802D03*
X5588Y65532D03*
X50292Y66040D03*
X51562Y67310D03*
X52832Y66040D03*
X57404Y66040D03*
X58674Y67310D03*
X59944Y66040D03*

M02*
