G04 Generated by Ultiboard 14.2 *
%FSLAX33Y33*%
%MOMM*%

%ADD10C,0.001*%
%ADD11C,0.203*%
%ADD12C,0.127*%
%ADD13C,1.609*%
%ADD14R,0.529X0.529*%
%ADD15C,0.995*%
%ADD16C,1.537*%
%ADD17C,1.245*%
%ADD18C,1.397*%


G04 ColorRGB F1F1F1 for the following layer *
%LNCopper Inner 3*%
%LPD*%
G54D10*
G54D11*
X4318Y66802D02*
X6096Y66802D01*
X8636Y64262D01*
X11430Y64262D01*
X-5080Y48768D02*
X-3048Y50800D01*
X-3048Y52324D01*
X0Y55372D01*
X50292Y51308D02*
X54356Y55372D01*
X47752Y48768D02*
X50292Y51308D01*
X47752Y48768D02*
X47752Y48260D01*
X58674Y67310D02*
X60706Y67310D01*
X62738Y65278D01*
X66294Y65278D01*
X67310Y64262D01*
X67310Y49752D02*
X69850Y47212D01*
X67310Y64262D02*
X67310Y49752D01*
X69850Y47212D02*
X73152Y47212D01*
X11430Y64262D02*
X13208Y62484D01*
X13208Y48768D01*
X15748Y46228D01*
X18796Y46228D01*
X-11176Y65532D02*
X-10160Y66548D01*
X-6858Y66548D01*
X-5842Y65532D01*
X-4064Y65532D01*
X43942Y65278D02*
X45974Y65278D01*
X48006Y67310D01*
X51562Y67310D01*
X-5588Y91440D02*
X-762Y91440D01*
X1016Y93218D01*
X1016Y94996D01*
X11684Y111252D02*
X14986Y107950D01*
X14986Y92456D01*
X16510Y90932D01*
X19304Y90932D01*
X48260Y91948D02*
X52578Y91948D01*
X53848Y93218D01*
X53848Y95504D01*
X64008Y111760D02*
X67056Y108712D01*
X67056Y92710D01*
X68326Y91440D01*
X71596Y91440D01*
G54D12*
X-23622Y27940D02*
X-23622Y36982D01*
X-23622Y27940D02*
X-12827Y27940D01*
X84328Y27940D02*
X73533Y27940D01*
X84328Y27940D02*
X84328Y36982D01*
X84328Y118364D02*
X84328Y109322D01*
X84328Y118364D02*
X73533Y118364D01*
X-23622Y118364D02*
X-12827Y118364D01*
X-23622Y118364D02*
X-23622Y109322D01*
X-28622Y27940D02*
X-38622Y27940D01*
X-33622Y22940D02*
X-33622Y32940D01*
X-37372Y27940D02*
G75*
D01*
G02X-37372Y27940I3750J0*
G01*
X89328Y27940D02*
X99328Y27940D01*
X94328Y22940D02*
X94328Y32940D01*
X90578Y27940D02*
G75*
D01*
G02X90578Y27940I3750J0*
G01*
X93078Y27940D02*
G75*
D01*
G02X93078Y27940I1250J0*
G01*
X-28622Y118364D02*
X-38622Y118364D01*
X-33622Y113364D02*
X-33622Y123364D01*
X-37372Y118364D02*
G75*
D01*
G02X-37372Y118364I3750J0*
G01*
X-36122Y118364D02*
G75*
D01*
G02X-36122Y118364I2500J0*
G01*
X-34872Y118364D02*
G75*
D01*
G02X-34872Y118364I1250J0*
G01*
G54D13*
X-16256Y112268D03*
X23368Y112776D03*
X37592Y112776D03*
X75184Y112776D03*
X-15748Y68072D03*
X22860Y68072D03*
X37084Y68072D03*
X77216Y68072D03*
G54D14*
X-18796Y112268D03*
X20828Y112776D03*
X35052Y112776D03*
X72644Y112776D03*
X-18288Y68072D03*
X20320Y68072D03*
X34544Y68072D03*
X74676Y68072D03*
G54D15*
X-19060Y112004D02*
X-18532Y112004D01*
X-18532Y112532D01*
X-19060Y112532D01*
X-19060Y112004D01*D02*
X20564Y112512D02*
X21092Y112512D01*
X21092Y113040D01*
X20564Y113040D01*
X20564Y112512D01*D02*
X34788Y112512D02*
X35316Y112512D01*
X35316Y113040D01*
X34788Y113040D01*
X34788Y112512D01*D02*
X72380Y112512D02*
X72908Y112512D01*
X72908Y113040D01*
X72380Y113040D01*
X72380Y112512D01*D02*
X-18552Y67808D02*
X-18024Y67808D01*
X-18024Y68336D01*
X-18552Y68336D01*
X-18552Y67808D01*D02*
X20056Y67808D02*
X20584Y67808D01*
X20584Y68336D01*
X20056Y68336D01*
X20056Y67808D01*D02*
X34280Y67808D02*
X34808Y67808D01*
X34808Y68336D01*
X34280Y68336D01*
X34280Y67808D01*D02*
X74412Y67808D02*
X74940Y67808D01*
X74940Y68336D01*
X74412Y68336D01*
X74412Y67808D01*D02*
G54D16*
X-12192Y81280D03*
X-14732Y81280D03*
X-17272Y81280D03*
X-9652Y81280D03*
X1016Y94996D03*
X3556Y94996D03*
X53848Y95504D03*
X56388Y95504D03*
X64008Y106680D03*
X64008Y109220D03*
X64008Y111760D03*
X2540Y55372D03*
X0Y55372D03*
X56896Y55372D03*
X54356Y55372D03*
X57404Y109220D03*
X57404Y106680D03*
X57404Y111760D03*
X51308Y109220D03*
X51308Y106680D03*
X51308Y111760D03*
X45212Y106680D03*
X45212Y109220D03*
X45212Y111760D03*
X5080Y108712D03*
X5080Y106172D03*
X5080Y111252D03*
X11684Y106172D03*
X11684Y108712D03*
X11684Y111252D03*
X-1524Y108712D03*
X-1524Y106172D03*
X-1524Y111252D03*
X-8128Y106172D03*
X-8128Y108712D03*
X-8128Y111252D03*
G54D17*
X11652Y79248D03*
X-3048Y79248D03*
X-3016Y84328D03*
X11684Y84328D03*
X-20288Y91440D03*
X-5588Y91440D03*
X-20288Y96520D03*
X-5588Y96520D03*
X19304Y76232D03*
X19304Y90932D03*
X26416Y90900D03*
X26416Y76200D03*
X19304Y109188D03*
X19304Y94488D03*
X26416Y94520D03*
X26416Y109220D03*
X33560Y91948D03*
X48260Y91948D03*
X33560Y97028D03*
X48260Y97028D03*
X65500Y79756D03*
X50800Y79756D03*
X50832Y84836D03*
X65532Y84836D03*
X71628Y76708D03*
X71628Y91408D03*
X79248Y91408D03*
X79248Y76708D03*
X71628Y109188D03*
X71628Y94488D03*
X79248Y94520D03*
X79248Y109220D03*
X11652Y36576D03*
X-3048Y36576D03*
X18796Y31528D03*
X18796Y46228D03*
X25400Y46196D03*
X25400Y31496D03*
X-3016Y41656D03*
X11684Y41656D03*
X-19780Y48768D03*
X-5080Y48768D03*
X18796Y63976D03*
X18796Y49276D03*
X25400Y49308D03*
X25400Y64008D03*
X-19780Y53848D03*
X-5080Y53848D03*
X73152Y32512D03*
X73152Y47212D03*
X79248Y47212D03*
X79248Y32512D03*
X64992Y38100D03*
X50292Y38100D03*
X50324Y43180D03*
X65024Y43180D03*
X33052Y48260D03*
X47752Y48260D03*
X73152Y64484D03*
X73152Y49784D03*
X79248Y49816D03*
X79248Y64516D03*
X33052Y53340D03*
X47752Y53340D03*
X66294Y65278D03*
X67564Y66548D03*
X65024Y66548D03*
X-9906Y64262D03*
X-8636Y65532D03*
X-11176Y65532D03*
X11430Y64262D03*
X12700Y65532D03*
X10160Y65532D03*
X43942Y65278D03*
X45212Y66548D03*
X42672Y66548D03*
G54D18*
X-4064Y65532D03*
X-2794Y66802D03*
X-1524Y65532D03*
X3048Y65532D03*
X4318Y66802D03*
X5588Y65532D03*
X50292Y66040D03*
X51562Y67310D03*
X52832Y66040D03*
X57404Y66040D03*
X58674Y67310D03*
X59944Y66040D03*

M02*
