G04 Generated by Ultiboard 14.2 *
%FSLAX33Y33*%
%MOMM*%

%ADD10C,0.001*%
%ADD11C,0.762*%
%ADD12C,0.203*%
%ADD13C,0.381*%
%ADD14C,0.001*%
%ADD15C,0.127*%
%ADD16C,1.609*%
%ADD17R,0.529X0.529*%
%ADD18C,0.995*%
%ADD19C,1.537*%
%ADD20C,1.245*%
%ADD21R,1.245X1.245*%
%ADD22R,1.537X1.537*%
%ADD23O,0.300X0.800*%
%ADD24C,1.397*%


G04 ColorRGB 00FF00 for the following layer *
%LNCopper Top*%
%LPD*%
G54D10*
G54D11*
X-8128Y106172D02*
X-1524Y106172D01*
X254Y104394D02*
X254Y95758D01*
X254Y104394D02*
X-1524Y106172D01*
X254Y95758D02*
X1016Y94996D01*
X5080Y106172D02*
X11684Y106172D01*
X4318Y105410D02*
X5080Y106172D01*
X4318Y95758D02*
X3556Y94996D01*
X4318Y95758D02*
X4318Y105410D01*
X53086Y96266D02*
X53848Y95504D01*
X53086Y105664D02*
X52070Y106680D01*
X45212Y106680D02*
X52070Y106680D01*
X53086Y105664D02*
X53086Y96266D01*
X57404Y106680D02*
X64008Y106680D01*
X56388Y105664D02*
X57404Y106680D01*
X56388Y95504D02*
X56388Y105664D01*
G54D12*
X-18034Y110236D02*
X-18034Y108692D01*
X-17526Y110744D02*
X-18034Y110236D01*
X-18796Y110490D02*
X-18538Y110232D01*
X-18538Y108688D01*
X-18796Y112268D02*
X-18796Y110490D01*
X-20288Y91440D02*
X-20288Y101822D01*
X11942Y98020D02*
X11942Y99826D01*
X14986Y102870D01*
X14986Y109982D02*
X15748Y110744D01*
X14986Y102870D02*
X14986Y109982D01*
X19304Y94488D02*
X26384Y94488D01*
X16510Y90932D02*
X14986Y92456D01*
X16510Y90932D02*
X26384Y90932D01*
X12442Y98020D02*
X12442Y98802D01*
X12700Y99060D02*
X14986Y99060D01*
X12442Y98802D02*
X12700Y99060D01*
X14986Y99060D02*
X15748Y98298D01*
X5080Y111252D02*
X11684Y111252D01*
X14986Y92456D02*
X14986Y97754D01*
X14466Y98274D02*
X13196Y98274D01*
X12942Y98020D01*
X14986Y97754D02*
X14466Y98274D01*
X15748Y95758D02*
X17018Y94488D01*
X19304Y94488D01*
X15748Y98298D02*
X15748Y95758D01*
X57404Y111760D02*
X64008Y111760D01*
X35810Y110486D02*
X35810Y109196D01*
X36195Y110871D02*
X35810Y110486D01*
X36195Y113919D02*
X36195Y110871D01*
X35814Y114300D02*
X36195Y113919D01*
X35052Y112776D02*
X35052Y110744D01*
X35306Y110490D01*
X35306Y109200D01*
X50832Y84836D02*
X50832Y79788D01*
X-3016Y84328D02*
X-3016Y79280D01*
X33560Y91948D02*
X33560Y99790D01*
X21336Y110744D02*
X23368Y112776D01*
X15748Y110744D02*
X21336Y110744D01*
X64266Y98020D02*
X64266Y101096D01*
X68358Y91408D02*
X67056Y92710D01*
X68358Y91408D02*
X79248Y91408D01*
X73152Y110744D02*
X75184Y112776D01*
X64266Y101096D02*
X67056Y103886D01*
X64766Y98548D02*
X64766Y98020D01*
X69088Y94488D02*
X79216Y94488D01*
X69088Y94488D02*
X67818Y95758D01*
X67056Y103886D02*
X67056Y109728D01*
X68072Y110744D01*
X73152Y110744D01*
X-18288Y68072D02*
X-18288Y66294D01*
X-17522Y65528D01*
X-17522Y63984D01*
X-17022Y63984D02*
X-17022Y68584D01*
X-17653Y69215D02*
X-18923Y69215D01*
X-17022Y68584D02*
X-17653Y69215D01*
X-19812Y68326D02*
X-19812Y53880D01*
X-18923Y69215D02*
X-19812Y68326D01*
X-19780Y53848D02*
X-19780Y48768D01*
X10926Y56872D02*
X10926Y58932D01*
X11430Y59436D01*
X16256Y66040D02*
X20828Y66040D01*
X15240Y65024D02*
X16256Y66040D01*
X20828Y66040D02*
X22860Y68072D01*
X12700Y59436D02*
X15240Y61976D01*
X11430Y59436D02*
X12700Y59436D01*
X15240Y61976D02*
X15240Y65024D01*
X-14720Y64262D02*
X-14998Y63984D01*
X-9906Y64262D02*
X-14720Y64262D01*
X-14998Y63984D02*
X-16522Y63984D01*
X-8636Y64008D02*
X-8636Y65532D01*
X-9652Y62992D02*
X-8636Y64008D01*
X-14454Y60984D02*
X-12446Y62992D01*
X-9652Y62992D01*
X-16522Y60984D02*
X-14454Y60984D01*
X-3016Y41656D02*
X-3016Y36608D01*
X13208Y56388D02*
X12724Y56872D01*
X11926Y56872D01*
X15748Y46228D02*
X13208Y48768D01*
X15748Y46228D02*
X25368Y46228D01*
X13208Y48768D02*
X13208Y56388D01*
X16510Y49276D02*
X25368Y49276D01*
X11426Y57400D02*
X11426Y56872D01*
X11684Y57658D02*
X11426Y57400D01*
X13208Y57658D02*
X11684Y57658D01*
X14478Y51308D02*
X14478Y56388D01*
X16510Y49276D02*
X14478Y51308D01*
X14478Y56388D02*
X13208Y57658D01*
X50292Y38100D02*
X50292Y43148D01*
X69882Y47212D02*
X79248Y47212D01*
X69882Y47212D02*
X67310Y49784D01*
X67310Y56388D01*
X66318Y57380D01*
X70612Y49784D02*
X79216Y49784D01*
X70612Y49784D02*
X68834Y51562D01*
X68834Y56642D01*
X64258Y57908D02*
X64258Y57380D01*
X67310Y58166D02*
X64516Y58166D01*
X64258Y57908D01*
X68834Y56642D02*
X67310Y58166D01*
X64758Y57380D02*
X66318Y57380D01*
X7874Y58662D02*
X9664Y56872D01*
X10426Y56872D01*
X5588Y65532D02*
X7874Y63246D01*
X7874Y58662D01*
X34544Y68072D02*
X34544Y66802D01*
X35818Y65528D01*
X35818Y63984D01*
X63758Y57380D02*
X63758Y59440D01*
X64770Y60452D01*
X67564Y60452D01*
X70104Y62992D01*
X70104Y64770D01*
X71120Y65786D01*
X74930Y65786D01*
X77216Y68072D01*
X63258Y59424D02*
X63258Y57380D01*
X36322Y65786D02*
X36322Y63988D01*
X35687Y66421D02*
X36322Y65786D01*
X35687Y68707D02*
X35687Y66421D01*
X35052Y69342D02*
X35687Y68707D01*
X33052Y68866D02*
X33528Y69342D01*
X33052Y48260D02*
X33052Y68866D01*
X33528Y69342D02*
X35052Y69342D01*
X-18542Y58674D02*
X-10414Y58674D01*
X-6350Y62738D01*
X-6350Y66802D01*
X-5080Y68072D01*
X-2032Y68072D02*
X-1524Y67564D01*
X-1524Y65532D01*
X-5080Y68072D02*
X-2032Y68072D01*
X-19026Y59158D02*
X-18542Y58674D01*
X-19026Y63416D02*
X-18458Y63984D01*
X-18022Y63984D02*
X-18458Y63984D01*
X-19026Y63416D02*
X-19026Y59158D01*
X11926Y53872D02*
X11926Y47002D01*
X13970Y44958D01*
X13970Y38894D01*
X11652Y36576D01*
X64758Y54380D02*
X64758Y49034D01*
X66802Y46990D02*
X66802Y39910D01*
X64992Y38100D01*
X64758Y49034D02*
X66802Y46990D01*
X43918Y58650D02*
X48260Y62992D01*
X48260Y67056D01*
X49784Y68580D01*
X52264Y68580D02*
X52832Y68012D01*
X52832Y66040D01*
X49784Y68580D02*
X52264Y68580D01*
X35318Y63984D02*
X34374Y63984D01*
X34374Y58650D02*
X43918Y58650D01*
X34060Y63670D02*
X34060Y58964D01*
X34374Y58650D01*
X34060Y63670D02*
X34374Y63984D01*
X36818Y63996D02*
X38100Y65278D01*
X43942Y65278D01*
X36818Y63996D02*
X36818Y63984D01*
X45212Y66548D02*
X45212Y61976D01*
X44220Y60984D01*
X36818Y60984D01*
X-20828Y102362D02*
X-20828Y112971D01*
X-20288Y101822D02*
X-20828Y102362D01*
X-17526Y113030D02*
X-17526Y110744D01*
X-20260Y113538D02*
X-18034Y113538D01*
X-17526Y113030D01*
X-20828Y112971D02*
X-20260Y113538D01*
X-13946Y105688D02*
X-10922Y108712D01*
X-17538Y105688D02*
X-13946Y105688D01*
X-10922Y108712D02*
X-8128Y108712D01*
X-19038Y108688D02*
X-19836Y108688D01*
X-20320Y108204D01*
X-20320Y104140D01*
X-19812Y103632D01*
X-14224Y103632D01*
X-10414Y107442D01*
X-4318Y107442D01*
X-3048Y108712D01*
X-1524Y108712D01*
X-17538Y108688D02*
X-15264Y108688D01*
X-12700Y111252D01*
X-1524Y111252D01*
X11418Y98044D02*
X11442Y98020D01*
X11684Y84328D02*
X11684Y89408D01*
X12942Y95020D02*
X12942Y80538D01*
X11652Y79248D01*
X11684Y89408D02*
X10541Y90551D01*
X10982Y98044D02*
X10541Y97603D01*
X10982Y98044D02*
X11418Y98044D01*
X10541Y90551D02*
X10541Y97603D01*
X39394Y106196D02*
X42418Y109220D01*
X45212Y109220D01*
X36310Y106196D02*
X39394Y106196D01*
X33560Y99790D02*
X32512Y100838D01*
X32512Y113479D02*
X33334Y114300D01*
X32512Y100838D02*
X32512Y113479D01*
X33334Y114300D02*
X35814Y114300D01*
X34810Y109196D02*
X33504Y109196D01*
X33020Y108712D01*
X33020Y104394D01*
X50165Y108077D02*
X51308Y109220D01*
X43561Y108077D02*
X50165Y108077D01*
X36310Y109196D02*
X39092Y109196D01*
X41656Y111760D01*
X51308Y111760D01*
X65532Y84836D02*
X65532Y91186D01*
X62738Y93980D01*
X62738Y97790D02*
X62968Y98020D01*
X62738Y93980D02*
X62738Y97790D01*
X62968Y98020D02*
X63766Y98020D01*
X67056Y97452D02*
X66489Y98020D01*
X67056Y92710D02*
X67056Y97452D01*
X66489Y98020D02*
X65266Y98020D01*
X65024Y98806D02*
X64766Y98548D01*
X67818Y98044D02*
X67056Y98806D01*
X67818Y95758D02*
X67818Y98044D01*
X67056Y98806D02*
X65024Y98806D01*
X65266Y95020D02*
X65266Y92976D01*
X66802Y91440D01*
X66802Y81058D01*
X65500Y79756D01*
X63246Y62738D02*
X63246Y59436D01*
X59944Y66040D02*
X63246Y62738D01*
X63246Y59436D02*
X63258Y59424D01*
X33528Y103886D02*
X39370Y103886D01*
X43561Y108077D01*
X33020Y104394D02*
X33528Y103886D01*
G54D13*
X2540Y55372D02*
X2540Y65024D01*
X3048Y65532D01*
X0Y55372D02*
X0Y57658D01*
X-4064Y61722D01*
X-4064Y65532D01*
X57404Y66040D02*
X57404Y55880D01*
X56896Y55372D01*
X50292Y60960D02*
X54356Y56896D01*
X54356Y55372D01*
X50292Y66040D02*
X50292Y60960D01*
G54D14*
G36*
X-16294Y63359D02*
X-16294Y63359D01*
X-16047Y63112D01*
X-16047Y61659D01*
X-16097Y61609D01*
X-18447Y61609D01*
X-18497Y61659D01*
X-18497Y63309D01*
X-18447Y63359D01*
X-16294Y63359D01*
D02*
G37*
X-16047Y63112D01*
X-16047Y61659D01*
X-16097Y61609D01*
X-18447Y61609D01*
X-18497Y61659D01*
X-18497Y63309D01*
X-18447Y63359D01*
X-16294Y63359D01*
G36*
X37046Y63359D02*
X37046Y63359D01*
X37293Y63112D01*
X37293Y61659D01*
X37243Y61609D01*
X34893Y61609D01*
X34843Y61659D01*
X34843Y63309D01*
X34893Y63359D01*
X37046Y63359D01*
D02*
G37*
X37293Y63112D01*
X37293Y61659D01*
X37243Y61609D01*
X34893Y61609D01*
X34843Y61659D01*
X34843Y63309D01*
X34893Y63359D01*
X37046Y63359D01*
G36*
X-17310Y108063D02*
X-17310Y108063D01*
X-17063Y107816D01*
X-17063Y106363D01*
X-17113Y106313D01*
X-19463Y106313D01*
X-19513Y106363D01*
X-19513Y108013D01*
X-19463Y108063D01*
X-17310Y108063D01*
D02*
G37*
X-17063Y107816D01*
X-17063Y106363D01*
X-17113Y106313D01*
X-19463Y106313D01*
X-19513Y106363D01*
X-19513Y108013D01*
X-19463Y108063D01*
X-17310Y108063D01*
G36*
X36538Y108571D02*
X36538Y108571D01*
X36785Y108324D01*
X36785Y106871D01*
X36735Y106821D01*
X34385Y106821D01*
X34335Y106871D01*
X34335Y108521D01*
X34385Y108571D01*
X36538Y108571D01*
D02*
G37*
X36785Y108324D01*
X36785Y106871D01*
X36735Y106821D01*
X34385Y106821D01*
X34335Y106871D01*
X34335Y108521D01*
X34385Y108571D01*
X36538Y108571D01*
G36*
X13170Y97395D02*
X13170Y97395D01*
X13417Y97148D01*
X13417Y95695D01*
X13367Y95645D01*
X11017Y95645D01*
X10967Y95695D01*
X10967Y97345D01*
X11017Y97395D01*
X13170Y97395D01*
D02*
G37*
X13417Y97148D01*
X13417Y95695D01*
X13367Y95645D01*
X11017Y95645D01*
X10967Y95695D01*
X10967Y97345D01*
X11017Y97395D01*
X13170Y97395D01*
G36*
X65494Y97395D02*
X65494Y97395D01*
X65741Y97148D01*
X65741Y95695D01*
X65691Y95645D01*
X63341Y95645D01*
X63291Y95695D01*
X63291Y97345D01*
X63341Y97395D01*
X65494Y97395D01*
D02*
G37*
X65741Y97148D01*
X65741Y95695D01*
X65691Y95645D01*
X63341Y95645D01*
X63291Y95695D01*
X63291Y97345D01*
X63341Y97395D01*
X65494Y97395D01*
G36*
X12154Y56247D02*
X12154Y56247D01*
X12401Y56000D01*
X12401Y54547D01*
X12351Y54497D01*
X10001Y54497D01*
X9951Y54547D01*
X9951Y56197D01*
X10001Y56247D01*
X12154Y56247D01*
D02*
G37*
X12401Y56000D01*
X12401Y54547D01*
X12351Y54497D01*
X10001Y54497D01*
X9951Y54547D01*
X9951Y56197D01*
X10001Y56247D01*
X12154Y56247D01*
G36*
X64986Y56755D02*
X64986Y56755D01*
X65233Y56508D01*
X65233Y55055D01*
X65183Y55005D01*
X62833Y55005D01*
X62783Y55055D01*
X62783Y56705D01*
X62833Y56755D01*
X64986Y56755D01*
D02*
G37*
X65233Y56508D01*
X65233Y55055D01*
X65183Y55005D01*
X62833Y55005D01*
X62783Y55055D01*
X62783Y56705D01*
X62833Y56755D01*
X64986Y56755D01*
G54D15*
X-23622Y27940D02*
X-23622Y36982D01*
X-23622Y27940D02*
X-12827Y27940D01*
X84328Y27940D02*
X73533Y27940D01*
X84328Y27940D02*
X84328Y36982D01*
X84328Y118364D02*
X84328Y109322D01*
X84328Y118364D02*
X73533Y118364D01*
X-23622Y118364D02*
X-12827Y118364D01*
X-23622Y118364D02*
X-23622Y109322D01*
X-28622Y27940D02*
X-38622Y27940D01*
X-33622Y22940D02*
X-33622Y32940D01*
X-37372Y27940D02*
G75*
D01*
G02X-37372Y27940I3750J0*
G01*
X89328Y27940D02*
X99328Y27940D01*
X94328Y22940D02*
X94328Y32940D01*
X90578Y27940D02*
G75*
D01*
G02X90578Y27940I3750J0*
G01*
X93078Y27940D02*
G75*
D01*
G02X93078Y27940I1250J0*
G01*
X-28622Y118364D02*
X-38622Y118364D01*
X-33622Y113364D02*
X-33622Y123364D01*
X-37372Y118364D02*
G75*
D01*
G02X-37372Y118364I3750J0*
G01*
X-36122Y118364D02*
G75*
D01*
G02X-36122Y118364I2500J0*
G01*
X-34872Y118364D02*
G75*
D01*
G02X-34872Y118364I1250J0*
G01*
G54D16*
X-16256Y112268D03*
X23368Y112776D03*
X37592Y112776D03*
X75184Y112776D03*
X-15748Y68072D03*
X22860Y68072D03*
X37084Y68072D03*
X77216Y68072D03*
G54D17*
X-18796Y112268D03*
X20828Y112776D03*
X35052Y112776D03*
X72644Y112776D03*
X-18288Y68072D03*
X20320Y68072D03*
X34544Y68072D03*
X74676Y68072D03*
G54D18*
X-19060Y112004D02*
X-18532Y112004D01*
X-18532Y112532D01*
X-19060Y112532D01*
X-19060Y112004D01*D02*
X20564Y112512D02*
X21092Y112512D01*
X21092Y113040D01*
X20564Y113040D01*
X20564Y112512D01*D02*
X34788Y112512D02*
X35316Y112512D01*
X35316Y113040D01*
X34788Y113040D01*
X34788Y112512D01*D02*
X72380Y112512D02*
X72908Y112512D01*
X72908Y113040D01*
X72380Y113040D01*
X72380Y112512D01*D02*
X-18552Y67808D02*
X-18024Y67808D01*
X-18024Y68336D01*
X-18552Y68336D01*
X-18552Y67808D01*D02*
X20056Y67808D02*
X20584Y67808D01*
X20584Y68336D01*
X20056Y68336D01*
X20056Y67808D01*D02*
X34280Y67808D02*
X34808Y67808D01*
X34808Y68336D01*
X34280Y68336D01*
X34280Y67808D01*D02*
X74412Y67808D02*
X74940Y67808D01*
X74940Y68336D01*
X74412Y68336D01*
X74412Y67808D01*D02*
G54D19*
X-12192Y81280D03*
X-14732Y81280D03*
X-17272Y81280D03*
X-9652Y81280D03*
X1016Y94996D03*
X3556Y94996D03*
X53848Y95504D03*
X56388Y95504D03*
X64008Y106680D03*
X64008Y109220D03*
X2540Y55372D03*
X0Y55372D03*
X56896Y55372D03*
X54356Y55372D03*
X57404Y109220D03*
X57404Y106680D03*
X51308Y109220D03*
X51308Y106680D03*
X45212Y106680D03*
X45212Y109220D03*
X5080Y108712D03*
X5080Y106172D03*
X11684Y106172D03*
X11684Y108712D03*
X-1524Y108712D03*
X-1524Y106172D03*
X-8128Y106172D03*
X-8128Y108712D03*
G54D20*
X11652Y79248D03*
X-3016Y84328D03*
X-20288Y91440D03*
X-20288Y96520D03*
X19304Y76232D03*
X26416Y90900D03*
X19304Y109188D03*
X26416Y94520D03*
X33560Y91948D03*
X33560Y97028D03*
X65500Y79756D03*
X50832Y84836D03*
X71628Y76708D03*
X79248Y91408D03*
X71628Y109188D03*
X79248Y94520D03*
X11652Y36576D03*
X18796Y31528D03*
X25400Y46196D03*
X-3016Y41656D03*
X-19780Y48768D03*
X18796Y63976D03*
X25400Y49308D03*
X-19780Y53848D03*
X73152Y32512D03*
X79248Y47212D03*
X64992Y38100D03*
X50324Y43180D03*
X33052Y48260D03*
X73152Y64484D03*
X79248Y49816D03*
X33052Y53340D03*
X66294Y65278D03*
X67564Y66548D03*
X-9906Y64262D03*
X-8636Y65532D03*
X11430Y64262D03*
X12700Y65532D03*
X43942Y65278D03*
X45212Y66548D03*
G54D21*
X-3048Y79248D03*
X11684Y84328D03*
X-5588Y91440D03*
X-5588Y96520D03*
X19304Y90932D03*
X26416Y76200D03*
X19304Y94488D03*
X26416Y109220D03*
X48260Y91948D03*
X48260Y97028D03*
X50800Y79756D03*
X65532Y84836D03*
X71628Y91408D03*
X79248Y76708D03*
X71628Y94488D03*
X79248Y109220D03*
X-3048Y36576D03*
X18796Y46228D03*
X25400Y31496D03*
X11684Y41656D03*
X-5080Y48768D03*
X18796Y49276D03*
X25400Y64008D03*
X-5080Y53848D03*
X73152Y47212D03*
X79248Y32512D03*
X50292Y38100D03*
X65024Y43180D03*
X47752Y48260D03*
X73152Y49784D03*
X79248Y64516D03*
X47752Y53340D03*
X65024Y66548D03*
X-11176Y65532D03*
X10160Y65532D03*
X42672Y66548D03*
G54D22*
X64008Y111760D03*
X57404Y111760D03*
X51308Y111760D03*
X45212Y111760D03*
X5080Y111252D03*
X11684Y111252D03*
X-1524Y111252D03*
X-8128Y111252D03*
G54D23*
X-18022Y60984D03*
X-17522Y60984D03*
X-17022Y60984D03*
X-16522Y60984D03*
X-16522Y63984D03*
X-18022Y63984D03*
X-17522Y63984D03*
X-17022Y63984D03*
X36318Y60984D03*
X35818Y60984D03*
X35318Y60984D03*
X36818Y60984D03*
X35818Y63984D03*
X35318Y63984D03*
X36318Y63984D03*
X36818Y63984D03*
X-18538Y105688D03*
X-19038Y105688D03*
X-18038Y105688D03*
X-17538Y105688D03*
X-18538Y108688D03*
X-19038Y108688D03*
X-17538Y108688D03*
X-18038Y108688D03*
X36310Y106196D03*
X34810Y106196D03*
X35310Y106196D03*
X35810Y106196D03*
X34810Y109196D03*
X35310Y109196D03*
X36310Y109196D03*
X35810Y109196D03*
X12442Y95020D03*
X11442Y95020D03*
X11942Y95020D03*
X12942Y95020D03*
X11442Y98020D03*
X12442Y98020D03*
X11942Y98020D03*
X12942Y98020D03*
X64766Y95020D03*
X64266Y95020D03*
X63766Y95020D03*
X65266Y95020D03*
X64266Y98020D03*
X63766Y98020D03*
X64766Y98020D03*
X65266Y98020D03*
X11426Y53872D03*
X10926Y53872D03*
X10426Y53872D03*
X11926Y53872D03*
X10926Y56872D03*
X10426Y56872D03*
X11426Y56872D03*
X11926Y56872D03*
X63758Y54380D03*
X63258Y54380D03*
X64258Y54380D03*
X64758Y54380D03*
X64258Y57380D03*
X63758Y57380D03*
X63258Y57380D03*
X64758Y57380D03*
G54D24*
X-4064Y65532D03*
X-2794Y66802D03*
X-1524Y65532D03*
X3048Y65532D03*
X4318Y66802D03*
X5588Y65532D03*
X50292Y66040D03*
X51562Y67310D03*
X52832Y66040D03*
X57404Y66040D03*
X58674Y67310D03*
X59944Y66040D03*

M02*
