G04 Generated by Ultiboard 14.2 *
%FSLAX33Y33*%
%MOMM*%

%ADD10C,0.001*%
%ADD11C,0.254*%
%ADD12C,0.127*%
%ADD13C,1.609*%
%ADD14R,0.529X0.529*%
%ADD15C,0.995*%
%ADD16C,1.537*%
%ADD17C,1.245*%
%ADD18C,1.397*%


G04 ColorRGB CCCCCC for the following layer *
%LNCopper Inner 2*%
%LPD*%
G54D10*
G36*
X83691Y28577D02*
X83691Y28577D01*
X-22985Y28577D01*
X-22985Y117727D01*
X83691Y117727D01*
X83691Y28577D01*
D02*
G37*
%LPC*%
G36*
X72249Y113079D02*
G75*
D01*
G03X72249Y113079I395J-303*
G01*
D02*
G37*
G36*
X72249Y109910D02*
G75*
D01*
G03X72249Y109910I-621J-722*
G01*
D02*
G37*
G36*
X72249Y46908D02*
G75*
D01*
G03X72249Y46908I903J304*
G01*
D02*
G37*
G36*
X72249Y32208D02*
G75*
D01*
G03X72249Y32208I903J304*
G01*
D02*
G37*
G36*
X72249Y49480D02*
G75*
D01*
G03X72249Y49480I903J304*
G01*
D02*
G37*
G36*
X72249Y95210D02*
G75*
D01*
G03X72249Y95210I-621J-722*
G01*
D02*
G37*
G36*
X72249Y92130D02*
G75*
D01*
G03X72249Y92130I-621J-722*
G01*
D02*
G37*
G36*
X78927Y75811D02*
G75*
D01*
G03X78927Y75811I321J897*
G01*
D02*
G37*
G36*
X72249Y75986D02*
G75*
D01*
G03X72249Y75986I-621J722*
G01*
D02*
G37*
G36*
X72249Y64788D02*
G75*
D01*
G03X72249Y64788I903J-304*
G01*
D02*
G37*
G36*
X24249Y112022D02*
G75*
D01*
G03X24249Y112022I-881J754*
G01*
D02*
G37*
G36*
X249Y94140D02*
G75*
D01*
G03X249Y94140I767J856*
G01*
D02*
G37*
G36*
X249Y54250D02*
G75*
D01*
G03X249Y54250I-249J1122*
G01*
D02*
G37*
G36*
X48249Y49072D02*
G75*
D01*
G03X48249Y49072I-497J-812*
G01*
D02*
G37*
G36*
X18450Y75811D02*
G75*
D01*
G03X18450Y75811I854J421*
G01*
D02*
G37*
G36*
X47869Y96159D02*
G75*
D01*
G03X48651Y96159I391J869*
G01*
X48651Y96159D01*
X48260Y96550D01*
X48249Y96539D01*
X47869Y96159D01*
D02*
G37*
G36*
X48249Y97472D02*
G75*
D01*
G03X48249Y97472I11J-444*
G01*
D02*
G37*
G36*
X47869Y97897D02*
X47869Y97897D01*
X48249Y97517D01*
X48249Y97517D01*
X48249Y97516D01*
X48260Y97506D01*
X48651Y97897D01*
G75*
D01*
G03X47869Y97897I-391J-869*
G01*
D02*
G37*
G36*
X48249Y92900D02*
G75*
D01*
G03X48249Y92900I11J-952*
G01*
D02*
G37*
G36*
X27286Y75811D02*
G75*
D01*
G03X27286Y75811I-870J389*
G01*
D02*
G37*
G36*
X48621Y53731D02*
X48621Y53731D01*
X48230Y53340D01*
X48621Y52949D01*
G75*
D01*
G03X48621Y53731I-869J391*
G01*
D02*
G37*
G36*
X78857Y110089D02*
X78857Y110089D01*
X79248Y109698D01*
X79639Y110089D01*
G75*
D01*
G03X78857Y110089I-391J-869*
G01*
D02*
G37*
G36*
X80117Y109611D02*
X80117Y109611D01*
X79726Y109220D01*
X80117Y108829D01*
G75*
D01*
G03X80117Y109611I-869J391*
G01*
D02*
G37*
G36*
X78379Y109611D02*
G75*
D01*
G03X78379Y108829I869J-391*
G01*
X78379Y108829D01*
X78770Y109220D01*
X78379Y109611D01*
D02*
G37*
G36*
X79639Y108351D02*
X79639Y108351D01*
X79248Y108742D01*
X78857Y108351D01*
G75*
D01*
G03X79639Y108351I391J869*
G01*
D02*
G37*
G36*
X78804Y109220D02*
G75*
D01*
G03X78804Y109220I444J0*
G01*
D02*
G37*
G36*
X73042Y111665D02*
G74*
D01*
G03X73755Y112378I133J846*
G01*
X73755Y112378D01*
X73042Y112378D01*
X73042Y111665D01*
D02*
G37*
G36*
X74024Y112776D02*
G75*
D01*
G03X74024Y112776I1160J0*
G01*
D02*
G37*
G36*
X73755Y113174D02*
G74*
D01*
G03X73042Y113887I846J133*
G01*
X73042Y113887D01*
X73042Y113174D01*
X73755Y113174D01*
D02*
G37*
G36*
X78296Y49816D02*
G75*
D01*
G03X78296Y49816I952J0*
G01*
D02*
G37*
G36*
X78296Y32512D02*
G75*
D01*
G03X78296Y32512I952J0*
G01*
D02*
G37*
G36*
X78296Y47212D02*
G75*
D01*
G03X78296Y47212I952J0*
G01*
D02*
G37*
G36*
X78296Y94520D02*
G75*
D01*
G03X78296Y94520I952J0*
G01*
D02*
G37*
G36*
X78296Y91408D02*
G75*
D01*
G03X78296Y91408I952J0*
G01*
D02*
G37*
G36*
X79639Y63647D02*
X79639Y63647D01*
X79248Y64038D01*
X78857Y63647D01*
G75*
D01*
G03X79639Y63647I391J869*
G01*
D02*
G37*
G36*
X80117Y64907D02*
X80117Y64907D01*
X79726Y64516D01*
X80117Y64125D01*
G75*
D01*
G03X80117Y64907I-869J391*
G01*
D02*
G37*
G36*
X78379Y64907D02*
G75*
D01*
G03X78379Y64125I869J-391*
G01*
X78379Y64125D01*
X78770Y64516D01*
X78379Y64907D01*
D02*
G37*
G36*
X78857Y65385D02*
X78857Y65385D01*
X79248Y64994D01*
X79639Y65385D01*
G75*
D01*
G03X78857Y65385I-391J-869*
G01*
D02*
G37*
G36*
X78804Y64516D02*
G75*
D01*
G03X78804Y64516I444J0*
G01*
D02*
G37*
G36*
X73565Y67674D02*
G74*
D01*
G03X74278Y66961I846J133*
G01*
X74278Y66961D01*
X74278Y67674D01*
X73565Y67674D01*
D02*
G37*
G36*
X74179Y68072D02*
G75*
D01*
G03X74179Y68072I497J0*
G01*
D02*
G37*
G36*
X75074Y66961D02*
G74*
D01*
G03X75787Y67674I133J846*
G01*
X75787Y67674D01*
X75074Y67674D01*
X75074Y66961D01*
D02*
G37*
G36*
X76056Y68072D02*
G75*
D01*
G03X76056Y68072I1160J0*
G01*
D02*
G37*
G36*
X74278Y69183D02*
G74*
D01*
G03X73565Y68470I133J846*
G01*
X73565Y68470D01*
X74278Y68470D01*
X74278Y69183D01*
D02*
G37*
G36*
X75787Y68470D02*
G74*
D01*
G03X75074Y69183I846J133*
G01*
X75074Y69183D01*
X75074Y68470D01*
X75787Y68470D01*
D02*
G37*
G36*
X-9277Y106172D02*
G75*
D01*
G03X-9277Y106172I1149J0*
G01*
D02*
G37*
G36*
X-2673Y106172D02*
G75*
D01*
G03X-2673Y106172I1149J0*
G01*
D02*
G37*
G36*
X-9277Y108712D02*
G75*
D01*
G03X-9277Y108712I1149J0*
G01*
D02*
G37*
G36*
X-2673Y108712D02*
G75*
D01*
G03X-2673Y108712I1149J0*
G01*
D02*
G37*
G36*
X-19918Y112533D02*
X-19918Y112533D01*
X-19918Y112003D01*
G75*
D01*
G03X-19061Y111146I857J0*
G01*
X-19061Y111146D01*
X-18531Y111146D01*
G75*
D01*
G03X-17674Y112003I0J857*
G01*
X-17674Y112003D01*
X-17674Y112533D01*
G74*
D01*
G03X-18531Y113390I857J0*
G01*
X-18531Y113390D01*
X-19061Y113390D01*
G75*
D01*
G03X-19918Y112533I0J-857*
G01*
D02*
G37*
G36*
X-16700Y112268D02*
G75*
D01*
G03X-16700Y112268I444J0*
G01*
D02*
G37*
G36*
X-16667Y111183D02*
X-16667Y111183D01*
X-16667Y111857D01*
X-17341Y111857D01*
G74*
D01*
G03X-16667Y111183I1085J411*
G01*
D02*
G37*
G36*
X-15171Y111857D02*
X-15171Y111857D01*
X-15845Y111857D01*
X-15845Y111183D01*
G74*
D01*
G03X-15171Y111857I411J1085*
G01*
D02*
G37*
G36*
X-9277Y111252D02*
G75*
D01*
G03X-9277Y111252I1149J0*
G01*
D02*
G37*
G36*
X-2673Y111252D02*
G75*
D01*
G03X-2673Y111252I1149J0*
G01*
D02*
G37*
G36*
X-17341Y112679D02*
X-17341Y112679D01*
X-16667Y112679D01*
X-16667Y113353D01*
G74*
D01*
G03X-17341Y112679I411J1085*
G01*
D02*
G37*
G36*
X-15845Y113353D02*
X-15845Y113353D01*
X-15845Y112679D01*
X-15171Y112679D01*
G74*
D01*
G03X-15845Y113353I1085J411*
G01*
D02*
G37*
G36*
X3931Y106172D02*
G75*
D01*
G03X3931Y106172I1149J0*
G01*
D02*
G37*
G36*
X10535Y106172D02*
G75*
D01*
G03X10535Y106172I1149J0*
G01*
D02*
G37*
G36*
X3931Y108712D02*
G75*
D01*
G03X3931Y108712I1149J0*
G01*
D02*
G37*
G36*
X10535Y108712D02*
G75*
D01*
G03X10535Y108712I1149J0*
G01*
D02*
G37*
G36*
X18352Y109188D02*
G75*
D01*
G03X18352Y109188I952J0*
G01*
D02*
G37*
G36*
X3931Y111252D02*
G75*
D01*
G03X3931Y111252I1149J0*
G01*
D02*
G37*
G36*
X10535Y111252D02*
G75*
D01*
G03X10535Y111252I1149J0*
G01*
D02*
G37*
G36*
X19717Y112378D02*
G74*
D01*
G03X20430Y111665I846J133*
G01*
X20430Y111665D01*
X20430Y112378D01*
X19717Y112378D01*
D02*
G37*
G36*
X21226Y111665D02*
G74*
D01*
G03X21939Y112378I133J846*
G01*
X21939Y112378D01*
X21226Y112378D01*
X21226Y111665D01*
D02*
G37*
G36*
X20430Y113887D02*
G74*
D01*
G03X19717Y113174I133J846*
G01*
X19717Y113174D01*
X20430Y113174D01*
X20430Y113887D01*
D02*
G37*
G36*
X21939Y113174D02*
G74*
D01*
G03X21226Y113887I846J133*
G01*
X21226Y113887D01*
X21226Y113174D01*
X21939Y113174D01*
D02*
G37*
G36*
X20331Y112776D02*
G75*
D01*
G03X20331Y112776I497J0*
G01*
D02*
G37*
G36*
X50159Y106680D02*
G75*
D01*
G03X50159Y106680I1149J0*
G01*
D02*
G37*
G36*
X56255Y106680D02*
G75*
D01*
G03X56255Y106680I1149J0*
G01*
D02*
G37*
G36*
X62859Y106680D02*
G75*
D01*
G03X62859Y106680I1149J0*
G01*
D02*
G37*
G36*
X50159Y109220D02*
G75*
D01*
G03X50159Y109220I1149J0*
G01*
D02*
G37*
G36*
X56255Y109220D02*
G75*
D01*
G03X56255Y109220I1149J0*
G01*
D02*
G37*
G36*
X62859Y109220D02*
G75*
D01*
G03X62859Y109220I1149J0*
G01*
D02*
G37*
G36*
X50159Y111760D02*
G75*
D01*
G03X50159Y111760I1149J0*
G01*
D02*
G37*
G36*
X56255Y111760D02*
G75*
D01*
G03X56255Y111760I1149J0*
G01*
D02*
G37*
G36*
X62859Y111760D02*
G75*
D01*
G03X62859Y111760I1149J0*
G01*
D02*
G37*
G36*
X71533Y112378D02*
G74*
D01*
G03X72246Y111665I846J133*
G01*
X72246Y111665D01*
X72246Y112378D01*
X71533Y112378D01*
D02*
G37*
G36*
X72246Y113887D02*
G74*
D01*
G03X71533Y113174I133J846*
G01*
X71533Y113174D01*
X72246Y113174D01*
X72246Y113887D01*
D02*
G37*
G36*
X44063Y106680D02*
G75*
D01*
G03X44063Y106680I1149J0*
G01*
D02*
G37*
G36*
X25972Y109220D02*
G75*
D01*
G03X25972Y109220I444J0*
G01*
D02*
G37*
G36*
X25547Y109611D02*
G75*
D01*
G03X25547Y108829I869J-391*
G01*
X25547Y108829D01*
X25938Y109220D01*
X25547Y109611D01*
D02*
G37*
G36*
X26025Y110089D02*
X26025Y110089D01*
X26416Y109698D01*
X26807Y110089D01*
G75*
D01*
G03X26025Y110089I-391J-869*
G01*
D02*
G37*
G36*
X27285Y109611D02*
X27285Y109611D01*
X26894Y109220D01*
X27285Y108829D01*
G75*
D01*
G03X27285Y109611I-869J391*
G01*
D02*
G37*
G36*
X26807Y108351D02*
X26807Y108351D01*
X26416Y108742D01*
X26025Y108351D01*
G75*
D01*
G03X26807Y108351I391J869*
G01*
D02*
G37*
G36*
X44063Y109220D02*
G75*
D01*
G03X44063Y109220I1149J0*
G01*
D02*
G37*
G36*
X33930Y113041D02*
X33930Y113041D01*
X33930Y112511D01*
G75*
D01*
G03X34787Y111654I857J0*
G01*
X34787Y111654D01*
X35317Y111654D01*
G75*
D01*
G03X36174Y112511I0J857*
G01*
X36174Y112511D01*
X36174Y113041D01*
G74*
D01*
G03X35317Y113898I857J0*
G01*
X35317Y113898D01*
X34787Y113898D01*
G75*
D01*
G03X33930Y113041I0J-857*
G01*
D02*
G37*
G36*
X37181Y111691D02*
X37181Y111691D01*
X37181Y112365D01*
X36507Y112365D01*
G74*
D01*
G03X37181Y111691I1085J411*
G01*
D02*
G37*
G36*
X38677Y112365D02*
X38677Y112365D01*
X38003Y112365D01*
X38003Y111691D01*
G74*
D01*
G03X38677Y112365I411J1085*
G01*
D02*
G37*
G36*
X44063Y111760D02*
G75*
D01*
G03X44063Y111760I1149J0*
G01*
D02*
G37*
G36*
X37148Y112776D02*
G75*
D01*
G03X37148Y112776I444J0*
G01*
D02*
G37*
G36*
X36507Y113187D02*
X36507Y113187D01*
X37181Y113187D01*
X37181Y113861D01*
G74*
D01*
G03X36507Y113187I411J1085*
G01*
D02*
G37*
G36*
X38003Y113861D02*
X38003Y113861D01*
X38003Y113187D01*
X38677Y113187D01*
G74*
D01*
G03X38003Y113861I1085J411*
G01*
D02*
G37*
G36*
X-6032Y48768D02*
G75*
D01*
G03X-6032Y48768I952J0*
G01*
D02*
G37*
G36*
X-4000Y36576D02*
G75*
D01*
G03X-4000Y36576I952J0*
G01*
D02*
G37*
G36*
X-3968Y41656D02*
G75*
D01*
G03X-3968Y41656I952J0*
G01*
D02*
G37*
G36*
X-20732Y48768D02*
G75*
D01*
G03X-20732Y48768I952J0*
G01*
D02*
G37*
G36*
X-4719Y96911D02*
X-4719Y96911D01*
X-5110Y96520D01*
X-4719Y96129D01*
G75*
D01*
G03X-4719Y96911I-869J391*
G01*
D02*
G37*
G36*
X-4000Y79248D02*
G75*
D01*
G03X-4000Y79248I952J0*
G01*
D02*
G37*
G36*
X-18421Y81280D02*
G75*
D01*
G03X-18421Y81280I1149J0*
G01*
D02*
G37*
G36*
X-15881Y81280D02*
G75*
D01*
G03X-15881Y81280I1149J0*
G01*
D02*
G37*
G36*
X-11765Y81688D02*
X-11765Y81688D01*
X-11117Y81688D01*
G74*
D01*
G03X-11784Y82355I1075J408*
G01*
X-11784Y82355D01*
X-11784Y81707D01*
G75*
D01*
G03X-12600Y81707I-408J-427*
G01*
X-12600Y81707D01*
X-12600Y82355D01*
G74*
D01*
G03X-13267Y81688I408J1075*
G01*
X-13267Y81688D01*
X-12619Y81688D01*
G75*
D01*
G03X-12619Y80872I427J-408*
G01*
X-12619Y80872D01*
X-13267Y80872D01*
G74*
D01*
G03X-12600Y80205I1075J408*
G01*
X-12600Y80205D01*
X-12600Y80853D01*
G75*
D01*
G03X-11784Y80853I408J427*
G01*
X-11784Y80853D01*
X-11784Y80205D01*
G74*
D01*
G03X-11117Y80872I408J1075*
G01*
X-11117Y80872D01*
X-11765Y80872D01*
G75*
D01*
G03X-11765Y81688I-427J408*
G01*
D02*
G37*
G36*
X-10801Y81280D02*
G75*
D01*
G03X-10801Y81280I1149J0*
G01*
D02*
G37*
G36*
X-3968Y84328D02*
G75*
D01*
G03X-3968Y84328I952J0*
G01*
D02*
G37*
G36*
X-21240Y91440D02*
G75*
D01*
G03X-21240Y91440I952J0*
G01*
D02*
G37*
G36*
X-6540Y91440D02*
G75*
D01*
G03X-6540Y91440I952J0*
G01*
D02*
G37*
G36*
X-21240Y96520D02*
G75*
D01*
G03X-21240Y96520I952J0*
G01*
D02*
G37*
G36*
X-5197Y95651D02*
X-5197Y95651D01*
X-5588Y96042D01*
X-5979Y95651D01*
G75*
D01*
G03X-5197Y95651I391J869*
G01*
D02*
G37*
G36*
X-6032Y96520D02*
G75*
D01*
G03X-6032Y96520I444J0*
G01*
D02*
G37*
G36*
X-6457Y96911D02*
G75*
D01*
G03X-6457Y96129I869J-391*
G01*
X-6457Y96129D01*
X-6066Y96520D01*
X-6457Y96911D01*
D02*
G37*
G36*
X-5979Y97389D02*
X-5979Y97389D01*
X-5588Y96998D01*
X-5197Y97389D01*
G75*
D01*
G03X-5979Y97389I-391J-869*
G01*
D02*
G37*
G36*
X-15337Y69157D02*
X-15337Y69157D01*
X-15337Y68483D01*
X-14663Y68483D01*
G74*
D01*
G03X-15337Y69157I1085J411*
G01*
D02*
G37*
G36*
X-20732Y53848D02*
G75*
D01*
G03X-20732Y53848I952J0*
G01*
D02*
G37*
G36*
X-5949Y54239D02*
G75*
D01*
G03X-5949Y53457I869J-391*
G01*
X-5949Y53457D01*
X-5558Y53848D01*
X-5949Y54239D01*
D02*
G37*
G36*
X-4211Y54239D02*
X-4211Y54239D01*
X-4602Y53848D01*
X-4211Y53457D01*
G75*
D01*
G03X-4211Y54239I-869J391*
G01*
D02*
G37*
G36*
X-5524Y53848D02*
G75*
D01*
G03X-5524Y53848I444J0*
G01*
D02*
G37*
G36*
X-4689Y52979D02*
X-4689Y52979D01*
X-5080Y53370D01*
X-5471Y52979D01*
G75*
D01*
G03X-4689Y52979I391J869*
G01*
D02*
G37*
G36*
X-5471Y54717D02*
X-5471Y54717D01*
X-5080Y54326D01*
X-4689Y54717D01*
G75*
D01*
G03X-5471Y54717I-391J-869*
G01*
D02*
G37*
G36*
X-9496Y65122D02*
G75*
D01*
G03X-10316Y65122I-410J-860*
G01*
G75*
D01*
G03X-10766Y64672I-860J410*
G01*
G75*
D01*
G03X-9046Y64672I860J-410*
G01*
G75*
D01*
G03X-9496Y65122I410J860*
G01*
D02*
G37*
G36*
X-1769Y66557D02*
G75*
D01*
G03X-3819Y66557I-1025J245*
G01*
G75*
D01*
G03X-3039Y65777I-245J-1025*
G01*
G75*
D01*
G03X-2549Y65777I245J1025*
G01*
G75*
D01*
G03X-1769Y66557I1025J-245*
G01*
D02*
G37*
G36*
X-19410Y68337D02*
X-19410Y68337D01*
X-19410Y67807D01*
G75*
D01*
G03X-18553Y66950I857J0*
G01*
X-18553Y66950D01*
X-18023Y66950D01*
G75*
D01*
G03X-17166Y67807I0J857*
G01*
X-17166Y67807D01*
X-17166Y68337D01*
G74*
D01*
G03X-18023Y69194I857J0*
G01*
X-18023Y69194D01*
X-18553Y69194D01*
G75*
D01*
G03X-19410Y68337I0J-857*
G01*
D02*
G37*
G36*
X-16192Y68072D02*
G75*
D01*
G03X-16192Y68072I444J0*
G01*
D02*
G37*
G36*
X-16159Y66987D02*
X-16159Y66987D01*
X-16159Y67661D01*
X-16833Y67661D01*
G74*
D01*
G03X-16159Y66987I1085J411*
G01*
D02*
G37*
G36*
X-14663Y67661D02*
X-14663Y67661D01*
X-15337Y67661D01*
X-15337Y66987D01*
G74*
D01*
G03X-14663Y67661I411J1085*
G01*
D02*
G37*
G36*
X-16833Y68483D02*
X-16833Y68483D01*
X-16159Y68483D01*
X-16159Y69157D01*
G74*
D01*
G03X-16833Y68483I411J1085*
G01*
D02*
G37*
G36*
X17844Y49276D02*
G75*
D01*
G03X17844Y49276I952J0*
G01*
D02*
G37*
G36*
X17844Y31528D02*
G75*
D01*
G03X17844Y31528I952J0*
G01*
D02*
G37*
G36*
X10700Y36576D02*
G75*
D01*
G03X10700Y36576I952J0*
G01*
D02*
G37*
G36*
X10732Y41656D02*
G75*
D01*
G03X10732Y41656I952J0*
G01*
D02*
G37*
G36*
X17844Y46228D02*
G75*
D01*
G03X17844Y46228I952J0*
G01*
D02*
G37*
G36*
X49340Y38100D02*
G75*
D01*
G03X49340Y38100I952J0*
G01*
D02*
G37*
G36*
X64040Y38100D02*
G75*
D01*
G03X64040Y38100I952J0*
G01*
D02*
G37*
G36*
X49372Y43180D02*
G75*
D01*
G03X49372Y43180I952J0*
G01*
D02*
G37*
G36*
X64072Y43180D02*
G75*
D01*
G03X64072Y43180I952J0*
G01*
D02*
G37*
G36*
X24448Y49308D02*
G75*
D01*
G03X24448Y49308I952J0*
G01*
D02*
G37*
G36*
X24448Y31496D02*
G75*
D01*
G03X24448Y31496I952J0*
G01*
D02*
G37*
G36*
X24448Y46196D02*
G75*
D01*
G03X24448Y46196I952J0*
G01*
D02*
G37*
G36*
X32100Y48260D02*
G75*
D01*
G03X32100Y48260I952J0*
G01*
D02*
G37*
G36*
X18352Y94488D02*
G75*
D01*
G03X18352Y94488I952J0*
G01*
D02*
G37*
G36*
X10700Y79248D02*
G75*
D01*
G03X10700Y79248I952J0*
G01*
D02*
G37*
G36*
X10732Y84328D02*
G75*
D01*
G03X10732Y84328I952J0*
G01*
D02*
G37*
G36*
X18352Y90932D02*
G75*
D01*
G03X18352Y90932I952J0*
G01*
D02*
G37*
G36*
X2407Y94996D02*
G75*
D01*
G03X2407Y94996I1149J0*
G01*
D02*
G37*
G36*
X49129Y97419D02*
X49129Y97419D01*
X48738Y97028D01*
X49129Y96637D01*
G75*
D01*
G03X49129Y97419I-869J391*
G01*
D02*
G37*
G36*
X49848Y79756D02*
G75*
D01*
G03X49848Y79756I952J0*
G01*
D02*
G37*
G36*
X64548Y79756D02*
G75*
D01*
G03X64548Y79756I952J0*
G01*
D02*
G37*
G36*
X49880Y84836D02*
G75*
D01*
G03X49880Y84836I952J0*
G01*
D02*
G37*
G36*
X64580Y84836D02*
G75*
D01*
G03X64580Y84836I952J0*
G01*
D02*
G37*
G36*
X52699Y95504D02*
G75*
D01*
G03X52699Y95504I1149J0*
G01*
D02*
G37*
G36*
X55239Y95504D02*
G75*
D01*
G03X55239Y95504I1149J0*
G01*
D02*
G37*
G36*
X1391Y55372D02*
G75*
D01*
G03X1391Y55372I1149J0*
G01*
D02*
G37*
G36*
X11840Y65122D02*
G75*
D01*
G03X11020Y65122I-410J-860*
G01*
G75*
D01*
G03X10570Y64672I-860J410*
G01*
G75*
D01*
G03X12290Y64672I860J-410*
G01*
G75*
D01*
G03X11840Y65122I410J860*
G01*
D02*
G37*
G36*
X17844Y63976D02*
G75*
D01*
G03X17844Y63976I952J0*
G01*
D02*
G37*
G36*
X5343Y66557D02*
G75*
D01*
G03X3293Y66557I-1025J245*
G01*
G75*
D01*
G03X4073Y65777I-245J-1025*
G01*
G75*
D01*
G03X4563Y65777I245J1025*
G01*
G75*
D01*
G03X5343Y66557I1025J-245*
G01*
D02*
G37*
G36*
X19823Y68072D02*
G75*
D01*
G03X19823Y68072I497J0*
G01*
D02*
G37*
G36*
X19209Y67674D02*
G74*
D01*
G03X19922Y66961I846J133*
G01*
X19922Y66961D01*
X19922Y67674D01*
X19209Y67674D01*
D02*
G37*
G36*
X21700Y68072D02*
G75*
D01*
G03X21700Y68072I1160J0*
G01*
D02*
G37*
G36*
X20718Y66961D02*
G74*
D01*
G03X21431Y67674I133J846*
G01*
X21431Y67674D01*
X20718Y67674D01*
X20718Y66961D01*
D02*
G37*
G36*
X19922Y69183D02*
G74*
D01*
G03X19209Y68470I133J846*
G01*
X19209Y68470D01*
X19922Y68470D01*
X19922Y69183D01*
D02*
G37*
G36*
X21431Y68470D02*
G74*
D01*
G03X20718Y69183I846J133*
G01*
X20718Y69183D01*
X20718Y68470D01*
X21431Y68470D01*
D02*
G37*
G36*
X47391Y97419D02*
G75*
D01*
G03X47391Y96637I869J-391*
G01*
X47391Y96637D01*
X47782Y97028D01*
X47391Y97419D01*
D02*
G37*
G36*
X25464Y90900D02*
G75*
D01*
G03X25464Y90900I952J0*
G01*
D02*
G37*
G36*
X32608Y91948D02*
G75*
D01*
G03X32608Y91948I952J0*
G01*
D02*
G37*
G36*
X25464Y94520D02*
G75*
D01*
G03X25464Y94520I952J0*
G01*
D02*
G37*
G36*
X32608Y97028D02*
G75*
D01*
G03X32608Y97028I952J0*
G01*
D02*
G37*
G36*
X53207Y55372D02*
G75*
D01*
G03X53207Y55372I1149J0*
G01*
D02*
G37*
G36*
X55747Y55372D02*
G75*
D01*
G03X55747Y55372I1149J0*
G01*
D02*
G37*
G36*
X52587Y67065D02*
G75*
D01*
G03X50537Y67065I-1025J245*
G01*
G75*
D01*
G03X51317Y66285I-245J-1025*
G01*
G75*
D01*
G03X51807Y66285I245J1025*
G01*
G75*
D01*
G03X52587Y67065I1025J-245*
G01*
D02*
G37*
G36*
X59699Y67065D02*
G75*
D01*
G03X57649Y67065I-1025J245*
G01*
G75*
D01*
G03X58429Y66285I-245J-1025*
G01*
G75*
D01*
G03X58919Y66285I245J1025*
G01*
G75*
D01*
G03X59699Y67065I1025J-245*
G01*
D02*
G37*
G36*
X66704Y66138D02*
G75*
D01*
G03X65884Y66138I-410J-860*
G01*
G75*
D01*
G03X65434Y65688I-860J410*
G01*
G75*
D01*
G03X67154Y65688I860J-410*
G01*
G75*
D01*
G03X66704Y66138I410J860*
G01*
D02*
G37*
G36*
X32100Y53340D02*
G75*
D01*
G03X32100Y53340I952J0*
G01*
D02*
G37*
G36*
X47361Y54209D02*
X47361Y54209D01*
X47752Y53818D01*
X48143Y54209D01*
G75*
D01*
G03X47361Y54209I-391J-869*
G01*
D02*
G37*
G36*
X48143Y52471D02*
X48143Y52471D01*
X47752Y52862D01*
X47361Y52471D01*
G75*
D01*
G03X48143Y52471I391J869*
G01*
D02*
G37*
G36*
X47308Y53340D02*
G75*
D01*
G03X47308Y53340I444J0*
G01*
D02*
G37*
G36*
X46883Y53731D02*
G75*
D01*
G03X46883Y52949I869J-391*
G01*
X46883Y52949D01*
X47274Y53340D01*
X46883Y53731D01*
D02*
G37*
G36*
X24531Y64399D02*
G75*
D01*
G03X24531Y63617I869J-391*
G01*
X24531Y63617D01*
X24922Y64008D01*
X24531Y64399D01*
D02*
G37*
G36*
X26269Y64399D02*
X26269Y64399D01*
X25878Y64008D01*
X26269Y63617D01*
G75*
D01*
G03X26269Y64399I-869J391*
G01*
D02*
G37*
G36*
X24956Y64008D02*
G75*
D01*
G03X24956Y64008I444J0*
G01*
D02*
G37*
G36*
X25791Y63139D02*
X25791Y63139D01*
X25400Y63530D01*
X25009Y63139D01*
G75*
D01*
G03X25791Y63139I391J869*
G01*
D02*
G37*
G36*
X25009Y64877D02*
X25009Y64877D01*
X25400Y64486D01*
X25791Y64877D01*
G75*
D01*
G03X25009Y64877I-391J-869*
G01*
D02*
G37*
G36*
X44352Y66138D02*
G75*
D01*
G03X43532Y66138I-410J-860*
G01*
G75*
D01*
G03X43082Y65688I-860J410*
G01*
G75*
D01*
G03X44802Y65688I860J-410*
G01*
G75*
D01*
G03X44352Y66138I410J860*
G01*
D02*
G37*
G36*
X33422Y68337D02*
X33422Y68337D01*
X33422Y67807D01*
G75*
D01*
G03X34279Y66950I857J0*
G01*
X34279Y66950D01*
X34809Y66950D01*
G75*
D01*
G03X35666Y67807I0J857*
G01*
X35666Y67807D01*
X35666Y68337D01*
G74*
D01*
G03X34809Y69194I857J0*
G01*
X34809Y69194D01*
X34279Y69194D01*
G75*
D01*
G03X33422Y68337I0J-857*
G01*
D02*
G37*
G36*
X36673Y66987D02*
X36673Y66987D01*
X36673Y67661D01*
X35999Y67661D01*
G74*
D01*
G03X36673Y66987I1085J411*
G01*
D02*
G37*
G36*
X38169Y67661D02*
X38169Y67661D01*
X37495Y67661D01*
X37495Y66987D01*
G74*
D01*
G03X38169Y67661I411J1085*
G01*
D02*
G37*
G36*
X36640Y68072D02*
G75*
D01*
G03X36640Y68072I444J0*
G01*
D02*
G37*
G36*
X35999Y68483D02*
X35999Y68483D01*
X36673Y68483D01*
X36673Y69157D01*
G74*
D01*
G03X35999Y68483I411J1085*
G01*
D02*
G37*
G36*
X37495Y69157D02*
X37495Y69157D01*
X37495Y68483D01*
X38169Y68483D01*
G74*
D01*
G03X37495Y69157I1085J411*
G01*
D02*
G37*
%LPD*%
G54D11*
X72249Y113079D02*
G75*
D01*
G03X72249Y113079I395J-303*
G01*
X72249Y109910D02*
G75*
D01*
G03X72249Y109910I-621J-722*
G01*
X72249Y46908D02*
G75*
D01*
G03X72249Y46908I903J304*
G01*
X72249Y32208D02*
G75*
D01*
G03X72249Y32208I903J304*
G01*
X72249Y49480D02*
G75*
D01*
G03X72249Y49480I903J304*
G01*
X72249Y95210D02*
G75*
D01*
G03X72249Y95210I-621J-722*
G01*
X72249Y92130D02*
G75*
D01*
G03X72249Y92130I-621J-722*
G01*
X78927Y75811D02*
G75*
D01*
G03X78927Y75811I321J897*
G01*
X72249Y75986D02*
G75*
D01*
G03X72249Y75986I-621J722*
G01*
X72249Y64788D02*
G75*
D01*
G03X72249Y64788I903J-304*
G01*
X24249Y112022D02*
G75*
D01*
G03X24249Y112022I-881J754*
G01*
X249Y94140D02*
G75*
D01*
G03X249Y94140I767J856*
G01*
X249Y54250D02*
G75*
D01*
G03X249Y54250I-249J1122*
G01*
X48249Y49072D02*
G75*
D01*
G03X48249Y49072I-497J-812*
G01*
X18450Y75811D02*
G75*
D01*
G03X18450Y75811I854J421*
G01*
X47869Y96159D02*
G75*
D01*
G03X48651Y96159I391J869*
G01*
X48260Y96550D01*
X48249Y96539D01*
X47869Y96159D01*
X48249Y97472D02*
G75*
D01*
G03X48249Y97472I11J-444*
G01*
X47869Y97897D02*
X48249Y97517D01*
X48249Y97517D01*
X48249Y97516D01*
X48260Y97506D01*
X48651Y97897D01*
G75*
D01*
G03X47869Y97897I-391J-869*
G01*
X48249Y92900D02*
G75*
D01*
G03X48249Y92900I11J-952*
G01*
X27286Y75811D02*
G75*
D01*
G03X27286Y75811I-870J389*
G01*
X48621Y53731D02*
X48230Y53340D01*
X48621Y52949D01*
G75*
D01*
G03X48621Y53731I-869J391*
G01*
X78857Y110089D02*
X79248Y109698D01*
X79639Y110089D01*
G75*
D01*
G03X78857Y110089I-391J-869*
G01*
X80117Y109611D02*
X79726Y109220D01*
X80117Y108829D01*
G75*
D01*
G03X80117Y109611I-869J391*
G01*
X78379Y109611D02*
G75*
D01*
G03X78379Y108829I869J-391*
G01*
X78770Y109220D01*
X78379Y109611D01*
X79639Y108351D02*
X79248Y108742D01*
X78857Y108351D01*
G75*
D01*
G03X79639Y108351I391J869*
G01*
X78804Y109220D02*
G75*
D01*
G03X78804Y109220I444J0*
G01*
X73042Y111665D02*
G74*
D01*
G03X73755Y112378I133J846*
G01*
X73042Y112378D01*
X73042Y111665D01*
X74024Y112776D02*
G75*
D01*
G03X74024Y112776I1160J0*
G01*
X73755Y113174D02*
G74*
D01*
G03X73042Y113887I846J133*
G01*
X73042Y113174D01*
X73755Y113174D01*
X78296Y49816D02*
G75*
D01*
G03X78296Y49816I952J0*
G01*
X78296Y32512D02*
G75*
D01*
G03X78296Y32512I952J0*
G01*
X78296Y47212D02*
G75*
D01*
G03X78296Y47212I952J0*
G01*
X78296Y94520D02*
G75*
D01*
G03X78296Y94520I952J0*
G01*
X78296Y91408D02*
G75*
D01*
G03X78296Y91408I952J0*
G01*
X79639Y63647D02*
X79248Y64038D01*
X78857Y63647D01*
G75*
D01*
G03X79639Y63647I391J869*
G01*
X80117Y64907D02*
X79726Y64516D01*
X80117Y64125D01*
G75*
D01*
G03X80117Y64907I-869J391*
G01*
X78379Y64907D02*
G75*
D01*
G03X78379Y64125I869J-391*
G01*
X78770Y64516D01*
X78379Y64907D01*
X78857Y65385D02*
X79248Y64994D01*
X79639Y65385D01*
G75*
D01*
G03X78857Y65385I-391J-869*
G01*
X78804Y64516D02*
G75*
D01*
G03X78804Y64516I444J0*
G01*
X73565Y67674D02*
G74*
D01*
G03X74278Y66961I846J133*
G01*
X74278Y67674D01*
X73565Y67674D01*
X74179Y68072D02*
G75*
D01*
G03X74179Y68072I497J0*
G01*
X75074Y66961D02*
G74*
D01*
G03X75787Y67674I133J846*
G01*
X75074Y67674D01*
X75074Y66961D01*
X76056Y68072D02*
G75*
D01*
G03X76056Y68072I1160J0*
G01*
X74278Y69183D02*
G74*
D01*
G03X73565Y68470I133J846*
G01*
X74278Y68470D01*
X74278Y69183D01*
X75787Y68470D02*
G74*
D01*
G03X75074Y69183I846J133*
G01*
X75074Y68470D01*
X75787Y68470D01*
X-9277Y106172D02*
G75*
D01*
G03X-9277Y106172I1149J0*
G01*
X-2673Y106172D02*
G75*
D01*
G03X-2673Y106172I1149J0*
G01*
X-9277Y108712D02*
G75*
D01*
G03X-9277Y108712I1149J0*
G01*
X-2673Y108712D02*
G75*
D01*
G03X-2673Y108712I1149J0*
G01*
X-19918Y112533D02*
X-19918Y112003D01*
G75*
D01*
G03X-19061Y111146I857J0*
G01*
X-18531Y111146D01*
G75*
D01*
G03X-17674Y112003I0J857*
G01*
X-17674Y112533D01*
G74*
D01*
G03X-18531Y113390I857J0*
G01*
X-19061Y113390D01*
G75*
D01*
G03X-19918Y112533I0J-857*
G01*
X-16700Y112268D02*
G75*
D01*
G03X-16700Y112268I444J0*
G01*
X-16667Y111183D02*
X-16667Y111857D01*
X-17341Y111857D01*
G74*
D01*
G03X-16667Y111183I1085J411*
G01*
X-15171Y111857D02*
X-15845Y111857D01*
X-15845Y111183D01*
G74*
D01*
G03X-15171Y111857I411J1085*
G01*
X-9277Y111252D02*
G75*
D01*
G03X-9277Y111252I1149J0*
G01*
X-2673Y111252D02*
G75*
D01*
G03X-2673Y111252I1149J0*
G01*
X-17341Y112679D02*
X-16667Y112679D01*
X-16667Y113353D01*
G74*
D01*
G03X-17341Y112679I411J1085*
G01*
X-15845Y113353D02*
X-15845Y112679D01*
X-15171Y112679D01*
G74*
D01*
G03X-15845Y113353I1085J411*
G01*
X3931Y106172D02*
G75*
D01*
G03X3931Y106172I1149J0*
G01*
X10535Y106172D02*
G75*
D01*
G03X10535Y106172I1149J0*
G01*
X3931Y108712D02*
G75*
D01*
G03X3931Y108712I1149J0*
G01*
X10535Y108712D02*
G75*
D01*
G03X10535Y108712I1149J0*
G01*
X18352Y109188D02*
G75*
D01*
G03X18352Y109188I952J0*
G01*
X3931Y111252D02*
G75*
D01*
G03X3931Y111252I1149J0*
G01*
X10535Y111252D02*
G75*
D01*
G03X10535Y111252I1149J0*
G01*
X19717Y112378D02*
G74*
D01*
G03X20430Y111665I846J133*
G01*
X20430Y112378D01*
X19717Y112378D01*
X21226Y111665D02*
G74*
D01*
G03X21939Y112378I133J846*
G01*
X21226Y112378D01*
X21226Y111665D01*
X20430Y113887D02*
G74*
D01*
G03X19717Y113174I133J846*
G01*
X20430Y113174D01*
X20430Y113887D01*
X21939Y113174D02*
G74*
D01*
G03X21226Y113887I846J133*
G01*
X21226Y113174D01*
X21939Y113174D01*
X20331Y112776D02*
G75*
D01*
G03X20331Y112776I497J0*
G01*
X50159Y106680D02*
G75*
D01*
G03X50159Y106680I1149J0*
G01*
X56255Y106680D02*
G75*
D01*
G03X56255Y106680I1149J0*
G01*
X62859Y106680D02*
G75*
D01*
G03X62859Y106680I1149J0*
G01*
X50159Y109220D02*
G75*
D01*
G03X50159Y109220I1149J0*
G01*
X56255Y109220D02*
G75*
D01*
G03X56255Y109220I1149J0*
G01*
X62859Y109220D02*
G75*
D01*
G03X62859Y109220I1149J0*
G01*
X50159Y111760D02*
G75*
D01*
G03X50159Y111760I1149J0*
G01*
X56255Y111760D02*
G75*
D01*
G03X56255Y111760I1149J0*
G01*
X62859Y111760D02*
G75*
D01*
G03X62859Y111760I1149J0*
G01*
X71533Y112378D02*
G74*
D01*
G03X72246Y111665I846J133*
G01*
X72246Y112378D01*
X71533Y112378D01*
X72246Y113887D02*
G74*
D01*
G03X71533Y113174I133J846*
G01*
X72246Y113174D01*
X72246Y113887D01*
X44063Y106680D02*
G75*
D01*
G03X44063Y106680I1149J0*
G01*
X25972Y109220D02*
G75*
D01*
G03X25972Y109220I444J0*
G01*
X25547Y109611D02*
G75*
D01*
G03X25547Y108829I869J-391*
G01*
X25938Y109220D01*
X25547Y109611D01*
X26025Y110089D02*
X26416Y109698D01*
X26807Y110089D01*
G75*
D01*
G03X26025Y110089I-391J-869*
G01*
X27285Y109611D02*
X26894Y109220D01*
X27285Y108829D01*
G75*
D01*
G03X27285Y109611I-869J391*
G01*
X26807Y108351D02*
X26416Y108742D01*
X26025Y108351D01*
G75*
D01*
G03X26807Y108351I391J869*
G01*
X44063Y109220D02*
G75*
D01*
G03X44063Y109220I1149J0*
G01*
X33930Y113041D02*
X33930Y112511D01*
G75*
D01*
G03X34787Y111654I857J0*
G01*
X35317Y111654D01*
G75*
D01*
G03X36174Y112511I0J857*
G01*
X36174Y113041D01*
G74*
D01*
G03X35317Y113898I857J0*
G01*
X34787Y113898D01*
G75*
D01*
G03X33930Y113041I0J-857*
G01*
X37181Y111691D02*
X37181Y112365D01*
X36507Y112365D01*
G74*
D01*
G03X37181Y111691I1085J411*
G01*
X38677Y112365D02*
X38003Y112365D01*
X38003Y111691D01*
G74*
D01*
G03X38677Y112365I411J1085*
G01*
X44063Y111760D02*
G75*
D01*
G03X44063Y111760I1149J0*
G01*
X37148Y112776D02*
G75*
D01*
G03X37148Y112776I444J0*
G01*
X36507Y113187D02*
X37181Y113187D01*
X37181Y113861D01*
G74*
D01*
G03X36507Y113187I411J1085*
G01*
X38003Y113861D02*
X38003Y113187D01*
X38677Y113187D01*
G74*
D01*
G03X38003Y113861I1085J411*
G01*
X-6032Y48768D02*
G75*
D01*
G03X-6032Y48768I952J0*
G01*
X-4000Y36576D02*
G75*
D01*
G03X-4000Y36576I952J0*
G01*
X-3968Y41656D02*
G75*
D01*
G03X-3968Y41656I952J0*
G01*
X-20732Y48768D02*
G75*
D01*
G03X-20732Y48768I952J0*
G01*
X-4719Y96911D02*
X-5110Y96520D01*
X-4719Y96129D01*
G75*
D01*
G03X-4719Y96911I-869J391*
G01*
X-4000Y79248D02*
G75*
D01*
G03X-4000Y79248I952J0*
G01*
X-18421Y81280D02*
G75*
D01*
G03X-18421Y81280I1149J0*
G01*
X-15881Y81280D02*
G75*
D01*
G03X-15881Y81280I1149J0*
G01*
X-11765Y81688D02*
X-11117Y81688D01*
G74*
D01*
G03X-11784Y82355I1075J408*
G01*
X-11784Y81707D01*
G75*
D01*
G03X-12600Y81707I-408J-427*
G01*
X-12600Y82355D01*
G74*
D01*
G03X-13267Y81688I408J1075*
G01*
X-12619Y81688D01*
G75*
D01*
G03X-12619Y80872I427J-408*
G01*
X-13267Y80872D01*
G74*
D01*
G03X-12600Y80205I1075J408*
G01*
X-12600Y80853D01*
G75*
D01*
G03X-11784Y80853I408J427*
G01*
X-11784Y80205D01*
G74*
D01*
G03X-11117Y80872I408J1075*
G01*
X-11765Y80872D01*
G75*
D01*
G03X-11765Y81688I-427J408*
G01*
X-10801Y81280D02*
G75*
D01*
G03X-10801Y81280I1149J0*
G01*
X-3968Y84328D02*
G75*
D01*
G03X-3968Y84328I952J0*
G01*
X-21240Y91440D02*
G75*
D01*
G03X-21240Y91440I952J0*
G01*
X-6540Y91440D02*
G75*
D01*
G03X-6540Y91440I952J0*
G01*
X-21240Y96520D02*
G75*
D01*
G03X-21240Y96520I952J0*
G01*
X-5197Y95651D02*
X-5588Y96042D01*
X-5979Y95651D01*
G75*
D01*
G03X-5197Y95651I391J869*
G01*
X-6032Y96520D02*
G75*
D01*
G03X-6032Y96520I444J0*
G01*
X-6457Y96911D02*
G75*
D01*
G03X-6457Y96129I869J-391*
G01*
X-6066Y96520D01*
X-6457Y96911D01*
X-5979Y97389D02*
X-5588Y96998D01*
X-5197Y97389D01*
G75*
D01*
G03X-5979Y97389I-391J-869*
G01*
X-15337Y69157D02*
X-15337Y68483D01*
X-14663Y68483D01*
G74*
D01*
G03X-15337Y69157I1085J411*
G01*
X-20732Y53848D02*
G75*
D01*
G03X-20732Y53848I952J0*
G01*
X-5949Y54239D02*
G75*
D01*
G03X-5949Y53457I869J-391*
G01*
X-5558Y53848D01*
X-5949Y54239D01*
X-4211Y54239D02*
X-4602Y53848D01*
X-4211Y53457D01*
G75*
D01*
G03X-4211Y54239I-869J391*
G01*
X-5524Y53848D02*
G75*
D01*
G03X-5524Y53848I444J0*
G01*
X-4689Y52979D02*
X-5080Y53370D01*
X-5471Y52979D01*
G75*
D01*
G03X-4689Y52979I391J869*
G01*
X-5471Y54717D02*
X-5080Y54326D01*
X-4689Y54717D01*
G75*
D01*
G03X-5471Y54717I-391J-869*
G01*
X-9496Y65122D02*
G75*
D01*
G03X-10316Y65122I-410J-860*
G01*
G75*
D01*
G03X-10766Y64672I-860J410*
G01*
G75*
D01*
G03X-9046Y64672I860J-410*
G01*
G75*
D01*
G03X-9496Y65122I410J860*
G01*
X-1769Y66557D02*
G75*
D01*
G03X-3819Y66557I-1025J245*
G01*
G75*
D01*
G03X-3039Y65777I-245J-1025*
G01*
G75*
D01*
G03X-2549Y65777I245J1025*
G01*
G75*
D01*
G03X-1769Y66557I1025J-245*
G01*
X-19410Y68337D02*
X-19410Y67807D01*
G75*
D01*
G03X-18553Y66950I857J0*
G01*
X-18023Y66950D01*
G75*
D01*
G03X-17166Y67807I0J857*
G01*
X-17166Y68337D01*
G74*
D01*
G03X-18023Y69194I857J0*
G01*
X-18553Y69194D01*
G75*
D01*
G03X-19410Y68337I0J-857*
G01*
X-16192Y68072D02*
G75*
D01*
G03X-16192Y68072I444J0*
G01*
X-16159Y66987D02*
X-16159Y67661D01*
X-16833Y67661D01*
G74*
D01*
G03X-16159Y66987I1085J411*
G01*
X-14663Y67661D02*
X-15337Y67661D01*
X-15337Y66987D01*
G74*
D01*
G03X-14663Y67661I411J1085*
G01*
X-16833Y68483D02*
X-16159Y68483D01*
X-16159Y69157D01*
G74*
D01*
G03X-16833Y68483I411J1085*
G01*
X17844Y49276D02*
G75*
D01*
G03X17844Y49276I952J0*
G01*
X17844Y31528D02*
G75*
D01*
G03X17844Y31528I952J0*
G01*
X10700Y36576D02*
G75*
D01*
G03X10700Y36576I952J0*
G01*
X10732Y41656D02*
G75*
D01*
G03X10732Y41656I952J0*
G01*
X17844Y46228D02*
G75*
D01*
G03X17844Y46228I952J0*
G01*
X49340Y38100D02*
G75*
D01*
G03X49340Y38100I952J0*
G01*
X64040Y38100D02*
G75*
D01*
G03X64040Y38100I952J0*
G01*
X49372Y43180D02*
G75*
D01*
G03X49372Y43180I952J0*
G01*
X64072Y43180D02*
G75*
D01*
G03X64072Y43180I952J0*
G01*
X24448Y49308D02*
G75*
D01*
G03X24448Y49308I952J0*
G01*
X24448Y31496D02*
G75*
D01*
G03X24448Y31496I952J0*
G01*
X24448Y46196D02*
G75*
D01*
G03X24448Y46196I952J0*
G01*
X32100Y48260D02*
G75*
D01*
G03X32100Y48260I952J0*
G01*
X18352Y94488D02*
G75*
D01*
G03X18352Y94488I952J0*
G01*
X10700Y79248D02*
G75*
D01*
G03X10700Y79248I952J0*
G01*
X10732Y84328D02*
G75*
D01*
G03X10732Y84328I952J0*
G01*
X18352Y90932D02*
G75*
D01*
G03X18352Y90932I952J0*
G01*
X2407Y94996D02*
G75*
D01*
G03X2407Y94996I1149J0*
G01*
X49129Y97419D02*
X48738Y97028D01*
X49129Y96637D01*
G75*
D01*
G03X49129Y97419I-869J391*
G01*
X49848Y79756D02*
G75*
D01*
G03X49848Y79756I952J0*
G01*
X64548Y79756D02*
G75*
D01*
G03X64548Y79756I952J0*
G01*
X49880Y84836D02*
G75*
D01*
G03X49880Y84836I952J0*
G01*
X64580Y84836D02*
G75*
D01*
G03X64580Y84836I952J0*
G01*
X52699Y95504D02*
G75*
D01*
G03X52699Y95504I1149J0*
G01*
X55239Y95504D02*
G75*
D01*
G03X55239Y95504I1149J0*
G01*
X1391Y55372D02*
G75*
D01*
G03X1391Y55372I1149J0*
G01*
X11840Y65122D02*
G75*
D01*
G03X11020Y65122I-410J-860*
G01*
G75*
D01*
G03X10570Y64672I-860J410*
G01*
G75*
D01*
G03X12290Y64672I860J-410*
G01*
G75*
D01*
G03X11840Y65122I410J860*
G01*
X17844Y63976D02*
G75*
D01*
G03X17844Y63976I952J0*
G01*
X5343Y66557D02*
G75*
D01*
G03X3293Y66557I-1025J245*
G01*
G75*
D01*
G03X4073Y65777I-245J-1025*
G01*
G75*
D01*
G03X4563Y65777I245J1025*
G01*
G75*
D01*
G03X5343Y66557I1025J-245*
G01*
X19823Y68072D02*
G75*
D01*
G03X19823Y68072I497J0*
G01*
X19209Y67674D02*
G74*
D01*
G03X19922Y66961I846J133*
G01*
X19922Y67674D01*
X19209Y67674D01*
X21700Y68072D02*
G75*
D01*
G03X21700Y68072I1160J0*
G01*
X20718Y66961D02*
G74*
D01*
G03X21431Y67674I133J846*
G01*
X20718Y67674D01*
X20718Y66961D01*
X19922Y69183D02*
G74*
D01*
G03X19209Y68470I133J846*
G01*
X19922Y68470D01*
X19922Y69183D01*
X21431Y68470D02*
G74*
D01*
G03X20718Y69183I846J133*
G01*
X20718Y68470D01*
X21431Y68470D01*
X47391Y97419D02*
G75*
D01*
G03X47391Y96637I869J-391*
G01*
X47782Y97028D01*
X47391Y97419D01*
X25464Y90900D02*
G75*
D01*
G03X25464Y90900I952J0*
G01*
X32608Y91948D02*
G75*
D01*
G03X32608Y91948I952J0*
G01*
X25464Y94520D02*
G75*
D01*
G03X25464Y94520I952J0*
G01*
X32608Y97028D02*
G75*
D01*
G03X32608Y97028I952J0*
G01*
X53207Y55372D02*
G75*
D01*
G03X53207Y55372I1149J0*
G01*
X55747Y55372D02*
G75*
D01*
G03X55747Y55372I1149J0*
G01*
X52587Y67065D02*
G75*
D01*
G03X50537Y67065I-1025J245*
G01*
G75*
D01*
G03X51317Y66285I-245J-1025*
G01*
G75*
D01*
G03X51807Y66285I245J1025*
G01*
G75*
D01*
G03X52587Y67065I1025J-245*
G01*
X59699Y67065D02*
G75*
D01*
G03X57649Y67065I-1025J245*
G01*
G75*
D01*
G03X58429Y66285I-245J-1025*
G01*
G75*
D01*
G03X58919Y66285I245J1025*
G01*
G75*
D01*
G03X59699Y67065I1025J-245*
G01*
X66704Y66138D02*
G75*
D01*
G03X65884Y66138I-410J-860*
G01*
G75*
D01*
G03X65434Y65688I-860J410*
G01*
G75*
D01*
G03X67154Y65688I860J-410*
G01*
G75*
D01*
G03X66704Y66138I410J860*
G01*
X32100Y53340D02*
G75*
D01*
G03X32100Y53340I952J0*
G01*
X47361Y54209D02*
X47752Y53818D01*
X48143Y54209D01*
G75*
D01*
G03X47361Y54209I-391J-869*
G01*
X48143Y52471D02*
X47752Y52862D01*
X47361Y52471D01*
G75*
D01*
G03X48143Y52471I391J869*
G01*
X47308Y53340D02*
G75*
D01*
G03X47308Y53340I444J0*
G01*
X46883Y53731D02*
G75*
D01*
G03X46883Y52949I869J-391*
G01*
X47274Y53340D01*
X46883Y53731D01*
X24531Y64399D02*
G75*
D01*
G03X24531Y63617I869J-391*
G01*
X24922Y64008D01*
X24531Y64399D01*
X26269Y64399D02*
X25878Y64008D01*
X26269Y63617D01*
G75*
D01*
G03X26269Y64399I-869J391*
G01*
X24956Y64008D02*
G75*
D01*
G03X24956Y64008I444J0*
G01*
X25791Y63139D02*
X25400Y63530D01*
X25009Y63139D01*
G75*
D01*
G03X25791Y63139I391J869*
G01*
X25009Y64877D02*
X25400Y64486D01*
X25791Y64877D01*
G75*
D01*
G03X25009Y64877I-391J-869*
G01*
X44352Y66138D02*
G75*
D01*
G03X43532Y66138I-410J-860*
G01*
G75*
D01*
G03X43082Y65688I-860J410*
G01*
G75*
D01*
G03X44802Y65688I860J-410*
G01*
G75*
D01*
G03X44352Y66138I410J860*
G01*
X33422Y68337D02*
X33422Y67807D01*
G75*
D01*
G03X34279Y66950I857J0*
G01*
X34809Y66950D01*
G75*
D01*
G03X35666Y67807I0J857*
G01*
X35666Y68337D01*
G74*
D01*
G03X34809Y69194I857J0*
G01*
X34279Y69194D01*
G75*
D01*
G03X33422Y68337I0J-857*
G01*
X36673Y66987D02*
X36673Y67661D01*
X35999Y67661D01*
G74*
D01*
G03X36673Y66987I1085J411*
G01*
X38169Y67661D02*
X37495Y67661D01*
X37495Y66987D01*
G74*
D01*
G03X38169Y67661I411J1085*
G01*
X36640Y68072D02*
G75*
D01*
G03X36640Y68072I444J0*
G01*
X35999Y68483D02*
X36673Y68483D01*
X36673Y69157D01*
G74*
D01*
G03X35999Y68483I411J1085*
G01*
X37495Y69157D02*
X37495Y68483D01*
X38169Y68483D01*
G74*
D01*
G03X37495Y69157I1085J411*
G01*
X83691Y28577D02*
X-22985Y28577D01*
X-22985Y117727D01*
X83691Y117727D01*
X83691Y28577D01*
G54D12*
X-23622Y27940D02*
X-23622Y36982D01*
X-23622Y27940D02*
X-12827Y27940D01*
X84328Y27940D02*
X73533Y27940D01*
X84328Y27940D02*
X84328Y36982D01*
X84328Y118364D02*
X84328Y109322D01*
X84328Y118364D02*
X73533Y118364D01*
X-23622Y118364D02*
X-12827Y118364D01*
X-23622Y118364D02*
X-23622Y109322D01*
X-28622Y27940D02*
X-38622Y27940D01*
X-33622Y22940D02*
X-33622Y32940D01*
X-37372Y27940D02*
G75*
D01*
G02X-37372Y27940I3750J0*
G01*
X89328Y27940D02*
X99328Y27940D01*
X94328Y22940D02*
X94328Y32940D01*
X90578Y27940D02*
G75*
D01*
G02X90578Y27940I3750J0*
G01*
X93078Y27940D02*
G75*
D01*
G02X93078Y27940I1250J0*
G01*
X-28622Y118364D02*
X-38622Y118364D01*
X-33622Y113364D02*
X-33622Y123364D01*
X-37372Y118364D02*
G75*
D01*
G02X-37372Y118364I3750J0*
G01*
X-36122Y118364D02*
G75*
D01*
G02X-36122Y118364I2500J0*
G01*
X-34872Y118364D02*
G75*
D01*
G02X-34872Y118364I1250J0*
G01*
G54D13*
X-16256Y112268D03*
X23368Y112776D03*
X37592Y112776D03*
X75184Y112776D03*
X-15748Y68072D03*
X22860Y68072D03*
X37084Y68072D03*
X77216Y68072D03*
G54D14*
X-18796Y112268D03*
X20828Y112776D03*
X35052Y112776D03*
X72644Y112776D03*
X-18288Y68072D03*
X20320Y68072D03*
X34544Y68072D03*
X74676Y68072D03*
G54D15*
X-19060Y112004D02*
X-18532Y112004D01*
X-18532Y112532D01*
X-19060Y112532D01*
X-19060Y112004D01*D02*
X20564Y112512D02*
X21092Y112512D01*
X21092Y113040D01*
X20564Y113040D01*
X20564Y112512D01*D02*
X34788Y112512D02*
X35316Y112512D01*
X35316Y113040D01*
X34788Y113040D01*
X34788Y112512D01*D02*
X72380Y112512D02*
X72908Y112512D01*
X72908Y113040D01*
X72380Y113040D01*
X72380Y112512D01*D02*
X-18552Y67808D02*
X-18024Y67808D01*
X-18024Y68336D01*
X-18552Y68336D01*
X-18552Y67808D01*D02*
X20056Y67808D02*
X20584Y67808D01*
X20584Y68336D01*
X20056Y68336D01*
X20056Y67808D01*D02*
X34280Y67808D02*
X34808Y67808D01*
X34808Y68336D01*
X34280Y68336D01*
X34280Y67808D01*D02*
X74412Y67808D02*
X74940Y67808D01*
X74940Y68336D01*
X74412Y68336D01*
X74412Y67808D01*D02*
G54D16*
X-12192Y81280D03*
X-14732Y81280D03*
X-17272Y81280D03*
X-9652Y81280D03*
X1016Y94996D03*
X3556Y94996D03*
X53848Y95504D03*
X56388Y95504D03*
X64008Y106680D03*
X64008Y109220D03*
X64008Y111760D03*
X2540Y55372D03*
X0Y55372D03*
X56896Y55372D03*
X54356Y55372D03*
X57404Y109220D03*
X57404Y106680D03*
X57404Y111760D03*
X51308Y109220D03*
X51308Y106680D03*
X51308Y111760D03*
X45212Y106680D03*
X45212Y109220D03*
X45212Y111760D03*
X5080Y108712D03*
X5080Y106172D03*
X5080Y111252D03*
X11684Y106172D03*
X11684Y108712D03*
X11684Y111252D03*
X-1524Y108712D03*
X-1524Y106172D03*
X-1524Y111252D03*
X-8128Y106172D03*
X-8128Y108712D03*
X-8128Y111252D03*
G54D17*
X11652Y79248D03*
X-3048Y79248D03*
X-3016Y84328D03*
X11684Y84328D03*
X-20288Y91440D03*
X-5588Y91440D03*
X-20288Y96520D03*
X-5588Y96520D03*
X19304Y76232D03*
X19304Y90932D03*
X26416Y90900D03*
X26416Y76200D03*
X19304Y109188D03*
X19304Y94488D03*
X26416Y94520D03*
X26416Y109220D03*
X33560Y91948D03*
X48260Y91948D03*
X33560Y97028D03*
X48260Y97028D03*
X65500Y79756D03*
X50800Y79756D03*
X50832Y84836D03*
X65532Y84836D03*
X71628Y76708D03*
X71628Y91408D03*
X79248Y91408D03*
X79248Y76708D03*
X71628Y109188D03*
X71628Y94488D03*
X79248Y94520D03*
X79248Y109220D03*
X11652Y36576D03*
X-3048Y36576D03*
X18796Y31528D03*
X18796Y46228D03*
X25400Y46196D03*
X25400Y31496D03*
X-3016Y41656D03*
X11684Y41656D03*
X-19780Y48768D03*
X-5080Y48768D03*
X18796Y63976D03*
X18796Y49276D03*
X25400Y49308D03*
X25400Y64008D03*
X-19780Y53848D03*
X-5080Y53848D03*
X73152Y32512D03*
X73152Y47212D03*
X79248Y47212D03*
X79248Y32512D03*
X64992Y38100D03*
X50292Y38100D03*
X50324Y43180D03*
X65024Y43180D03*
X33052Y48260D03*
X47752Y48260D03*
X73152Y64484D03*
X73152Y49784D03*
X79248Y49816D03*
X79248Y64516D03*
X33052Y53340D03*
X47752Y53340D03*
X66294Y65278D03*
X67564Y66548D03*
X65024Y66548D03*
X-9906Y64262D03*
X-8636Y65532D03*
X-11176Y65532D03*
X11430Y64262D03*
X12700Y65532D03*
X10160Y65532D03*
X43942Y65278D03*
X45212Y66548D03*
X42672Y66548D03*
G54D18*
X-4064Y65532D03*
X-2794Y66802D03*
X-1524Y65532D03*
X3048Y65532D03*
X4318Y66802D03*
X5588Y65532D03*
X50292Y66040D03*
X51562Y67310D03*
X52832Y66040D03*
X57404Y66040D03*
X58674Y67310D03*
X59944Y66040D03*

M02*
