G04 Generated by Ultiboard 14.2 *
%FSLAX33Y33*%
%MOMM*%

%ADD10C,0.001*%
%ADD11C,0.001*%
%ADD12C,0.127*%


G04 ColorRGB 00FFFF for the following layer *
%LNBoard Outline*%
%LPD*%
G54D10*
G54D11*
X-23368Y28194D02*
X84074Y28194D01*
X84074Y118110D01*
X-23368Y118110D01*
X-23368Y28194D01*
G54D12*
X-23622Y27940D02*
X-23622Y36982D01*
X-23622Y27940D02*
X-12827Y27940D01*
X84328Y27940D02*
X73533Y27940D01*
X84328Y27940D02*
X84328Y36982D01*
X84328Y118364D02*
X84328Y109322D01*
X84328Y118364D02*
X73533Y118364D01*
X-23622Y118364D02*
X-12827Y118364D01*
X-23622Y118364D02*
X-23622Y109322D01*
X-28622Y27940D02*
X-38622Y27940D01*
X-33622Y22940D02*
X-33622Y32940D01*
X-37372Y27940D02*
G75*
D01*
G02X-37372Y27940I3750J0*
G01*
X89328Y27940D02*
X99328Y27940D01*
X94328Y22940D02*
X94328Y32940D01*
X90578Y27940D02*
G75*
D01*
G02X90578Y27940I3750J0*
G01*
X93078Y27940D02*
G75*
D01*
G02X93078Y27940I1250J0*
G01*
X-28622Y118364D02*
X-38622Y118364D01*
X-33622Y113364D02*
X-33622Y123364D01*
X-37372Y118364D02*
G75*
D01*
G02X-37372Y118364I3750J0*
G01*
X-36122Y118364D02*
G75*
D01*
G02X-36122Y118364I2500J0*
G01*
X-34872Y118364D02*
G75*
D01*
G02X-34872Y118364I1250J0*
G01*

M02*
