G04 Generated by Ultiboard 14.2 *
%FSLAX33Y33*%
%MOMM*%

%ADD10C,0.001*%
%ADD11C,0.203*%
%ADD12C,0.156*%
%ADD13C,0.200*%
%ADD14C,0.250*%
%ADD15C,0.113*%
%ADD16C,0.135*%
%ADD17C,0.071*%
%ADD18C,0.167*%
%ADD19C,0.127*%


G04 ColorRGB FFFF00 for the following layer *
%LNSilkscreen Top*%
%LPD*%
G54D10*
G54D11*
X-20433Y114230D02*
X-20433Y114986D01*
X-20010Y114608D01*
X-19586Y114986D01*
X-19586Y114230D01*
X-18316Y114382D02*
X-18598Y114230D01*
X-18881Y114230D01*
X-19163Y114382D01*
X-19163Y114835D01*
X-18881Y114986D01*
X-18598Y114986D01*
X-18316Y114835D01*
X-17893Y114986D02*
X-17893Y114382D01*
X-17611Y114230D01*
X-17328Y114230D01*
X-17046Y114382D01*
X-17046Y114986D01*
X-16482Y114835D02*
X-16200Y114986D01*
X-16200Y114230D01*
X-16623Y114230D02*
X-15776Y114230D01*
X-15353Y114230D02*
X-15353Y114684D01*
X-15071Y114986D01*
X-14788Y114986D01*
X-14506Y114684D01*
X-14506Y114230D01*
X-15353Y114457D02*
X-14506Y114457D01*
X-14986Y110998D02*
X-20066Y110998D01*
X-18161Y113538D02*
X-20066Y113538D01*
X-20066Y110998D01*
X-14986Y113538D02*
X-17314Y113538D01*
X-17738Y113538D02*
X-17738Y112691D01*
X-17949Y113326D02*
X-17738Y113538D01*
X-14986Y113538D02*
X-14986Y110998D01*
X18937Y114738D02*
X18937Y115494D01*
X19360Y115116D01*
X19784Y115494D01*
X19784Y114738D01*
X21054Y114890D02*
X20772Y114738D01*
X20489Y114738D01*
X20207Y114890D01*
X20207Y115343D01*
X20489Y115494D01*
X20772Y115494D01*
X21054Y115343D01*
X21477Y115494D02*
X21477Y114890D01*
X21759Y114738D01*
X22042Y114738D01*
X22324Y114890D01*
X22324Y115494D01*
X22888Y115343D02*
X23170Y115494D01*
X23170Y114738D01*
X22747Y114738D02*
X23594Y114738D01*
X24017Y114738D02*
X24582Y114738D01*
X24864Y114890D01*
X24864Y114965D01*
X24582Y115116D01*
X24864Y115268D01*
X24864Y115343D01*
X24582Y115494D01*
X24158Y115494D01*
X24017Y115494D01*
X24158Y115116D02*
X24582Y115116D01*
X24158Y115494D02*
X24158Y114738D01*
X24638Y111506D02*
X19558Y111506D01*
X21463Y114046D02*
X19558Y114046D01*
X19558Y111506D01*
X24638Y114046D02*
X22310Y114046D01*
X21886Y114046D02*
X21886Y113199D01*
X21675Y113834D02*
X21886Y114046D01*
X24638Y114046D02*
X24638Y111506D01*
X33161Y114738D02*
X33161Y115494D01*
X33584Y115116D01*
X34008Y115494D01*
X34008Y114738D01*
X35278Y114890D02*
X34996Y114738D01*
X34713Y114738D01*
X34431Y114890D01*
X34431Y115343D01*
X34713Y115494D01*
X34996Y115494D01*
X35278Y115343D01*
X35701Y115494D02*
X35701Y114890D01*
X35983Y114738D01*
X36266Y114738D01*
X36548Y114890D01*
X36548Y115494D01*
X36971Y115343D02*
X37253Y115494D01*
X37536Y115494D01*
X37818Y115343D01*
X37818Y115268D01*
X36971Y114738D01*
X37818Y114738D01*
X37818Y114814D01*
X38241Y114738D02*
X38241Y115192D01*
X38523Y115494D01*
X38806Y115494D01*
X39088Y115192D01*
X39088Y114738D01*
X38241Y114965D02*
X39088Y114965D01*
X38862Y111506D02*
X33782Y111506D01*
X35687Y114046D02*
X33782Y114046D01*
X33782Y111506D01*
X38862Y114046D02*
X36534Y114046D01*
X36110Y114046D02*
X36110Y113199D01*
X35899Y113834D02*
X36110Y114046D01*
X38862Y114046D02*
X38862Y111506D01*
X70753Y114738D02*
X70753Y115494D01*
X71176Y115116D01*
X71600Y115494D01*
X71600Y114738D01*
X72870Y114890D02*
X72588Y114738D01*
X72305Y114738D01*
X72023Y114890D01*
X72023Y115343D01*
X72305Y115494D01*
X72588Y115494D01*
X72870Y115343D01*
X73293Y115494D02*
X73293Y114890D01*
X73575Y114738D01*
X73858Y114738D01*
X74140Y114890D01*
X74140Y115494D01*
X74563Y115343D02*
X74845Y115494D01*
X75128Y115494D01*
X75410Y115343D01*
X75410Y115268D01*
X74563Y114738D01*
X75410Y114738D01*
X75410Y114814D01*
X75833Y114738D02*
X76398Y114738D01*
X76680Y114890D01*
X76680Y114965D01*
X76398Y115116D01*
X76680Y115268D01*
X76680Y115343D01*
X76398Y115494D01*
X75974Y115494D01*
X75833Y115494D01*
X75974Y115116D02*
X76398Y115116D01*
X75974Y115494D02*
X75974Y114738D01*
X76454Y111506D02*
X71374Y111506D01*
X73279Y114046D02*
X71374Y114046D01*
X71374Y111506D01*
X76454Y114046D02*
X74126Y114046D01*
X73702Y114046D02*
X73702Y113199D01*
X73491Y113834D02*
X73702Y114046D01*
X76454Y114046D02*
X76454Y111506D01*
X-20179Y70034D02*
X-20179Y70790D01*
X-19756Y70412D01*
X-19332Y70790D01*
X-19332Y70034D01*
X-18062Y70186D02*
X-18344Y70034D01*
X-18627Y70034D01*
X-18909Y70186D01*
X-18909Y70639D01*
X-18627Y70790D01*
X-18344Y70790D01*
X-18062Y70639D01*
X-17639Y70790D02*
X-17639Y70186D01*
X-17357Y70034D01*
X-17074Y70034D01*
X-16792Y70186D01*
X-16792Y70790D01*
X-16228Y70715D02*
X-16087Y70790D01*
X-15804Y70790D01*
X-15522Y70639D01*
X-15522Y70488D01*
X-15663Y70412D01*
X-15522Y70337D01*
X-15522Y70186D01*
X-15804Y70034D01*
X-16087Y70034D01*
X-16228Y70110D01*
X-16087Y70412D02*
X-15663Y70412D01*
X-15099Y70034D02*
X-15099Y70488D01*
X-14817Y70790D01*
X-14534Y70790D01*
X-14252Y70488D01*
X-14252Y70034D01*
X-15099Y70261D02*
X-14252Y70261D01*
X-14478Y66802D02*
X-19558Y66802D01*
X-17653Y69342D02*
X-19558Y69342D01*
X-19558Y66802D01*
X-14478Y69342D02*
X-16806Y69342D01*
X-17230Y69342D02*
X-17230Y68495D01*
X-17441Y69130D02*
X-17230Y69342D01*
X-14478Y69342D02*
X-14478Y66802D01*
X18429Y70034D02*
X18429Y70790D01*
X18852Y70412D01*
X19276Y70790D01*
X19276Y70034D01*
X20546Y70186D02*
X20264Y70034D01*
X19981Y70034D01*
X19699Y70186D01*
X19699Y70639D01*
X19981Y70790D01*
X20264Y70790D01*
X20546Y70639D01*
X20969Y70790D02*
X20969Y70186D01*
X21251Y70034D01*
X21534Y70034D01*
X21816Y70186D01*
X21816Y70790D01*
X22380Y70715D02*
X22521Y70790D01*
X22804Y70790D01*
X23086Y70639D01*
X23086Y70488D01*
X22945Y70412D01*
X23086Y70337D01*
X23086Y70186D01*
X22804Y70034D01*
X22521Y70034D01*
X22380Y70110D01*
X22521Y70412D02*
X22945Y70412D01*
X23509Y70034D02*
X24074Y70034D01*
X24356Y70186D01*
X24356Y70261D01*
X24074Y70412D01*
X24356Y70564D01*
X24356Y70639D01*
X24074Y70790D01*
X23650Y70790D01*
X23509Y70790D01*
X23650Y70412D02*
X24074Y70412D01*
X23650Y70790D02*
X23650Y70034D01*
X24130Y66802D02*
X19050Y66802D01*
X20955Y69342D02*
X19050Y69342D01*
X19050Y66802D01*
X24130Y69342D02*
X21802Y69342D01*
X21378Y69342D02*
X21378Y68495D01*
X21167Y69130D02*
X21378Y69342D01*
X24130Y69342D02*
X24130Y66802D01*
X32653Y70034D02*
X32653Y70790D01*
X33076Y70412D01*
X33500Y70790D01*
X33500Y70034D01*
X34770Y70186D02*
X34488Y70034D01*
X34205Y70034D01*
X33923Y70186D01*
X33923Y70639D01*
X34205Y70790D01*
X34488Y70790D01*
X34770Y70639D01*
X35193Y70790D02*
X35193Y70186D01*
X35475Y70034D01*
X35758Y70034D01*
X36040Y70186D01*
X36040Y70790D01*
X37310Y70337D02*
X36463Y70337D01*
X37169Y70790D01*
X37169Y70034D01*
X37028Y70034D02*
X37310Y70034D01*
X37733Y70034D02*
X37733Y70488D01*
X38015Y70790D01*
X38298Y70790D01*
X38580Y70488D01*
X38580Y70034D01*
X37733Y70261D02*
X38580Y70261D01*
X38354Y66802D02*
X33274Y66802D01*
X35179Y69342D02*
X33274Y69342D01*
X33274Y66802D01*
X38354Y69342D02*
X36026Y69342D01*
X35602Y69342D02*
X35602Y68495D01*
X35391Y69130D02*
X35602Y69342D01*
X38354Y69342D02*
X38354Y66802D01*
X73039Y70034D02*
X73039Y70790D01*
X73462Y70412D01*
X73886Y70790D01*
X73886Y70034D01*
X75156Y70186D02*
X74874Y70034D01*
X74591Y70034D01*
X74309Y70186D01*
X74309Y70639D01*
X74591Y70790D01*
X74874Y70790D01*
X75156Y70639D01*
X75579Y70790D02*
X75579Y70186D01*
X75861Y70034D01*
X76144Y70034D01*
X76426Y70186D01*
X76426Y70790D01*
X77696Y70337D02*
X76849Y70337D01*
X77555Y70790D01*
X77555Y70034D01*
X77414Y70034D02*
X77696Y70034D01*
X78119Y70034D02*
X78684Y70034D01*
X78966Y70186D01*
X78966Y70261D01*
X78684Y70412D01*
X78966Y70564D01*
X78966Y70639D01*
X78684Y70790D01*
X78260Y70790D01*
X78119Y70790D01*
X78260Y70412D02*
X78684Y70412D01*
X78260Y70790D02*
X78260Y70034D01*
X78486Y66802D02*
X73406Y66802D01*
X75311Y69342D02*
X73406Y69342D01*
X73406Y66802D01*
X78486Y69342D02*
X76158Y69342D01*
X75734Y69342D02*
X75734Y68495D01*
X75523Y69130D02*
X75734Y69342D01*
X78486Y69342D02*
X78486Y66802D01*
X-3415Y61804D02*
X-3133Y61652D01*
X-2850Y61652D01*
X-2568Y61804D01*
X-2568Y62257D01*
X-2850Y62408D01*
X-3133Y62408D01*
X-3415Y62257D01*
X-3415Y61804D01*
X-2850Y61804D02*
X-2568Y61652D01*
X-2004Y62333D02*
X-1863Y62408D01*
X-1580Y62408D01*
X-1298Y62257D01*
X-1298Y62106D01*
X-1439Y62030D01*
X-1298Y61955D01*
X-1298Y61804D01*
X-1580Y61652D01*
X-1863Y61652D01*
X-2004Y61728D01*
X-1863Y62030D02*
X-1439Y62030D01*
X-875Y61652D02*
X-875Y62408D01*
X-452Y62030D01*
X-28Y62408D01*
X-28Y61652D01*
X536Y62333D02*
X677Y62408D01*
X960Y62408D01*
X1242Y62257D01*
X1242Y62106D01*
X1101Y62030D01*
X1242Y61955D01*
X1242Y61804D01*
X960Y61652D01*
X677Y61652D01*
X536Y61728D01*
X677Y62030D02*
X1101Y62030D01*
X-876Y64033D02*
X-753Y64206D01*
X-645Y64389D01*
X-553Y64581D01*
X-479Y64780D01*
X-422Y64984D01*
X-384Y65193D01*
X-363Y65405D01*
X-361Y65617D01*
X-378Y65829D01*
X-413Y66038D01*
X-466Y66244D01*
X-537Y66444D01*
X-625Y66637D01*
X-730Y66822D01*
X-850Y66997D01*
X-985Y67161D01*
X-1134Y67312D01*
X-1295Y67450D01*
X-1468Y67573D01*
X-1651Y67681D01*
X-1843Y67773D01*
X-2042Y67847D01*
X-2246Y67904D01*
X-2455Y67942D01*
X-2667Y67963D01*
X-2879Y67965D01*
X-3091Y67948D01*
X-3300Y67913D01*
X-3506Y67860D01*
X-3706Y67789D01*
X-3899Y67701D01*
X-4084Y67596D01*
X-4259Y67476D01*
X-4423Y67341D01*
X-4574Y67192D01*
X-4712Y67031D01*
X-4835Y66858D01*
X-4943Y66675D01*
X-5035Y66483D01*
X-5109Y66284D01*
X-5166Y66080D01*
X-5204Y65871D01*
X-5225Y65659D01*
X-5227Y65447D01*
X-5210Y65235D01*
X-5175Y65026D01*
X-5122Y64820D01*
X-5051Y64620D01*
X-4963Y64427D01*
X-4858Y64242D01*
X-4738Y64067D01*
X-4712Y64033D01*
X-3302Y63500D02*
X-4826Y63500D01*
X-889Y64008D02*
X-4699Y64008D01*
X-762Y63246D02*
X-1016Y62992D01*
X-762Y63500D02*
X-762Y63246D01*
X-1016Y63754D02*
X-762Y63500D01*
X-1778Y63754D02*
X-1524Y63500D01*
X-2032Y63754D02*
X-1778Y63754D01*
X-1524Y63500D02*
X-1524Y63246D01*
X-1524Y63500D02*
X-1270Y63754D01*
X-1016Y63754D01*
X-2286Y63246D02*
X-2286Y63500D01*
X-2032Y62992D02*
X-2286Y63246D01*
X-2286Y63500D02*
X-2032Y63754D01*
X-3302Y63754D02*
X-3302Y63246D01*
X-4826Y63500D02*
X-4572Y63246D01*
X-3048Y68834D02*
X-2286Y68072D01*
X-2032Y68072D02*
X-2032Y68834D01*
X-3556Y68580D02*
X-3302Y68834D01*
X-3556Y68326D02*
X-3556Y68580D01*
X-2286Y68072D02*
X-2032Y68072D01*
X-3302Y68072D02*
X-3556Y68326D01*
X-3302Y68834D02*
X-3048Y68834D01*
X2935Y61550D02*
X3217Y61398D01*
X3500Y61398D01*
X3782Y61550D01*
X3782Y62003D01*
X3500Y62154D01*
X3217Y62154D01*
X2935Y62003D01*
X2935Y61550D01*
X3500Y61550D02*
X3782Y61398D01*
X5052Y61701D02*
X4205Y61701D01*
X4911Y62154D01*
X4911Y61398D01*
X4770Y61398D02*
X5052Y61398D01*
X5475Y61398D02*
X5475Y62154D01*
X5898Y61776D01*
X6322Y62154D01*
X6322Y61398D01*
X6886Y62079D02*
X7027Y62154D01*
X7310Y62154D01*
X7592Y62003D01*
X7592Y61852D01*
X7451Y61776D01*
X7592Y61701D01*
X7592Y61550D01*
X7310Y61398D01*
X7027Y61398D01*
X6886Y61474D01*
X7027Y61776D02*
X7451Y61776D01*
X6236Y64033D02*
X6359Y64206D01*
X6467Y64389D01*
X6559Y64581D01*
X6633Y64780D01*
X6690Y64984D01*
X6728Y65193D01*
X6749Y65405D01*
X6751Y65617D01*
X6734Y65829D01*
X6699Y66038D01*
X6646Y66244D01*
X6575Y66444D01*
X6487Y66637D01*
X6382Y66822D01*
X6262Y66997D01*
X6127Y67161D01*
X5978Y67312D01*
X5817Y67450D01*
X5644Y67573D01*
X5461Y67681D01*
X5269Y67773D01*
X5070Y67847D01*
X4866Y67904D01*
X4657Y67942D01*
X4445Y67963D01*
X4233Y67965D01*
X4021Y67948D01*
X3812Y67913D01*
X3606Y67860D01*
X3406Y67789D01*
X3213Y67701D01*
X3028Y67596D01*
X2853Y67476D01*
X2689Y67341D01*
X2538Y67192D01*
X2400Y67031D01*
X2277Y66858D01*
X2169Y66675D01*
X2077Y66483D01*
X2003Y66284D01*
X1946Y66080D01*
X1908Y65871D01*
X1887Y65659D01*
X1885Y65447D01*
X1902Y65235D01*
X1937Y65026D01*
X1990Y64820D01*
X2061Y64620D01*
X2149Y64427D01*
X2254Y64242D01*
X2374Y64067D01*
X2400Y64033D01*
X3810Y63500D02*
X2286Y63500D01*
X6223Y64008D02*
X2413Y64008D01*
X6350Y63246D02*
X6096Y62992D01*
X6350Y63500D02*
X6350Y63246D01*
X6096Y63754D02*
X6350Y63500D01*
X5334Y63754D02*
X5588Y63500D01*
X5080Y63754D02*
X5334Y63754D01*
X5588Y63500D02*
X5588Y63246D01*
X5588Y63500D02*
X5842Y63754D01*
X6096Y63754D01*
X4826Y63246D02*
X4826Y63500D01*
X5080Y62992D02*
X4826Y63246D01*
X4826Y63500D02*
X5080Y63754D01*
X3810Y63754D02*
X3810Y63246D01*
X2286Y63500D02*
X2540Y63246D01*
X4064Y68834D02*
X4826Y68072D01*
X5080Y68072D02*
X5080Y68834D01*
X3556Y68580D02*
X3810Y68834D01*
X3556Y68326D02*
X3556Y68580D01*
X4826Y68072D02*
X5080Y68072D01*
X3810Y68072D02*
X3556Y68326D01*
X3810Y68834D02*
X4064Y68834D01*
X50941Y62058D02*
X51223Y61906D01*
X51506Y61906D01*
X51788Y62058D01*
X51788Y62511D01*
X51506Y62662D01*
X51223Y62662D01*
X50941Y62511D01*
X50941Y62058D01*
X51506Y62058D02*
X51788Y61906D01*
X52352Y62587D02*
X52493Y62662D01*
X52776Y62662D01*
X53058Y62511D01*
X53058Y62360D01*
X52917Y62284D01*
X53058Y62209D01*
X53058Y62058D01*
X52776Y61906D01*
X52493Y61906D01*
X52352Y61982D01*
X52493Y62284D02*
X52917Y62284D01*
X53481Y61906D02*
X53481Y62662D01*
X53904Y62284D01*
X54328Y62662D01*
X54328Y61906D01*
X55598Y62209D02*
X54751Y62209D01*
X55457Y62662D01*
X55457Y61906D01*
X55316Y61906D02*
X55598Y61906D01*
X53480Y64541D02*
X53603Y64714D01*
X53711Y64897D01*
X53803Y65089D01*
X53877Y65288D01*
X53934Y65492D01*
X53972Y65701D01*
X53993Y65913D01*
X53995Y66125D01*
X53978Y66337D01*
X53943Y66546D01*
X53890Y66752D01*
X53819Y66952D01*
X53731Y67145D01*
X53626Y67330D01*
X53506Y67505D01*
X53371Y67669D01*
X53222Y67820D01*
X53061Y67958D01*
X52888Y68081D01*
X52705Y68189D01*
X52513Y68281D01*
X52314Y68355D01*
X52110Y68412D01*
X51901Y68450D01*
X51689Y68471D01*
X51477Y68473D01*
X51265Y68456D01*
X51056Y68421D01*
X50850Y68368D01*
X50650Y68297D01*
X50457Y68209D01*
X50272Y68104D01*
X50097Y67984D01*
X49933Y67849D01*
X49782Y67700D01*
X49644Y67539D01*
X49521Y67366D01*
X49413Y67183D01*
X49321Y66991D01*
X49247Y66792D01*
X49190Y66588D01*
X49152Y66379D01*
X49131Y66167D01*
X49129Y65955D01*
X49146Y65743D01*
X49181Y65534D01*
X49234Y65328D01*
X49305Y65128D01*
X49393Y64935D01*
X49498Y64750D01*
X49618Y64575D01*
X49644Y64541D01*
X51054Y64008D02*
X49530Y64008D01*
X53467Y64516D02*
X49657Y64516D01*
X53594Y63754D02*
X53340Y63500D01*
X53594Y64008D02*
X53594Y63754D01*
X53340Y64262D02*
X53594Y64008D01*
X52578Y64262D02*
X52832Y64008D01*
X52324Y64262D02*
X52578Y64262D01*
X52832Y64008D02*
X52832Y63754D01*
X52832Y64008D02*
X53086Y64262D01*
X53340Y64262D01*
X52070Y63754D02*
X52070Y64008D01*
X52324Y63500D02*
X52070Y63754D01*
X52070Y64008D02*
X52324Y64262D01*
X51054Y64262D02*
X51054Y63754D01*
X49530Y64008D02*
X49784Y63754D01*
X51308Y69342D02*
X52070Y68580D01*
X52324Y68580D02*
X52324Y69342D01*
X50800Y69088D02*
X51054Y69342D01*
X50800Y68834D02*
X50800Y69088D01*
X52070Y68580D02*
X52324Y68580D01*
X51054Y68580D02*
X50800Y68834D01*
X51054Y69342D02*
X51308Y69342D01*
X58053Y62058D02*
X58335Y61906D01*
X58618Y61906D01*
X58900Y62058D01*
X58900Y62511D01*
X58618Y62662D01*
X58335Y62662D01*
X58053Y62511D01*
X58053Y62058D01*
X58618Y62058D02*
X58900Y61906D01*
X60170Y62209D02*
X59323Y62209D01*
X60029Y62662D01*
X60029Y61906D01*
X59888Y61906D02*
X60170Y61906D01*
X60593Y61906D02*
X60593Y62662D01*
X61016Y62284D01*
X61440Y62662D01*
X61440Y61906D01*
X62710Y62209D02*
X61863Y62209D01*
X62569Y62662D01*
X62569Y61906D01*
X62428Y61906D02*
X62710Y61906D01*
X60592Y64541D02*
X60715Y64714D01*
X60823Y64897D01*
X60915Y65089D01*
X60989Y65288D01*
X61046Y65492D01*
X61084Y65701D01*
X61105Y65913D01*
X61107Y66125D01*
X61090Y66337D01*
X61055Y66546D01*
X61002Y66752D01*
X60931Y66952D01*
X60843Y67145D01*
X60738Y67330D01*
X60618Y67505D01*
X60483Y67669D01*
X60334Y67820D01*
X60173Y67958D01*
X60000Y68081D01*
X59817Y68189D01*
X59625Y68281D01*
X59426Y68355D01*
X59222Y68412D01*
X59013Y68450D01*
X58801Y68471D01*
X58589Y68473D01*
X58377Y68456D01*
X58168Y68421D01*
X57962Y68368D01*
X57762Y68297D01*
X57569Y68209D01*
X57384Y68104D01*
X57209Y67984D01*
X57045Y67849D01*
X56894Y67700D01*
X56756Y67539D01*
X56633Y67366D01*
X56525Y67183D01*
X56433Y66991D01*
X56359Y66792D01*
X56302Y66588D01*
X56264Y66379D01*
X56243Y66167D01*
X56241Y65955D01*
X56258Y65743D01*
X56293Y65534D01*
X56346Y65328D01*
X56417Y65128D01*
X56505Y64935D01*
X56610Y64750D01*
X56730Y64575D01*
X56756Y64541D01*
X58166Y64008D02*
X56642Y64008D01*
X60579Y64516D02*
X56769Y64516D01*
X60706Y63754D02*
X60452Y63500D01*
X60706Y64008D02*
X60706Y63754D01*
X60452Y64262D02*
X60706Y64008D01*
X59690Y64262D02*
X59944Y64008D01*
X59436Y64262D02*
X59690Y64262D01*
X59944Y64008D02*
X59944Y63754D01*
X59944Y64008D02*
X60198Y64262D01*
X60452Y64262D01*
X59182Y63754D02*
X59182Y64008D01*
X59436Y63500D02*
X59182Y63754D01*
X59182Y64008D02*
X59436Y64262D01*
X58166Y64262D02*
X58166Y63754D01*
X56642Y64008D02*
X56896Y63754D01*
X58420Y69342D02*
X59182Y68580D01*
X59436Y68580D02*
X59436Y69342D01*
X57912Y69088D02*
X58166Y69342D01*
X57912Y68834D02*
X57912Y69088D01*
X59182Y68580D02*
X59436Y68580D01*
X58166Y68580D02*
X57912Y68834D01*
X58166Y69342D02*
X58420Y69342D01*
G54D12*
X-14607Y76930D02*
X-14408Y77130D01*
X-14408Y76130D01*
X-14706Y76130D02*
X-14109Y76130D01*
X-13213Y77130D02*
X-13810Y77130D01*
X-13810Y76730D01*
X-13412Y76730D01*
X-13213Y76530D01*
X-13213Y76330D01*
X-13412Y76130D01*
X-13810Y76130D01*
X-12914Y77130D02*
X-12616Y76130D01*
X-12317Y77130D01*
X2894Y75608D02*
X2894Y76608D01*
X3292Y76608D01*
X3491Y76408D01*
X3491Y76308D01*
X3292Y76108D01*
X2894Y76108D01*
X2993Y76108D02*
X3491Y75608D01*
X3889Y76408D02*
X4088Y76608D01*
X4088Y75608D01*
X3790Y75608D02*
X4387Y75608D01*
X4686Y75608D02*
X4686Y76608D01*
X4984Y76108D01*
X5283Y76608D01*
X5283Y75608D01*
X5681Y76408D02*
X5880Y76608D01*
X5880Y75608D01*
X5582Y75608D02*
X6179Y75608D01*
X2894Y86784D02*
X2894Y87784D01*
X3292Y87784D01*
X3491Y87584D01*
X3491Y87484D01*
X3292Y87284D01*
X2894Y87284D01*
X2993Y87284D02*
X3491Y86784D01*
X3889Y87684D02*
X3989Y87784D01*
X4188Y87784D01*
X4387Y87584D01*
X4387Y87384D01*
X4287Y87284D01*
X4387Y87184D01*
X4387Y86984D01*
X4188Y86784D01*
X3989Y86784D01*
X3889Y86884D01*
X3989Y87284D02*
X4287Y87284D01*
X4686Y86784D02*
X4686Y87784D01*
X4984Y87284D01*
X5283Y87784D01*
X5283Y86784D01*
X5681Y87584D02*
X5880Y87784D01*
X5880Y86784D01*
X5582Y86784D02*
X6179Y86784D01*
X-14886Y87038D02*
X-14886Y88038D01*
X-14488Y88038D01*
X-14289Y87838D01*
X-14289Y87738D01*
X-14488Y87538D01*
X-14886Y87538D01*
X-14787Y87538D02*
X-14289Y87038D01*
X-13990Y87838D02*
X-13791Y88038D01*
X-13592Y88038D01*
X-13393Y87838D01*
X-13393Y87738D01*
X-13990Y87038D01*
X-13393Y87038D01*
X-13393Y87138D01*
X-13094Y87038D02*
X-13094Y87638D01*
X-12895Y88038D01*
X-12696Y88038D01*
X-12497Y87638D01*
X-12497Y87038D01*
X-13094Y87338D02*
X-12497Y87338D01*
X-12198Y87038D02*
X-12198Y88038D01*
X-11900Y87538D01*
X-11601Y88038D01*
X-11601Y87038D01*
X-11203Y87838D02*
X-11004Y88038D01*
X-11004Y87038D01*
X-11302Y87038D02*
X-10705Y87038D01*
X-302Y89846D02*
X-302Y90846D01*
X-4Y90346D01*
X295Y90846D01*
X295Y89846D01*
X594Y90046D02*
X793Y89846D01*
X992Y89846D01*
X1191Y90046D01*
X1191Y90646D01*
X992Y90846D01*
X793Y90846D01*
X594Y90646D01*
X594Y90046D01*
X1788Y89846D02*
X1788Y90846D01*
X1490Y90846D02*
X2087Y90846D01*
X2386Y90046D02*
X2585Y89846D01*
X2784Y89846D01*
X2983Y90046D01*
X2983Y90646D01*
X2784Y90846D01*
X2585Y90846D01*
X2386Y90646D01*
X2386Y90046D01*
X3282Y89846D02*
X3282Y90846D01*
X3680Y90846D01*
X3879Y90646D01*
X3879Y90546D01*
X3680Y90346D01*
X3282Y90346D01*
X3381Y90346D02*
X3879Y89846D01*
X4277Y90646D02*
X4476Y90846D01*
X4476Y89846D01*
X4178Y89846D02*
X4775Y89846D01*
X-15078Y99620D02*
X-15078Y100620D01*
X-14680Y100620D01*
X-14481Y100420D01*
X-14481Y100320D01*
X-14680Y100120D01*
X-15078Y100120D01*
X-14979Y100120D02*
X-14481Y99620D01*
X-14083Y100420D02*
X-13884Y100620D01*
X-13884Y99620D01*
X-14182Y99620D02*
X-13585Y99620D01*
X-13286Y99620D02*
X-13286Y100220D01*
X-13087Y100620D01*
X-12888Y100620D01*
X-12689Y100220D01*
X-12689Y99620D01*
X-13286Y99920D02*
X-12689Y99920D01*
X-12390Y99620D02*
X-12390Y100620D01*
X-12092Y100120D01*
X-11793Y100620D01*
X-11793Y99620D01*
X-11395Y100420D02*
X-11196Y100620D01*
X-11196Y99620D01*
X-11494Y99620D02*
X-10897Y99620D01*
X16848Y81634D02*
X15848Y81634D01*
X15848Y82032D01*
X16048Y82231D01*
X16148Y82231D01*
X16348Y82032D01*
X16348Y81634D01*
X16348Y81733D02*
X16848Y82231D01*
X16048Y82530D02*
X15848Y82729D01*
X15848Y82928D01*
X16048Y83127D01*
X16148Y83127D01*
X16848Y82530D01*
X16848Y83127D01*
X16748Y83127D01*
X16848Y83426D02*
X15848Y83426D01*
X16348Y83724D01*
X15848Y84023D01*
X16848Y84023D01*
X16048Y84421D02*
X15848Y84620D01*
X16848Y84620D01*
X16848Y84322D02*
X16848Y84919D01*
X23706Y82396D02*
X22706Y82396D01*
X22706Y82794D01*
X22906Y82993D01*
X23006Y82993D01*
X23206Y82794D01*
X23206Y82396D01*
X23206Y82495D02*
X23706Y82993D01*
X23306Y83889D02*
X23306Y83292D01*
X22706Y83789D01*
X23706Y83789D01*
X23706Y83690D02*
X23706Y83889D01*
X23706Y84188D02*
X22706Y84188D01*
X23206Y84486D01*
X22706Y84785D01*
X23706Y84785D01*
X22906Y85183D02*
X22706Y85382D01*
X23706Y85382D01*
X23706Y85084D02*
X23706Y85681D01*
X16594Y99668D02*
X15594Y99668D01*
X15594Y100066D01*
X15794Y100265D01*
X15894Y100265D01*
X16094Y100066D01*
X16094Y99668D01*
X16094Y99767D02*
X16594Y100265D01*
X15794Y100564D02*
X15594Y100763D01*
X15594Y100962D01*
X15794Y101161D01*
X15894Y101161D01*
X16594Y100564D01*
X16594Y101161D01*
X16494Y101161D01*
X16594Y101460D02*
X16594Y101858D01*
X16394Y102057D01*
X16294Y102057D01*
X16094Y101858D01*
X15894Y102057D01*
X15794Y102057D01*
X15594Y101858D01*
X15594Y101559D01*
X15594Y101460D01*
X16094Y101559D02*
X16094Y101858D01*
X15594Y101559D02*
X16594Y101559D01*
X16594Y102356D02*
X15594Y102356D01*
X16094Y102654D01*
X15594Y102953D01*
X16594Y102953D01*
X15794Y103351D02*
X15594Y103550D01*
X16594Y103550D01*
X16594Y103252D02*
X16594Y103849D01*
X23706Y99668D02*
X22706Y99668D01*
X22706Y100066D01*
X22906Y100265D01*
X23006Y100265D01*
X23206Y100066D01*
X23206Y99668D01*
X23206Y99767D02*
X23706Y100265D01*
X22906Y100663D02*
X22706Y100862D01*
X23706Y100862D01*
X23706Y100564D02*
X23706Y101161D01*
X23706Y101460D02*
X23706Y101858D01*
X23506Y102057D01*
X23406Y102057D01*
X23206Y101858D01*
X23006Y102057D01*
X22906Y102057D01*
X22706Y101858D01*
X22706Y101559D01*
X22706Y101460D01*
X23206Y101559D02*
X23206Y101858D01*
X22706Y101559D02*
X23706Y101559D01*
X23706Y102356D02*
X22706Y102356D01*
X23206Y102654D01*
X22706Y102953D01*
X23706Y102953D01*
X22906Y103351D02*
X22706Y103550D01*
X23706Y103550D01*
X23706Y103252D02*
X23706Y103849D01*
X38470Y88070D02*
X38470Y89070D01*
X38868Y89070D01*
X39067Y88870D01*
X39067Y88770D01*
X38868Y88570D01*
X38470Y88570D01*
X38569Y88570D02*
X39067Y88070D01*
X39366Y88870D02*
X39565Y89070D01*
X39764Y89070D01*
X39963Y88870D01*
X39963Y88770D01*
X39366Y88070D01*
X39963Y88070D01*
X39963Y88170D01*
X40262Y88070D02*
X40262Y88670D01*
X40461Y89070D01*
X40660Y89070D01*
X40859Y88670D01*
X40859Y88070D01*
X40262Y88370D02*
X40859Y88370D01*
X41158Y88070D02*
X41158Y89070D01*
X41456Y88570D01*
X41755Y89070D01*
X41755Y88070D01*
X42054Y88870D02*
X42253Y89070D01*
X42452Y89070D01*
X42651Y88870D01*
X42651Y88770D01*
X42054Y88070D01*
X42651Y88070D01*
X42651Y88170D01*
X52530Y90354D02*
X52530Y91354D01*
X52828Y90854D01*
X53127Y91354D01*
X53127Y90354D01*
X53426Y90554D02*
X53625Y90354D01*
X53824Y90354D01*
X54023Y90554D01*
X54023Y91154D01*
X53824Y91354D01*
X53625Y91354D01*
X53426Y91154D01*
X53426Y90554D01*
X54620Y90354D02*
X54620Y91354D01*
X54322Y91354D02*
X54919Y91354D01*
X55218Y90554D02*
X55417Y90354D01*
X55616Y90354D01*
X55815Y90554D01*
X55815Y91154D01*
X55616Y91354D01*
X55417Y91354D01*
X55218Y91154D01*
X55218Y90554D01*
X56114Y90354D02*
X56114Y91354D01*
X56512Y91354D01*
X56711Y91154D01*
X56711Y91054D01*
X56512Y90854D01*
X56114Y90854D01*
X56213Y90854D02*
X56711Y90354D01*
X57010Y91154D02*
X57209Y91354D01*
X57408Y91354D01*
X57607Y91154D01*
X57607Y91054D01*
X57010Y90354D01*
X57607Y90354D01*
X57607Y90454D01*
X38770Y100128D02*
X38770Y101128D01*
X39168Y101128D01*
X39367Y100928D01*
X39367Y100828D01*
X39168Y100628D01*
X38770Y100628D01*
X38869Y100628D02*
X39367Y100128D01*
X39765Y100928D02*
X39964Y101128D01*
X39964Y100128D01*
X39666Y100128D02*
X40263Y100128D01*
X40562Y100128D02*
X40562Y100728D01*
X40761Y101128D01*
X40960Y101128D01*
X41159Y100728D01*
X41159Y100128D01*
X40562Y100428D02*
X41159Y100428D01*
X41458Y100128D02*
X41458Y101128D01*
X41756Y100628D01*
X42055Y101128D01*
X42055Y100128D01*
X42354Y100928D02*
X42553Y101128D01*
X42752Y101128D01*
X42951Y100928D01*
X42951Y100828D01*
X42354Y100128D01*
X42951Y100128D01*
X42951Y100228D01*
X56458Y75856D02*
X56458Y76856D01*
X56856Y76856D01*
X57055Y76656D01*
X57055Y76556D01*
X56856Y76356D01*
X56458Y76356D01*
X56557Y76356D02*
X57055Y75856D01*
X57453Y76656D02*
X57652Y76856D01*
X57652Y75856D01*
X57354Y75856D02*
X57951Y75856D01*
X58250Y75856D02*
X58250Y76856D01*
X58548Y76356D01*
X58847Y76856D01*
X58847Y75856D01*
X59146Y76656D02*
X59345Y76856D01*
X59544Y76856D01*
X59743Y76656D01*
X59743Y76556D01*
X59146Y75856D01*
X59743Y75856D01*
X59743Y75956D01*
X56742Y87546D02*
X56742Y88546D01*
X57140Y88546D01*
X57339Y88346D01*
X57339Y88246D01*
X57140Y88046D01*
X56742Y88046D01*
X56841Y88046D02*
X57339Y87546D01*
X57737Y88446D02*
X57837Y88546D01*
X58036Y88546D01*
X58235Y88346D01*
X58235Y88146D01*
X58135Y88046D01*
X58235Y87946D01*
X58235Y87746D01*
X58036Y87546D01*
X57837Y87546D01*
X57737Y87646D01*
X57837Y88046D02*
X58135Y88046D01*
X58534Y87546D02*
X58534Y88546D01*
X58832Y88046D01*
X59131Y88546D01*
X59131Y87546D01*
X59430Y88346D02*
X59629Y88546D01*
X59828Y88546D01*
X60027Y88346D01*
X60027Y88246D01*
X59430Y87546D01*
X60027Y87546D01*
X60027Y87646D01*
X68528Y82366D02*
X67528Y82366D01*
X67528Y82764D01*
X67728Y82963D01*
X67828Y82963D01*
X68028Y82764D01*
X68028Y82366D01*
X68028Y82465D02*
X68528Y82963D01*
X67728Y83262D02*
X67528Y83461D01*
X67528Y83660D01*
X67728Y83859D01*
X67828Y83859D01*
X68528Y83262D01*
X68528Y83859D01*
X68428Y83859D01*
X68528Y84158D02*
X67528Y84158D01*
X68028Y84456D01*
X67528Y84755D01*
X68528Y84755D01*
X67728Y85054D02*
X67528Y85253D01*
X67528Y85452D01*
X67728Y85651D01*
X67828Y85651D01*
X68528Y85054D01*
X68528Y85651D01*
X68428Y85651D01*
X76284Y82396D02*
X75284Y82396D01*
X75284Y82794D01*
X75484Y82993D01*
X75584Y82993D01*
X75784Y82794D01*
X75784Y82396D01*
X75784Y82495D02*
X76284Y82993D01*
X75884Y83889D02*
X75884Y83292D01*
X75284Y83789D01*
X76284Y83789D01*
X76284Y83690D02*
X76284Y83889D01*
X76284Y84188D02*
X75284Y84188D01*
X75784Y84486D01*
X75284Y84785D01*
X76284Y84785D01*
X75484Y85084D02*
X75284Y85283D01*
X75284Y85482D01*
X75484Y85681D01*
X75584Y85681D01*
X76284Y85084D01*
X76284Y85681D01*
X76184Y85681D01*
X68664Y99668D02*
X67664Y99668D01*
X67664Y100066D01*
X67864Y100265D01*
X67964Y100265D01*
X68164Y100066D01*
X68164Y99668D01*
X68164Y99767D02*
X68664Y100265D01*
X67864Y100564D02*
X67664Y100763D01*
X67664Y100962D01*
X67864Y101161D01*
X67964Y101161D01*
X68664Y100564D01*
X68664Y101161D01*
X68564Y101161D01*
X68664Y101460D02*
X68664Y101858D01*
X68464Y102057D01*
X68364Y102057D01*
X68164Y101858D01*
X67964Y102057D01*
X67864Y102057D01*
X67664Y101858D01*
X67664Y101559D01*
X67664Y101460D01*
X68164Y101559D02*
X68164Y101858D01*
X67664Y101559D02*
X68664Y101559D01*
X68664Y102356D02*
X67664Y102356D01*
X68164Y102654D01*
X67664Y102953D01*
X68664Y102953D01*
X67864Y103252D02*
X67664Y103451D01*
X67664Y103650D01*
X67864Y103849D01*
X67964Y103849D01*
X68664Y103252D01*
X68664Y103849D01*
X68564Y103849D01*
X76148Y99730D02*
X75148Y99730D01*
X75148Y100128D01*
X75348Y100327D01*
X75448Y100327D01*
X75648Y100128D01*
X75648Y99730D01*
X75648Y99829D02*
X76148Y100327D01*
X75348Y100725D02*
X75148Y100924D01*
X76148Y100924D01*
X76148Y100626D02*
X76148Y101223D01*
X76148Y101522D02*
X76148Y101920D01*
X75948Y102119D01*
X75848Y102119D01*
X75648Y101920D01*
X75448Y102119D01*
X75348Y102119D01*
X75148Y101920D01*
X75148Y101621D01*
X75148Y101522D01*
X75648Y101621D02*
X75648Y101920D01*
X75148Y101621D02*
X76148Y101621D01*
X76148Y102418D02*
X75148Y102418D01*
X75648Y102716D01*
X75148Y103015D01*
X76148Y103015D01*
X75348Y103314D02*
X75148Y103513D01*
X75148Y103712D01*
X75348Y103911D01*
X75448Y103911D01*
X76148Y103314D01*
X76148Y103911D01*
X76048Y103911D01*
X2610Y32676D02*
X2610Y33676D01*
X3008Y33676D01*
X3207Y33476D01*
X3207Y33376D01*
X3008Y33176D01*
X2610Y33176D01*
X2709Y33176D02*
X3207Y32676D01*
X3605Y33476D02*
X3804Y33676D01*
X3804Y32676D01*
X3506Y32676D02*
X4103Y32676D01*
X4402Y32676D02*
X4402Y33676D01*
X4700Y33176D01*
X4999Y33676D01*
X4999Y32676D01*
X5397Y33576D02*
X5497Y33676D01*
X5696Y33676D01*
X5895Y33476D01*
X5895Y33276D01*
X5795Y33176D01*
X5895Y33076D01*
X5895Y32876D01*
X5696Y32676D01*
X5497Y32676D01*
X5397Y32776D01*
X5497Y33176D02*
X5795Y33176D01*
X15696Y37186D02*
X14696Y37186D01*
X14696Y37584D01*
X14896Y37783D01*
X14996Y37783D01*
X15196Y37584D01*
X15196Y37186D01*
X15196Y37285D02*
X15696Y37783D01*
X14896Y38082D02*
X14696Y38281D01*
X14696Y38480D01*
X14896Y38679D01*
X14996Y38679D01*
X15696Y38082D01*
X15696Y38679D01*
X15596Y38679D01*
X15696Y38978D02*
X14696Y38978D01*
X15196Y39276D01*
X14696Y39575D01*
X15696Y39575D01*
X14796Y39973D02*
X14696Y40073D01*
X14696Y40272D01*
X14896Y40471D01*
X15096Y40471D01*
X15196Y40371D01*
X15296Y40471D01*
X15496Y40471D01*
X15696Y40272D01*
X15696Y40073D01*
X15596Y39973D01*
X15196Y40073D02*
X15196Y40371D01*
X22690Y37184D02*
X21690Y37184D01*
X21690Y37582D01*
X21890Y37781D01*
X21990Y37781D01*
X22190Y37582D01*
X22190Y37184D01*
X22190Y37283D02*
X22690Y37781D01*
X22290Y38677D02*
X22290Y38080D01*
X21690Y38577D01*
X22690Y38577D01*
X22690Y38478D02*
X22690Y38677D01*
X22690Y38976D02*
X21690Y38976D01*
X22190Y39274D01*
X21690Y39573D01*
X22690Y39573D01*
X21790Y39971D02*
X21690Y40071D01*
X21690Y40270D01*
X21890Y40469D01*
X22090Y40469D01*
X22190Y40369D01*
X22290Y40469D01*
X22490Y40469D01*
X22690Y40270D01*
X22690Y40071D01*
X22590Y39971D01*
X22190Y40071D02*
X22190Y40369D01*
X2894Y44366D02*
X2894Y45366D01*
X3292Y45366D01*
X3491Y45166D01*
X3491Y45066D01*
X3292Y44866D01*
X2894Y44866D01*
X2993Y44866D02*
X3491Y44366D01*
X3889Y45266D02*
X3989Y45366D01*
X4188Y45366D01*
X4387Y45166D01*
X4387Y44966D01*
X4287Y44866D01*
X4387Y44766D01*
X4387Y44566D01*
X4188Y44366D01*
X3989Y44366D01*
X3889Y44466D01*
X3989Y44866D02*
X4287Y44866D01*
X4686Y44366D02*
X4686Y45366D01*
X4984Y44866D01*
X5283Y45366D01*
X5283Y44366D01*
X5681Y45266D02*
X5781Y45366D01*
X5980Y45366D01*
X6179Y45166D01*
X6179Y44966D01*
X6079Y44866D01*
X6179Y44766D01*
X6179Y44566D01*
X5980Y44366D01*
X5781Y44366D01*
X5681Y44466D01*
X5781Y44866D02*
X6079Y44866D01*
X-14632Y45128D02*
X-14632Y46128D01*
X-14234Y46128D01*
X-14035Y45928D01*
X-14035Y45828D01*
X-14234Y45628D01*
X-14632Y45628D01*
X-14533Y45628D02*
X-14035Y45128D01*
X-13736Y45928D02*
X-13537Y46128D01*
X-13338Y46128D01*
X-13139Y45928D01*
X-13139Y45828D01*
X-13736Y45128D01*
X-13139Y45128D01*
X-13139Y45228D01*
X-12840Y45128D02*
X-12840Y45728D01*
X-12641Y46128D01*
X-12442Y46128D01*
X-12243Y45728D01*
X-12243Y45128D01*
X-12840Y45428D02*
X-12243Y45428D01*
X-11944Y45128D02*
X-11944Y46128D01*
X-11646Y45628D01*
X-11347Y46128D01*
X-11347Y45128D01*
X-10949Y46028D02*
X-10849Y46128D01*
X-10650Y46128D01*
X-10451Y45928D01*
X-10451Y45728D01*
X-10551Y45628D01*
X-10451Y45528D01*
X-10451Y45328D01*
X-10650Y45128D01*
X-10849Y45128D01*
X-10949Y45228D01*
X-10849Y45628D02*
X-10551Y45628D01*
X16340Y54456D02*
X15340Y54456D01*
X15340Y54854D01*
X15540Y55053D01*
X15640Y55053D01*
X15840Y54854D01*
X15840Y54456D01*
X15840Y54555D02*
X16340Y55053D01*
X15540Y55352D02*
X15340Y55551D01*
X15340Y55750D01*
X15540Y55949D01*
X15640Y55949D01*
X16340Y55352D01*
X16340Y55949D01*
X16240Y55949D01*
X16340Y56248D02*
X16340Y56646D01*
X16140Y56845D01*
X16040Y56845D01*
X15840Y56646D01*
X15640Y56845D01*
X15540Y56845D01*
X15340Y56646D01*
X15340Y56347D01*
X15340Y56248D01*
X15840Y56347D02*
X15840Y56646D01*
X15340Y56347D02*
X16340Y56347D01*
X16340Y57144D02*
X15340Y57144D01*
X15840Y57442D01*
X15340Y57741D01*
X16340Y57741D01*
X15440Y58139D02*
X15340Y58239D01*
X15340Y58438D01*
X15540Y58637D01*
X15740Y58637D01*
X15840Y58537D01*
X15940Y58637D01*
X16140Y58637D01*
X16340Y58438D01*
X16340Y58239D01*
X16240Y58139D01*
X15840Y58239D02*
X15840Y58537D01*
X22690Y54456D02*
X21690Y54456D01*
X21690Y54854D01*
X21890Y55053D01*
X21990Y55053D01*
X22190Y54854D01*
X22190Y54456D01*
X22190Y54555D02*
X22690Y55053D01*
X21890Y55451D02*
X21690Y55650D01*
X22690Y55650D01*
X22690Y55352D02*
X22690Y55949D01*
X22690Y56248D02*
X22690Y56646D01*
X22490Y56845D01*
X22390Y56845D01*
X22190Y56646D01*
X21990Y56845D01*
X21890Y56845D01*
X21690Y56646D01*
X21690Y56347D01*
X21690Y56248D01*
X22190Y56347D02*
X22190Y56646D01*
X21690Y56347D02*
X22690Y56347D01*
X22690Y57144D02*
X21690Y57144D01*
X22190Y57442D01*
X21690Y57741D01*
X22690Y57741D01*
X21790Y58139D02*
X21690Y58239D01*
X21690Y58438D01*
X21890Y58637D01*
X22090Y58637D01*
X22190Y58537D01*
X22290Y58637D01*
X22490Y58637D01*
X22690Y58438D01*
X22690Y58239D01*
X22590Y58139D01*
X22190Y58239D02*
X22190Y58537D01*
X-1318Y50222D02*
X-1318Y51222D01*
X-1020Y50722D01*
X-721Y51222D01*
X-721Y50222D01*
X-422Y50422D02*
X-223Y50222D01*
X-24Y50222D01*
X175Y50422D01*
X175Y51022D01*
X-24Y51222D01*
X-223Y51222D01*
X-422Y51022D01*
X-422Y50422D01*
X772Y50222D02*
X772Y51222D01*
X474Y51222D02*
X1071Y51222D01*
X1370Y50422D02*
X1569Y50222D01*
X1768Y50222D01*
X1967Y50422D01*
X1967Y51022D01*
X1768Y51222D01*
X1569Y51222D01*
X1370Y51022D01*
X1370Y50422D01*
X2266Y50222D02*
X2266Y51222D01*
X2664Y51222D01*
X2863Y51022D01*
X2863Y50922D01*
X2664Y50722D01*
X2266Y50722D01*
X2365Y50722D02*
X2863Y50222D01*
X3261Y51122D02*
X3361Y51222D01*
X3560Y51222D01*
X3759Y51022D01*
X3759Y50822D01*
X3659Y50722D01*
X3759Y50622D01*
X3759Y50422D01*
X3560Y50222D01*
X3361Y50222D01*
X3261Y50322D01*
X3361Y50722D02*
X3659Y50722D01*
X-14378Y56812D02*
X-14378Y57812D01*
X-13980Y57812D01*
X-13781Y57612D01*
X-13781Y57512D01*
X-13980Y57312D01*
X-14378Y57312D01*
X-14279Y57312D02*
X-13781Y56812D01*
X-13383Y57612D02*
X-13184Y57812D01*
X-13184Y56812D01*
X-13482Y56812D02*
X-12885Y56812D01*
X-12586Y56812D02*
X-12586Y57412D01*
X-12387Y57812D01*
X-12188Y57812D01*
X-11989Y57412D01*
X-11989Y56812D01*
X-12586Y57112D02*
X-11989Y57112D01*
X-11690Y56812D02*
X-11690Y57812D01*
X-11392Y57312D01*
X-11093Y57812D01*
X-11093Y56812D01*
X-10695Y57712D02*
X-10595Y57812D01*
X-10396Y57812D01*
X-10197Y57612D01*
X-10197Y57412D01*
X-10297Y57312D01*
X-10197Y57212D01*
X-10197Y57012D01*
X-10396Y56812D01*
X-10595Y56812D01*
X-10695Y56912D01*
X-10595Y57312D02*
X-10297Y57312D01*
X70696Y38200D02*
X69696Y38200D01*
X69696Y38598D01*
X69896Y38797D01*
X69996Y38797D01*
X70196Y38598D01*
X70196Y38200D01*
X70196Y38299D02*
X70696Y38797D01*
X69896Y39096D02*
X69696Y39295D01*
X69696Y39494D01*
X69896Y39693D01*
X69996Y39693D01*
X70696Y39096D01*
X70696Y39693D01*
X70596Y39693D01*
X70696Y39992D02*
X69696Y39992D01*
X70196Y40290D01*
X69696Y40589D01*
X70696Y40589D01*
X70296Y41485D02*
X70296Y40888D01*
X69696Y41385D01*
X70696Y41385D01*
X70696Y41286D02*
X70696Y41485D01*
X76792Y38200D02*
X75792Y38200D01*
X75792Y38598D01*
X75992Y38797D01*
X76092Y38797D01*
X76292Y38598D01*
X76292Y38200D01*
X76292Y38299D02*
X76792Y38797D01*
X76392Y39693D02*
X76392Y39096D01*
X75792Y39593D01*
X76792Y39593D01*
X76792Y39494D02*
X76792Y39693D01*
X76792Y39992D02*
X75792Y39992D01*
X76292Y40290D01*
X75792Y40589D01*
X76792Y40589D01*
X76392Y41485D02*
X76392Y40888D01*
X75792Y41385D01*
X76792Y41385D01*
X76792Y41286D02*
X76792Y41485D01*
X55950Y34200D02*
X55950Y35200D01*
X56348Y35200D01*
X56547Y35000D01*
X56547Y34900D01*
X56348Y34700D01*
X55950Y34700D01*
X56049Y34700D02*
X56547Y34200D01*
X56945Y35000D02*
X57144Y35200D01*
X57144Y34200D01*
X56846Y34200D02*
X57443Y34200D01*
X57742Y34200D02*
X57742Y35200D01*
X58040Y34700D01*
X58339Y35200D01*
X58339Y34200D01*
X59235Y34600D02*
X58638Y34600D01*
X59135Y35200D01*
X59135Y34200D01*
X59036Y34200D02*
X59235Y34200D01*
X55980Y45890D02*
X55980Y46890D01*
X56378Y46890D01*
X56577Y46690D01*
X56577Y46590D01*
X56378Y46390D01*
X55980Y46390D01*
X56079Y46390D02*
X56577Y45890D01*
X56975Y46790D02*
X57075Y46890D01*
X57274Y46890D01*
X57473Y46690D01*
X57473Y46490D01*
X57373Y46390D01*
X57473Y46290D01*
X57473Y46090D01*
X57274Y45890D01*
X57075Y45890D01*
X56975Y45990D01*
X57075Y46390D02*
X57373Y46390D01*
X57772Y45890D02*
X57772Y46890D01*
X58070Y46390D01*
X58369Y46890D01*
X58369Y45890D01*
X59265Y46290D02*
X58668Y46290D01*
X59165Y46890D01*
X59165Y45890D01*
X59066Y45890D02*
X59265Y45890D01*
X38200Y44620D02*
X38200Y45620D01*
X38598Y45620D01*
X38797Y45420D01*
X38797Y45320D01*
X38598Y45120D01*
X38200Y45120D01*
X38299Y45120D02*
X38797Y44620D01*
X39096Y45420D02*
X39295Y45620D01*
X39494Y45620D01*
X39693Y45420D01*
X39693Y45320D01*
X39096Y44620D01*
X39693Y44620D01*
X39693Y44720D01*
X39992Y44620D02*
X39992Y45220D01*
X40191Y45620D01*
X40390Y45620D01*
X40589Y45220D01*
X40589Y44620D01*
X39992Y44920D02*
X40589Y44920D01*
X40888Y44620D02*
X40888Y45620D01*
X41186Y45120D01*
X41485Y45620D01*
X41485Y44620D01*
X42381Y45020D02*
X41784Y45020D01*
X42281Y45620D01*
X42281Y44620D01*
X42182Y44620D02*
X42381Y44620D01*
X53038Y50222D02*
X53038Y51222D01*
X53336Y50722D01*
X53635Y51222D01*
X53635Y50222D01*
X53934Y50422D02*
X54133Y50222D01*
X54332Y50222D01*
X54531Y50422D01*
X54531Y51022D01*
X54332Y51222D01*
X54133Y51222D01*
X53934Y51022D01*
X53934Y50422D01*
X55128Y50222D02*
X55128Y51222D01*
X54830Y51222D02*
X55427Y51222D01*
X55726Y50422D02*
X55925Y50222D01*
X56124Y50222D01*
X56323Y50422D01*
X56323Y51022D01*
X56124Y51222D01*
X55925Y51222D01*
X55726Y51022D01*
X55726Y50422D01*
X56622Y50222D02*
X56622Y51222D01*
X57020Y51222D01*
X57219Y51022D01*
X57219Y50922D01*
X57020Y50722D01*
X56622Y50722D01*
X56721Y50722D02*
X57219Y50222D01*
X58115Y50622D02*
X57518Y50622D01*
X58015Y51222D01*
X58015Y50222D01*
X57916Y50222D02*
X58115Y50222D01*
X70696Y55472D02*
X69696Y55472D01*
X69696Y55870D01*
X69896Y56069D01*
X69996Y56069D01*
X70196Y55870D01*
X70196Y55472D01*
X70196Y55571D02*
X70696Y56069D01*
X69896Y56368D02*
X69696Y56567D01*
X69696Y56766D01*
X69896Y56965D01*
X69996Y56965D01*
X70696Y56368D01*
X70696Y56965D01*
X70596Y56965D01*
X70696Y57264D02*
X70696Y57662D01*
X70496Y57861D01*
X70396Y57861D01*
X70196Y57662D01*
X69996Y57861D01*
X69896Y57861D01*
X69696Y57662D01*
X69696Y57363D01*
X69696Y57264D01*
X70196Y57363D02*
X70196Y57662D01*
X69696Y57363D02*
X70696Y57363D01*
X70696Y58160D02*
X69696Y58160D01*
X70196Y58458D01*
X69696Y58757D01*
X70696Y58757D01*
X70296Y59653D02*
X70296Y59056D01*
X69696Y59553D01*
X70696Y59553D01*
X70696Y59454D02*
X70696Y59653D01*
X76792Y55504D02*
X75792Y55504D01*
X75792Y55902D01*
X75992Y56101D01*
X76092Y56101D01*
X76292Y55902D01*
X76292Y55504D01*
X76292Y55603D02*
X76792Y56101D01*
X75992Y56499D02*
X75792Y56698D01*
X76792Y56698D01*
X76792Y56400D02*
X76792Y56997D01*
X76792Y57296D02*
X76792Y57694D01*
X76592Y57893D01*
X76492Y57893D01*
X76292Y57694D01*
X76092Y57893D01*
X75992Y57893D01*
X75792Y57694D01*
X75792Y57395D01*
X75792Y57296D01*
X76292Y57395D02*
X76292Y57694D01*
X75792Y57395D02*
X76792Y57395D01*
X76792Y58192D02*
X75792Y58192D01*
X76292Y58490D01*
X75792Y58789D01*
X76792Y58789D01*
X76392Y59685D02*
X76392Y59088D01*
X75792Y59585D01*
X76792Y59585D01*
X76792Y59486D02*
X76792Y59685D01*
X38262Y56440D02*
X38262Y57440D01*
X38660Y57440D01*
X38859Y57240D01*
X38859Y57140D01*
X38660Y56940D01*
X38262Y56940D01*
X38361Y56940D02*
X38859Y56440D01*
X39257Y57240D02*
X39456Y57440D01*
X39456Y56440D01*
X39158Y56440D02*
X39755Y56440D01*
X40054Y56440D02*
X40054Y57040D01*
X40253Y57440D01*
X40452Y57440D01*
X40651Y57040D01*
X40651Y56440D01*
X40054Y56740D02*
X40651Y56740D01*
X40950Y56440D02*
X40950Y57440D01*
X41248Y56940D01*
X41547Y57440D01*
X41547Y56440D01*
X42443Y56840D02*
X41846Y56840D01*
X42343Y57440D01*
X42343Y56440D01*
X42244Y56440D02*
X42443Y56440D01*
X-18442Y60098D02*
X-18442Y59298D01*
X-18243Y59098D01*
X-18044Y59098D01*
X-17845Y59298D01*
X-17845Y60098D01*
X-17447Y59898D02*
X-17248Y60098D01*
X-17248Y59098D01*
X-17546Y59098D02*
X-16949Y59098D01*
X-16650Y59098D02*
X-16650Y60098D01*
X-16352Y59598D01*
X-16053Y60098D01*
X-16053Y59098D01*
X-15655Y59998D02*
X-15555Y60098D01*
X-15356Y60098D01*
X-15157Y59898D01*
X-15157Y59698D01*
X-15257Y59598D01*
X-15157Y59498D01*
X-15157Y59298D01*
X-15356Y59098D01*
X-15555Y59098D01*
X-15655Y59198D01*
X-15555Y59598D02*
X-15257Y59598D01*
X34644Y60352D02*
X34644Y59552D01*
X34843Y59352D01*
X35042Y59352D01*
X35241Y59552D01*
X35241Y60352D01*
X35639Y60152D02*
X35838Y60352D01*
X35838Y59352D01*
X35540Y59352D02*
X36137Y59352D01*
X36436Y59352D02*
X36436Y60352D01*
X36734Y59852D01*
X37033Y60352D01*
X37033Y59352D01*
X37929Y59752D02*
X37332Y59752D01*
X37829Y60352D01*
X37829Y59352D01*
X37730Y59352D02*
X37929Y59352D01*
X-19712Y105056D02*
X-19712Y104256D01*
X-19513Y104056D01*
X-19314Y104056D01*
X-19115Y104256D01*
X-19115Y105056D01*
X-18717Y104856D02*
X-18518Y105056D01*
X-18518Y104056D01*
X-18816Y104056D02*
X-18219Y104056D01*
X-17920Y104056D02*
X-17920Y105056D01*
X-17622Y104556D01*
X-17323Y105056D01*
X-17323Y104056D01*
X-16925Y104856D02*
X-16726Y105056D01*
X-16726Y104056D01*
X-17024Y104056D02*
X-16427Y104056D01*
X33882Y105310D02*
X33882Y104510D01*
X34081Y104310D01*
X34280Y104310D01*
X34479Y104510D01*
X34479Y105310D01*
X34877Y105110D02*
X35076Y105310D01*
X35076Y104310D01*
X34778Y104310D02*
X35375Y104310D01*
X35674Y104310D02*
X35674Y105310D01*
X35972Y104810D01*
X36271Y105310D01*
X36271Y104310D01*
X36570Y105110D02*
X36769Y105310D01*
X36968Y105310D01*
X37167Y105110D01*
X37167Y105010D01*
X36570Y104310D01*
X37167Y104310D01*
X37167Y104410D01*
X8990Y94588D02*
X9790Y94588D01*
X9990Y94787D01*
X9990Y94986D01*
X9790Y95185D01*
X8990Y95185D01*
X9190Y95484D02*
X8990Y95683D01*
X8990Y95882D01*
X9190Y96081D01*
X9290Y96081D01*
X9990Y95484D01*
X9990Y96081D01*
X9890Y96081D01*
X9990Y96380D02*
X8990Y96380D01*
X9490Y96678D01*
X8990Y96977D01*
X9990Y96977D01*
X9190Y97375D02*
X8990Y97574D01*
X9990Y97574D01*
X9990Y97276D02*
X9990Y97873D01*
X61314Y94842D02*
X62114Y94842D01*
X62314Y95041D01*
X62314Y95240D01*
X62114Y95439D01*
X61314Y95439D01*
X61514Y95738D02*
X61314Y95937D01*
X61314Y96136D01*
X61514Y96335D01*
X61614Y96335D01*
X62314Y95738D01*
X62314Y96335D01*
X62214Y96335D01*
X62314Y96634D02*
X61314Y96634D01*
X61814Y96932D01*
X61314Y97231D01*
X62314Y97231D01*
X61514Y97530D02*
X61314Y97729D01*
X61314Y97928D01*
X61514Y98127D01*
X61614Y98127D01*
X62314Y97530D01*
X62314Y98127D01*
X62214Y98127D01*
X8228Y52932D02*
X9028Y52932D01*
X9228Y53131D01*
X9228Y53330D01*
X9028Y53529D01*
X8228Y53529D01*
X8428Y53828D02*
X8228Y54027D01*
X8228Y54226D01*
X8428Y54425D01*
X8528Y54425D01*
X9228Y53828D01*
X9228Y54425D01*
X9128Y54425D01*
X9228Y54724D02*
X8228Y54724D01*
X8728Y55022D01*
X8228Y55321D01*
X9228Y55321D01*
X8328Y55719D02*
X8228Y55819D01*
X8228Y56018D01*
X8428Y56217D01*
X8628Y56217D01*
X8728Y56117D01*
X8828Y56217D01*
X9028Y56217D01*
X9228Y56018D01*
X9228Y55819D01*
X9128Y55719D01*
X8728Y55819D02*
X8728Y56117D01*
X61060Y53694D02*
X61860Y53694D01*
X62060Y53893D01*
X62060Y54092D01*
X61860Y54291D01*
X61060Y54291D01*
X61260Y54590D02*
X61060Y54789D01*
X61060Y54988D01*
X61260Y55187D01*
X61360Y55187D01*
X62060Y54590D01*
X62060Y55187D01*
X61960Y55187D01*
X62060Y55486D02*
X61060Y55486D01*
X61560Y55784D01*
X61060Y56083D01*
X62060Y56083D01*
X61660Y56979D02*
X61660Y56382D01*
X61060Y56879D01*
X62060Y56879D01*
X62060Y56780D02*
X62060Y56979D01*
G54D13*
X-18897Y84680D02*
X-8027Y84680D01*
X-8027Y77880D01*
X-18897Y77880D01*
X-18897Y84680D01*
X-448Y81248D02*
X9052Y81248D01*
X9052Y77248D01*
X-448Y77248D01*
X-448Y81248D01*
X-1948Y79248D02*
X-448Y79248D01*
X9052Y79248D02*
X10552Y79248D01*
X9084Y82328D02*
X-416Y82328D01*
X-416Y86328D01*
X9084Y86328D01*
X9084Y82328D01*
X10584Y84328D02*
X9084Y84328D01*
X-416Y84328D02*
X-1916Y84328D01*
X-8188Y89440D02*
X-17688Y89440D01*
X-17688Y93440D01*
X-8188Y93440D01*
X-8188Y89440D01*
X-6688Y91440D02*
X-8188Y91440D01*
X-17688Y91440D02*
X-19188Y91440D01*
X-609Y98396D02*
X5181Y98396D01*
X5181Y91596D01*
X-609Y91596D01*
X-609Y98396D01*
X-8188Y94520D02*
X-17688Y94520D01*
X-17688Y98520D01*
X-8188Y98520D01*
X-8188Y94520D01*
X-6688Y96520D02*
X-8188Y96520D01*
X-17688Y96520D02*
X-19188Y96520D01*
X21304Y88332D02*
X17304Y88332D01*
X17304Y78832D01*
X21304Y78832D01*
X21304Y88332D01*
X19304Y89832D02*
X19304Y88332D01*
X19304Y78832D02*
X19304Y77332D01*
X24416Y78800D02*
X28416Y78800D01*
X28416Y88300D01*
X24416Y88300D01*
X24416Y78800D01*
X26416Y77300D02*
X26416Y78800D01*
X26416Y88300D02*
X26416Y89800D01*
X17304Y97088D02*
X21304Y97088D01*
X21304Y106588D01*
X17304Y106588D01*
X17304Y97088D01*
X19304Y95588D02*
X19304Y97088D01*
X19304Y106588D02*
X19304Y108088D01*
X28416Y106620D02*
X24416Y106620D01*
X24416Y97120D01*
X28416Y97120D01*
X28416Y106620D01*
X26416Y108120D02*
X26416Y106620D01*
X26416Y97120D02*
X26416Y95620D01*
X45660Y89948D02*
X36160Y89948D01*
X36160Y93948D01*
X45660Y93948D01*
X45660Y89948D01*
X47160Y91948D02*
X45660Y91948D01*
X36160Y91948D02*
X34660Y91948D01*
X52223Y98904D02*
X58013Y98904D01*
X58013Y92104D01*
X52223Y92104D01*
X52223Y98904D01*
X45660Y95028D02*
X36160Y95028D01*
X36160Y99028D01*
X45660Y99028D01*
X45660Y95028D01*
X47160Y97028D02*
X45660Y97028D01*
X36160Y97028D02*
X34660Y97028D01*
X61968Y114220D02*
X66440Y114220D01*
X66440Y104250D01*
X61968Y104250D01*
X61968Y114220D01*
X53400Y81756D02*
X62900Y81756D01*
X62900Y77756D01*
X53400Y77756D01*
X53400Y81756D01*
X51900Y79756D02*
X53400Y79756D01*
X62900Y79756D02*
X64400Y79756D01*
X62932Y82836D02*
X53432Y82836D01*
X53432Y86836D01*
X62932Y86836D01*
X62932Y82836D01*
X64432Y84836D02*
X62932Y84836D01*
X53432Y84836D02*
X51932Y84836D01*
X73628Y88808D02*
X69628Y88808D01*
X69628Y79308D01*
X73628Y79308D01*
X73628Y88808D01*
X71628Y90308D02*
X71628Y88808D01*
X71628Y79308D02*
X71628Y77808D01*
X77248Y79308D02*
X81248Y79308D01*
X81248Y88808D01*
X77248Y88808D01*
X77248Y79308D01*
X79248Y77808D02*
X79248Y79308D01*
X79248Y88808D02*
X79248Y90308D01*
X69628Y97088D02*
X73628Y97088D01*
X73628Y106588D01*
X69628Y106588D01*
X69628Y97088D01*
X71628Y95588D02*
X71628Y97088D01*
X71628Y106588D02*
X71628Y108088D01*
X81248Y106620D02*
X77248Y106620D01*
X77248Y97120D01*
X81248Y97120D01*
X81248Y106620D01*
X79248Y108120D02*
X79248Y106620D01*
X79248Y97120D02*
X79248Y95620D01*
X-448Y38576D02*
X9052Y38576D01*
X9052Y34576D01*
X-448Y34576D01*
X-448Y38576D01*
X-1948Y36576D02*
X-448Y36576D01*
X9052Y36576D02*
X10552Y36576D01*
X20796Y43628D02*
X16796Y43628D01*
X16796Y34128D01*
X20796Y34128D01*
X20796Y43628D01*
X18796Y45128D02*
X18796Y43628D01*
X18796Y34128D02*
X18796Y32628D01*
X23400Y34096D02*
X27400Y34096D01*
X27400Y43596D01*
X23400Y43596D01*
X23400Y34096D01*
X25400Y32596D02*
X25400Y34096D01*
X25400Y43596D02*
X25400Y45096D01*
X9084Y39656D02*
X-416Y39656D01*
X-416Y43656D01*
X9084Y43656D01*
X9084Y39656D01*
X10584Y41656D02*
X9084Y41656D01*
X-416Y41656D02*
X-1916Y41656D01*
X-7680Y46768D02*
X-17180Y46768D01*
X-17180Y50768D01*
X-7680Y50768D01*
X-7680Y46768D01*
X-6180Y48768D02*
X-7680Y48768D01*
X-17180Y48768D02*
X-18680Y48768D01*
X16796Y51876D02*
X20796Y51876D01*
X20796Y61376D01*
X16796Y61376D01*
X16796Y51876D01*
X18796Y50376D02*
X18796Y51876D01*
X18796Y61376D02*
X18796Y62876D01*
X27400Y61408D02*
X23400Y61408D01*
X23400Y51908D01*
X27400Y51908D01*
X27400Y61408D01*
X25400Y62908D02*
X25400Y61408D01*
X25400Y51908D02*
X25400Y50408D01*
X-1625Y58772D02*
X4165Y58772D01*
X4165Y51972D01*
X-1625Y51972D01*
X-1625Y58772D01*
X-7680Y51848D02*
X-17180Y51848D01*
X-17180Y55848D01*
X-7680Y55848D01*
X-7680Y51848D01*
X-6180Y53848D02*
X-7680Y53848D01*
X-17180Y53848D02*
X-18680Y53848D01*
X75152Y44612D02*
X71152Y44612D01*
X71152Y35112D01*
X75152Y35112D01*
X75152Y44612D01*
X73152Y46112D02*
X73152Y44612D01*
X73152Y35112D02*
X73152Y33612D01*
X77248Y35112D02*
X81248Y35112D01*
X81248Y44612D01*
X77248Y44612D01*
X77248Y35112D01*
X79248Y33612D02*
X79248Y35112D01*
X79248Y44612D02*
X79248Y46112D01*
X52892Y40100D02*
X62392Y40100D01*
X62392Y36100D01*
X52892Y36100D01*
X52892Y40100D01*
X51392Y38100D02*
X52892Y38100D01*
X62392Y38100D02*
X63892Y38100D01*
X62424Y41180D02*
X52924Y41180D01*
X52924Y45180D01*
X62424Y45180D01*
X62424Y41180D01*
X63924Y43180D02*
X62424Y43180D01*
X52924Y43180D02*
X51424Y43180D01*
X45152Y46260D02*
X35652Y46260D01*
X35652Y50260D01*
X45152Y50260D01*
X45152Y46260D01*
X46652Y48260D02*
X45152Y48260D01*
X35652Y48260D02*
X34152Y48260D01*
X52731Y58772D02*
X58521Y58772D01*
X58521Y51972D01*
X52731Y51972D01*
X52731Y58772D01*
X71152Y52384D02*
X75152Y52384D01*
X75152Y61884D01*
X71152Y61884D01*
X71152Y52384D01*
X73152Y50884D02*
X73152Y52384D01*
X73152Y61884D02*
X73152Y63384D01*
X81248Y61916D02*
X77248Y61916D01*
X77248Y52416D01*
X81248Y52416D01*
X81248Y61916D01*
X79248Y63416D02*
X79248Y61916D01*
X79248Y52416D02*
X79248Y50916D01*
X45152Y51340D02*
X35652Y51340D01*
X35652Y55340D01*
X45152Y55340D01*
X45152Y51340D01*
X46652Y53340D02*
X45152Y53340D01*
X35652Y53340D02*
X34152Y53340D01*
X63494Y66548D02*
G75*
D01*
G02X63494Y66548I2800J0*
G01*
X63894Y68698D02*
X64194Y68398D01*
X64144Y68948D02*
X64444Y68648D01*
X64144Y68948D02*
X63894Y68698D01*
X-18522Y63984D02*
X-18772Y63984D01*
X-18772Y63734D01*
X-16022Y63984D02*
X-15772Y63984D01*
X-15772Y63734D01*
X-18522Y60984D02*
X-18772Y60984D01*
X-18772Y61234D01*
X-16022Y60984D02*
X-15772Y60984D01*
X-15772Y61234D01*
X-12706Y65532D02*
G75*
D01*
G02X-12706Y65532I2800J0*
G01*
X-12306Y67682D02*
X-12006Y67382D01*
X-12056Y67932D02*
X-11756Y67632D01*
X-12056Y67932D02*
X-12306Y67682D01*
X8630Y65532D02*
G75*
D01*
G02X8630Y65532I2800J0*
G01*
X9030Y67682D02*
X9330Y67382D01*
X9280Y67932D02*
X9580Y67632D01*
X9280Y67932D02*
X9030Y67682D01*
X34818Y63984D02*
X34568Y63984D01*
X34568Y63734D01*
X37318Y63984D02*
X37568Y63984D01*
X37568Y63734D01*
X34818Y60984D02*
X34568Y60984D01*
X34568Y61234D01*
X37318Y60984D02*
X37568Y60984D01*
X37568Y61234D01*
X41142Y66548D02*
G75*
D01*
G02X41142Y66548I2800J0*
G01*
X41542Y68698D02*
X41842Y68398D01*
X41792Y68948D02*
X42092Y68648D01*
X41792Y68948D02*
X41542Y68698D01*
X-19538Y108688D02*
X-19788Y108688D01*
X-19788Y108438D01*
X-17038Y108688D02*
X-16788Y108688D01*
X-16788Y108438D01*
X-19538Y105688D02*
X-19788Y105688D01*
X-19788Y105938D01*
X-17038Y105688D02*
X-16788Y105688D01*
X-16788Y105938D01*
X55364Y114220D02*
X59836Y114220D01*
X59836Y104250D01*
X55364Y104250D01*
X55364Y114220D01*
X49268Y114220D02*
X53740Y114220D01*
X53740Y104250D01*
X49268Y104250D01*
X49268Y114220D01*
X43172Y114220D02*
X47644Y114220D01*
X47644Y104250D01*
X43172Y104250D01*
X43172Y114220D01*
X3040Y113712D02*
X7512Y113712D01*
X7512Y103742D01*
X3040Y103742D01*
X3040Y113712D01*
X9644Y113712D02*
X14116Y113712D01*
X14116Y103742D01*
X9644Y103742D01*
X9644Y113712D01*
X-3564Y113712D02*
X908Y113712D01*
X908Y103742D01*
X-3564Y103742D01*
X-3564Y113712D01*
X-10168Y113712D02*
X-5696Y113712D01*
X-5696Y103742D01*
X-10168Y103742D01*
X-10168Y113712D01*
X34310Y109196D02*
X34060Y109196D01*
X34060Y108946D01*
X36810Y109196D02*
X37060Y109196D01*
X37060Y108946D01*
X34310Y106196D02*
X34060Y106196D01*
X34060Y106446D01*
X36810Y106196D02*
X37060Y106196D01*
X37060Y106446D01*
X10942Y98020D02*
X10692Y98020D01*
X10692Y97770D01*
X13442Y98020D02*
X13692Y98020D01*
X13692Y97770D01*
X10942Y95020D02*
X10692Y95020D01*
X10692Y95270D01*
X13442Y95020D02*
X13692Y95020D01*
X13692Y95270D01*
X63266Y98020D02*
X63016Y98020D01*
X63016Y97770D01*
X65766Y98020D02*
X66016Y98020D01*
X66016Y97770D01*
X63266Y95020D02*
X63016Y95020D01*
X63016Y95270D01*
X65766Y95020D02*
X66016Y95020D01*
X66016Y95270D01*
X9926Y56872D02*
X9676Y56872D01*
X9676Y56622D01*
X12426Y56872D02*
X12676Y56872D01*
X12676Y56622D01*
X9926Y53872D02*
X9676Y53872D01*
X9676Y54122D01*
X12426Y53872D02*
X12676Y53872D01*
X12676Y54122D01*
X62758Y57380D02*
X62508Y57380D01*
X62508Y57130D01*
X65258Y57380D02*
X65508Y57380D01*
X65508Y57130D01*
X62758Y54380D02*
X62508Y54380D01*
X62508Y54630D01*
X65258Y54380D02*
X65508Y54380D01*
X65508Y54630D01*
G54D14*
X-22098Y116840D02*
X-21898Y116840D01*
X-21231Y116840D02*
X-21031Y116840D01*
X-20365Y116840D02*
X-20165Y116840D01*
X-19498Y116840D02*
X-19298Y116840D01*
X-18631Y116840D02*
X-18431Y116840D01*
X-17765Y116840D02*
X-17565Y116840D01*
X-16898Y116840D02*
X-16698Y116840D01*
X-16031Y116840D02*
X-15831Y116840D01*
X-15165Y116840D02*
X-14965Y116840D01*
X-14298Y116840D02*
X-14098Y116840D01*
X-13431Y116840D02*
X-13231Y116840D01*
X-12565Y116840D02*
X-12365Y116840D01*
X-11698Y116840D02*
X-11498Y116840D01*
X-10831Y116840D02*
X-10631Y116840D01*
X-9965Y116840D02*
X-9765Y116840D01*
X-9098Y116840D02*
X-8898Y116840D01*
X-8231Y116840D02*
X-8031Y116840D01*
X-7365Y116840D02*
X-7165Y116840D01*
X-6498Y116840D02*
X-6298Y116840D01*
X-5631Y116840D02*
X-5431Y116840D01*
X-4765Y116840D02*
X-4565Y116840D01*
X-3898Y116840D02*
X-3698Y116840D01*
X-3031Y116840D02*
X-2831Y116840D01*
X-2165Y116840D02*
X-1965Y116840D01*
X-1298Y116840D02*
X-1098Y116840D01*
X-431Y116840D02*
X-231Y116840D01*
X435Y116840D02*
X635Y116840D01*
X1302Y116840D02*
X1502Y116840D01*
X2169Y116840D02*
X2369Y116840D01*
X3035Y116840D02*
X3235Y116840D01*
X3902Y116840D02*
X4102Y116840D01*
X4769Y116840D02*
X4969Y116840D01*
X5635Y116840D02*
X5835Y116840D01*
X6502Y116840D02*
X6702Y116840D01*
X7369Y116840D02*
X7569Y116840D01*
X8235Y116840D02*
X8435Y116840D01*
X9102Y116840D02*
X9302Y116840D01*
X9969Y116840D02*
X10169Y116840D01*
X10835Y116840D02*
X11035Y116840D01*
X11702Y116840D02*
X11902Y116840D01*
X12569Y116840D02*
X12769Y116840D01*
X13435Y116840D02*
X13635Y116840D01*
X14302Y116840D02*
X14502Y116840D01*
X15169Y116840D02*
X15369Y116840D01*
X16035Y116840D02*
X16235Y116840D01*
X16902Y116840D02*
X17102Y116840D01*
X17769Y116840D02*
X17969Y116840D01*
X18635Y116840D02*
X18835Y116840D01*
X19502Y116840D02*
X19702Y116840D01*
X20369Y116840D02*
X20569Y116840D01*
X21235Y116840D02*
X21435Y116840D01*
X22102Y116840D02*
X22302Y116840D01*
X22969Y116840D02*
X23169Y116840D01*
X23835Y116840D02*
X24035Y116840D01*
X24702Y116840D02*
X24902Y116840D01*
X25569Y116840D02*
X25769Y116840D01*
X26435Y116840D02*
X26635Y116840D01*
X27302Y116840D02*
X27502Y116840D01*
X28169Y116840D02*
X28369Y116840D01*
X29035Y116840D02*
X29235Y116840D01*
X29466Y116404D02*
X29466Y116204D01*
X29466Y115538D02*
X29466Y115338D01*
X29466Y114671D02*
X29466Y114471D01*
X29466Y113804D02*
X29466Y113604D01*
X29466Y112938D02*
X29466Y112738D01*
X29466Y112071D02*
X29466Y111871D01*
X29466Y111204D02*
X29466Y111004D01*
X29466Y110338D02*
X29466Y110138D01*
X29466Y109471D02*
X29466Y109271D01*
X29466Y108604D02*
X29466Y108404D01*
X29466Y107738D02*
X29466Y107538D01*
X29466Y106871D02*
X29466Y106671D01*
X29466Y106004D02*
X29466Y105804D01*
X29466Y105138D02*
X29466Y104938D01*
X29466Y104271D02*
X29466Y104071D01*
X29466Y103404D02*
X29466Y103204D01*
X29466Y102538D02*
X29466Y102338D01*
X29466Y101671D02*
X29466Y101471D01*
X29466Y100804D02*
X29466Y100604D01*
X29466Y99938D02*
X29466Y99738D01*
X29466Y99071D02*
X29466Y98871D01*
X29466Y98204D02*
X29466Y98004D01*
X29466Y97338D02*
X29466Y97138D01*
X29466Y96471D02*
X29466Y96271D01*
X29466Y95604D02*
X29466Y95404D01*
X29466Y94738D02*
X29466Y94538D01*
X29466Y93871D02*
X29466Y93671D01*
X29466Y93004D02*
X29466Y92804D01*
X29466Y92138D02*
X29466Y91938D01*
X29466Y91271D02*
X29466Y91071D01*
X29466Y90404D02*
X29466Y90204D01*
X29466Y89538D02*
X29466Y89338D01*
X29466Y88671D02*
X29466Y88471D01*
X29466Y87804D02*
X29466Y87604D01*
X29466Y86938D02*
X29466Y86738D01*
X29466Y86071D02*
X29466Y85871D01*
X29466Y85204D02*
X29466Y85004D01*
X29466Y84338D02*
X29466Y84138D01*
X29466Y83471D02*
X29466Y83271D01*
X29466Y82604D02*
X29466Y82404D01*
X29466Y81738D02*
X29466Y81538D01*
X29466Y80871D02*
X29466Y80671D01*
X29466Y80004D02*
X29466Y79804D01*
X29466Y79138D02*
X29466Y78938D01*
X29466Y78271D02*
X29466Y78071D01*
X29466Y77404D02*
X29466Y77204D01*
X29466Y76538D02*
X29466Y76338D01*
X29466Y75671D02*
X29466Y75471D01*
X29466Y74804D02*
X29466Y74604D01*
X29237Y74167D02*
X29037Y74167D01*
X28370Y74167D02*
X28170Y74167D01*
X27503Y74167D02*
X27303Y74167D01*
X26637Y74167D02*
X26437Y74167D01*
X25770Y74167D02*
X25570Y74167D01*
X24903Y74167D02*
X24703Y74167D01*
X24037Y74167D02*
X23837Y74167D01*
X23170Y74167D02*
X22970Y74167D01*
X22303Y74167D02*
X22103Y74167D01*
X21437Y74167D02*
X21237Y74167D01*
X20570Y74167D02*
X20370Y74167D01*
X19703Y74167D02*
X19503Y74167D01*
X18837Y74167D02*
X18637Y74167D01*
X17970Y74167D02*
X17770Y74167D01*
X17103Y74167D02*
X16903Y74167D01*
X16237Y74167D02*
X16037Y74167D01*
X15370Y74167D02*
X15170Y74167D01*
X14503Y74167D02*
X14303Y74167D01*
X13637Y74167D02*
X13437Y74167D01*
X12770Y74167D02*
X12570Y74167D01*
X11903Y74167D02*
X11703Y74167D01*
X11037Y74167D02*
X10837Y74167D01*
X10170Y74167D02*
X9970Y74167D01*
X9303Y74167D02*
X9103Y74167D01*
X8437Y74167D02*
X8237Y74167D01*
X7570Y74167D02*
X7370Y74167D01*
X6703Y74167D02*
X6503Y74167D01*
X5837Y74167D02*
X5637Y74167D01*
X4970Y74167D02*
X4770Y74167D01*
X4103Y74167D02*
X3903Y74167D01*
X3237Y74167D02*
X3037Y74167D01*
X2370Y74167D02*
X2170Y74167D01*
X1503Y74167D02*
X1303Y74167D01*
X637Y74167D02*
X437Y74167D01*
X-230Y74167D02*
X-430Y74167D01*
X-1097Y74167D02*
X-1297Y74167D01*
X-1963Y74167D02*
X-2163Y74167D01*
X-2830Y74167D02*
X-3030Y74167D01*
X-3697Y74167D02*
X-3897Y74167D01*
X-4563Y74167D02*
X-4763Y74167D01*
X-5430Y74167D02*
X-5630Y74167D01*
X-6297Y74167D02*
X-6497Y74167D01*
X-7163Y74167D02*
X-7363Y74167D01*
X-8030Y74167D02*
X-8230Y74167D01*
X-8897Y74167D02*
X-9097Y74167D01*
X-9763Y74167D02*
X-9963Y74167D01*
X-10630Y74167D02*
X-10830Y74167D01*
X-11497Y74167D02*
X-11697Y74167D01*
X-12363Y74167D02*
X-12563Y74167D01*
X-13230Y74167D02*
X-13430Y74167D01*
X-14097Y74167D02*
X-14297Y74167D01*
X-14963Y74167D02*
X-15163Y74167D01*
X-15830Y74167D02*
X-16030Y74167D01*
X-16697Y74167D02*
X-16897Y74167D01*
X-17563Y74167D02*
X-17763Y74167D01*
X-18430Y74167D02*
X-18630Y74167D01*
X-19297Y74167D02*
X-19497Y74167D01*
X-20163Y74167D02*
X-20363Y74167D01*
X-21030Y74167D02*
X-21230Y74167D01*
X-21897Y74167D02*
X-22097Y74167D01*
X-22098Y74833D02*
X-22098Y75033D01*
X-22098Y75699D02*
X-22098Y75899D01*
X-22098Y76566D02*
X-22098Y76766D01*
X-22098Y77433D02*
X-22098Y77633D01*
X-22098Y78299D02*
X-22098Y78499D01*
X-22098Y79166D02*
X-22098Y79366D01*
X-22098Y80033D02*
X-22098Y80233D01*
X-22098Y80899D02*
X-22098Y81099D01*
X-22098Y81766D02*
X-22098Y81966D01*
X-22098Y82633D02*
X-22098Y82833D01*
X-22098Y83499D02*
X-22098Y83699D01*
X-22098Y84366D02*
X-22098Y84566D01*
X-22098Y85233D02*
X-22098Y85433D01*
X-22098Y86099D02*
X-22098Y86299D01*
X-22098Y86966D02*
X-22098Y87166D01*
X-22098Y87833D02*
X-22098Y88033D01*
X-22098Y88699D02*
X-22098Y88899D01*
X-22098Y89566D02*
X-22098Y89766D01*
X-22098Y90433D02*
X-22098Y90633D01*
X-22098Y91299D02*
X-22098Y91499D01*
X-22098Y92166D02*
X-22098Y92366D01*
X-22098Y93033D02*
X-22098Y93233D01*
X-22098Y93899D02*
X-22098Y94099D01*
X-22098Y94766D02*
X-22098Y94966D01*
X-22098Y95633D02*
X-22098Y95833D01*
X-22098Y96499D02*
X-22098Y96699D01*
X-22098Y97366D02*
X-22098Y97566D01*
X-22098Y98233D02*
X-22098Y98433D01*
X-22098Y99099D02*
X-22098Y99299D01*
X-22098Y99966D02*
X-22098Y100166D01*
X-22098Y100833D02*
X-22098Y101033D01*
X-22098Y101699D02*
X-22098Y101899D01*
X-22098Y102566D02*
X-22098Y102766D01*
X-22098Y103433D02*
X-22098Y103633D01*
X-22098Y104299D02*
X-22098Y104499D01*
X-22098Y105166D02*
X-22098Y105366D01*
X-22098Y106033D02*
X-22098Y106233D01*
X-22098Y106899D02*
X-22098Y107099D01*
X-22098Y107766D02*
X-22098Y107966D01*
X-22098Y108633D02*
X-22098Y108833D01*
X-22098Y109499D02*
X-22098Y109699D01*
X-22098Y110366D02*
X-22098Y110566D01*
X-22098Y111233D02*
X-22098Y111433D01*
X-22098Y112099D02*
X-22098Y112299D01*
X-22098Y112966D02*
X-22098Y113166D01*
X-22098Y113833D02*
X-22098Y114033D01*
X-22098Y114699D02*
X-22098Y114899D01*
X-22098Y115566D02*
X-22098Y115766D01*
X-22098Y116433D02*
X-22098Y116633D01*
X30734Y116840D02*
X30934Y116840D01*
X31601Y116840D02*
X31801Y116840D01*
X32467Y116840D02*
X32667Y116840D01*
X33334Y116840D02*
X33534Y116840D01*
X34201Y116840D02*
X34401Y116840D01*
X35067Y116840D02*
X35267Y116840D01*
X35934Y116840D02*
X36134Y116840D01*
X36801Y116840D02*
X37001Y116840D01*
X37667Y116840D02*
X37867Y116840D01*
X38534Y116840D02*
X38734Y116840D01*
X39401Y116840D02*
X39601Y116840D01*
X40267Y116840D02*
X40467Y116840D01*
X41134Y116840D02*
X41334Y116840D01*
X42001Y116840D02*
X42201Y116840D01*
X42867Y116840D02*
X43067Y116840D01*
X43734Y116840D02*
X43934Y116840D01*
X44601Y116840D02*
X44801Y116840D01*
X45467Y116840D02*
X45667Y116840D01*
X46334Y116840D02*
X46534Y116840D01*
X47201Y116840D02*
X47401Y116840D01*
X48067Y116840D02*
X48267Y116840D01*
X48934Y116840D02*
X49134Y116840D01*
X49801Y116840D02*
X50001Y116840D01*
X50667Y116840D02*
X50867Y116840D01*
X51534Y116840D02*
X51734Y116840D01*
X52401Y116840D02*
X52601Y116840D01*
X53267Y116840D02*
X53467Y116840D01*
X54134Y116840D02*
X54334Y116840D01*
X55001Y116840D02*
X55201Y116840D01*
X55867Y116840D02*
X56067Y116840D01*
X56734Y116840D02*
X56934Y116840D01*
X57601Y116840D02*
X57801Y116840D01*
X58467Y116840D02*
X58667Y116840D01*
X59334Y116840D02*
X59534Y116840D01*
X60201Y116840D02*
X60401Y116840D01*
X61067Y116840D02*
X61267Y116840D01*
X61934Y116840D02*
X62134Y116840D01*
X62801Y116840D02*
X63001Y116840D01*
X63667Y116840D02*
X63867Y116840D01*
X64534Y116840D02*
X64734Y116840D01*
X65401Y116840D02*
X65601Y116840D01*
X66267Y116840D02*
X66467Y116840D01*
X67134Y116840D02*
X67334Y116840D01*
X68001Y116840D02*
X68201Y116840D01*
X68867Y116840D02*
X69067Y116840D01*
X69734Y116840D02*
X69934Y116840D01*
X70601Y116840D02*
X70801Y116840D01*
X71467Y116840D02*
X71667Y116840D01*
X72334Y116840D02*
X72534Y116840D01*
X73201Y116840D02*
X73401Y116840D01*
X74067Y116840D02*
X74267Y116840D01*
X74934Y116840D02*
X75134Y116840D01*
X75801Y116840D02*
X76001Y116840D01*
X76667Y116840D02*
X76867Y116840D01*
X77534Y116840D02*
X77734Y116840D01*
X78401Y116840D02*
X78601Y116840D01*
X79267Y116840D02*
X79467Y116840D01*
X80134Y116840D02*
X80334Y116840D01*
X81001Y116840D02*
X81201Y116840D01*
X81867Y116840D02*
X82067Y116840D01*
X82297Y116403D02*
X82297Y116203D01*
X82297Y115536D02*
X82297Y115336D01*
X82297Y114669D02*
X82297Y114469D01*
X82297Y113803D02*
X82297Y113603D01*
X82297Y112936D02*
X82297Y112736D01*
X82297Y112069D02*
X82297Y111869D01*
X82297Y111203D02*
X82297Y111003D01*
X82297Y110336D02*
X82297Y110136D01*
X82297Y109469D02*
X82297Y109269D01*
X82297Y108603D02*
X82297Y108403D01*
X82297Y107736D02*
X82297Y107536D01*
X82297Y106869D02*
X82297Y106669D01*
X82297Y106003D02*
X82297Y105803D01*
X82297Y105136D02*
X82297Y104936D01*
X82297Y104269D02*
X82297Y104069D01*
X82297Y103403D02*
X82297Y103203D01*
X82297Y102536D02*
X82297Y102336D01*
X82297Y101669D02*
X82297Y101469D01*
X82297Y100803D02*
X82297Y100603D01*
X82297Y99936D02*
X82297Y99736D01*
X82297Y99069D02*
X82297Y98869D01*
X82297Y98203D02*
X82297Y98003D01*
X82297Y97336D02*
X82297Y97136D01*
X82297Y96469D02*
X82297Y96269D01*
X82297Y95603D02*
X82297Y95403D01*
X82297Y94736D02*
X82297Y94536D01*
X82297Y93869D02*
X82297Y93669D01*
X82297Y93003D02*
X82297Y92803D01*
X82297Y92136D02*
X82297Y91936D01*
X82297Y91269D02*
X82297Y91069D01*
X82297Y90403D02*
X82297Y90203D01*
X82297Y89536D02*
X82297Y89336D01*
X82297Y88669D02*
X82297Y88469D01*
X82297Y87803D02*
X82297Y87603D01*
X82297Y86936D02*
X82297Y86736D01*
X82297Y86069D02*
X82297Y85869D01*
X82297Y85203D02*
X82297Y85003D01*
X82297Y84336D02*
X82297Y84136D01*
X82297Y83469D02*
X82297Y83269D01*
X82297Y82603D02*
X82297Y82403D01*
X82297Y81736D02*
X82297Y81536D01*
X82297Y80869D02*
X82297Y80669D01*
X82297Y80003D02*
X82297Y79803D01*
X82297Y79136D02*
X82297Y78936D01*
X82297Y78269D02*
X82297Y78069D01*
X82297Y77403D02*
X82297Y77203D01*
X82297Y76536D02*
X82297Y76336D01*
X82297Y75669D02*
X82297Y75469D01*
X82297Y74803D02*
X82297Y74603D01*
X82065Y74168D02*
X81865Y74168D01*
X81198Y74168D02*
X80998Y74168D01*
X80331Y74168D02*
X80131Y74168D01*
X79465Y74168D02*
X79265Y74168D01*
X78598Y74168D02*
X78398Y74168D01*
X77731Y74168D02*
X77531Y74168D01*
X76865Y74168D02*
X76665Y74168D01*
X75998Y74168D02*
X75798Y74168D01*
X75131Y74168D02*
X74931Y74168D01*
X74265Y74168D02*
X74065Y74168D01*
X73398Y74168D02*
X73198Y74168D01*
X72531Y74168D02*
X72331Y74168D01*
X71665Y74168D02*
X71465Y74168D01*
X70798Y74168D02*
X70598Y74168D01*
X69931Y74168D02*
X69731Y74168D01*
X69065Y74168D02*
X68865Y74168D01*
X68198Y74168D02*
X67998Y74168D01*
X67331Y74168D02*
X67131Y74168D01*
X66465Y74168D02*
X66265Y74168D01*
X65598Y74168D02*
X65398Y74168D01*
X64731Y74168D02*
X64531Y74168D01*
X63865Y74168D02*
X63665Y74168D01*
X62998Y74168D02*
X62798Y74168D01*
X62131Y74168D02*
X61931Y74168D01*
X61265Y74168D02*
X61065Y74168D01*
X60398Y74168D02*
X60198Y74168D01*
X59531Y74168D02*
X59331Y74168D01*
X58665Y74168D02*
X58465Y74168D01*
X57798Y74168D02*
X57598Y74168D01*
X56931Y74168D02*
X56731Y74168D01*
X56065Y74168D02*
X55865Y74168D01*
X55198Y74168D02*
X54998Y74168D01*
X54331Y74168D02*
X54131Y74168D01*
X53465Y74168D02*
X53265Y74168D01*
X52598Y74168D02*
X52398Y74168D01*
X51731Y74168D02*
X51531Y74168D01*
X50865Y74168D02*
X50665Y74168D01*
X49998Y74168D02*
X49798Y74168D01*
X49131Y74168D02*
X48931Y74168D01*
X48265Y74168D02*
X48065Y74168D01*
X47398Y74168D02*
X47198Y74168D01*
X46531Y74168D02*
X46331Y74168D01*
X45665Y74168D02*
X45465Y74168D01*
X44798Y74168D02*
X44598Y74168D01*
X43931Y74168D02*
X43731Y74168D01*
X43065Y74168D02*
X42865Y74168D01*
X42198Y74168D02*
X41998Y74168D01*
X41331Y74168D02*
X41131Y74168D01*
X40465Y74168D02*
X40265Y74168D01*
X39598Y74168D02*
X39398Y74168D01*
X38731Y74168D02*
X38531Y74168D01*
X37865Y74168D02*
X37665Y74168D01*
X36998Y74168D02*
X36798Y74168D01*
X36131Y74168D02*
X35931Y74168D01*
X35265Y74168D02*
X35065Y74168D01*
X34398Y74168D02*
X34198Y74168D01*
X33531Y74168D02*
X33331Y74168D01*
X32665Y74168D02*
X32465Y74168D01*
X31798Y74168D02*
X31598Y74168D01*
X30931Y74168D02*
X30734Y74168D01*
X30734Y74171D01*
X30734Y74837D02*
X30734Y75037D01*
X30734Y75704D02*
X30734Y75904D01*
X30734Y76571D02*
X30734Y76771D01*
X30734Y77437D02*
X30734Y77637D01*
X30734Y78304D02*
X30734Y78504D01*
X30734Y79171D02*
X30734Y79371D01*
X30734Y80037D02*
X30734Y80237D01*
X30734Y80904D02*
X30734Y81104D01*
X30734Y81771D02*
X30734Y81971D01*
X30734Y82637D02*
X30734Y82837D01*
X30734Y83504D02*
X30734Y83704D01*
X30734Y84371D02*
X30734Y84571D01*
X30734Y85237D02*
X30734Y85437D01*
X30734Y86104D02*
X30734Y86304D01*
X30734Y86971D02*
X30734Y87171D01*
X30734Y87837D02*
X30734Y88037D01*
X30734Y88704D02*
X30734Y88904D01*
X30734Y89571D02*
X30734Y89771D01*
X30734Y90437D02*
X30734Y90637D01*
X30734Y91304D02*
X30734Y91504D01*
X30734Y92171D02*
X30734Y92371D01*
X30734Y93037D02*
X30734Y93237D01*
X30734Y93904D02*
X30734Y94104D01*
X30734Y94771D02*
X30734Y94971D01*
X30734Y95637D02*
X30734Y95837D01*
X30734Y96504D02*
X30734Y96704D01*
X30734Y97371D02*
X30734Y97571D01*
X30734Y98237D02*
X30734Y98437D01*
X30734Y99104D02*
X30734Y99304D01*
X30734Y99971D02*
X30734Y100171D01*
X30734Y100837D02*
X30734Y101037D01*
X30734Y101704D02*
X30734Y101904D01*
X30734Y102571D02*
X30734Y102771D01*
X30734Y103437D02*
X30734Y103637D01*
X30734Y104304D02*
X30734Y104504D01*
X30734Y105171D02*
X30734Y105371D01*
X30734Y106037D02*
X30734Y106237D01*
X30734Y106904D02*
X30734Y107104D01*
X30734Y107771D02*
X30734Y107971D01*
X30734Y108637D02*
X30734Y108837D01*
X30734Y109504D02*
X30734Y109704D01*
X30734Y110371D02*
X30734Y110571D01*
X30734Y111237D02*
X30734Y111437D01*
X30734Y112104D02*
X30734Y112304D01*
X30734Y112971D02*
X30734Y113171D01*
X30734Y113837D02*
X30734Y114037D01*
X30734Y114704D02*
X30734Y114904D01*
X30734Y115571D02*
X30734Y115771D01*
X30734Y116437D02*
X30734Y116637D01*
X-22100Y72644D02*
X-21900Y72644D01*
X-21234Y72644D02*
X-21034Y72644D01*
X-20367Y72644D02*
X-20167Y72644D01*
X-19500Y72644D02*
X-19300Y72644D01*
X-18634Y72644D02*
X-18434Y72644D01*
X-17767Y72644D02*
X-17567Y72644D01*
X-16900Y72644D02*
X-16700Y72644D01*
X-16034Y72644D02*
X-15834Y72644D01*
X-15167Y72644D02*
X-14967Y72644D01*
X-14300Y72644D02*
X-14100Y72644D01*
X-13434Y72644D02*
X-13234Y72644D01*
X-12567Y72644D02*
X-12367Y72644D01*
X-11700Y72644D02*
X-11500Y72644D01*
X-10834Y72644D02*
X-10634Y72644D01*
X-9967Y72644D02*
X-9767Y72644D01*
X-9100Y72644D02*
X-8900Y72644D01*
X-8234Y72644D02*
X-8034Y72644D01*
X-7367Y72644D02*
X-7167Y72644D01*
X-6500Y72644D02*
X-6300Y72644D01*
X-5634Y72644D02*
X-5434Y72644D01*
X-4767Y72644D02*
X-4567Y72644D01*
X-3900Y72644D02*
X-3700Y72644D01*
X-3034Y72644D02*
X-2834Y72644D01*
X-2167Y72644D02*
X-1967Y72644D01*
X-1300Y72644D02*
X-1100Y72644D01*
X-434Y72644D02*
X-234Y72644D01*
X433Y72644D02*
X633Y72644D01*
X1300Y72644D02*
X1500Y72644D01*
X2166Y72644D02*
X2366Y72644D01*
X3033Y72644D02*
X3233Y72644D01*
X3900Y72644D02*
X4100Y72644D01*
X4766Y72644D02*
X4966Y72644D01*
X5633Y72644D02*
X5833Y72644D01*
X6500Y72644D02*
X6700Y72644D01*
X7366Y72644D02*
X7566Y72644D01*
X8233Y72644D02*
X8433Y72644D01*
X9100Y72644D02*
X9300Y72644D01*
X9966Y72644D02*
X10166Y72644D01*
X10833Y72644D02*
X11033Y72644D01*
X11700Y72644D02*
X11900Y72644D01*
X12566Y72644D02*
X12766Y72644D01*
X13433Y72644D02*
X13633Y72644D01*
X14300Y72644D02*
X14500Y72644D01*
X15166Y72644D02*
X15366Y72644D01*
X16033Y72644D02*
X16233Y72644D01*
X16900Y72644D02*
X17100Y72644D01*
X17766Y72644D02*
X17966Y72644D01*
X18633Y72644D02*
X18833Y72644D01*
X19500Y72644D02*
X19700Y72644D01*
X20366Y72644D02*
X20566Y72644D01*
X21233Y72644D02*
X21433Y72644D01*
X22100Y72644D02*
X22300Y72644D01*
X22966Y72644D02*
X23166Y72644D01*
X23833Y72644D02*
X24033Y72644D01*
X24700Y72644D02*
X24900Y72644D01*
X25566Y72644D02*
X25766Y72644D01*
X26433Y72644D02*
X26633Y72644D01*
X27300Y72644D02*
X27500Y72644D01*
X28166Y72644D02*
X28366Y72644D01*
X29033Y72644D02*
X29233Y72644D01*
X29464Y72208D02*
X29464Y72008D01*
X29464Y71342D02*
X29464Y71142D01*
X29464Y70475D02*
X29464Y70275D01*
X29464Y69608D02*
X29464Y69408D01*
X29464Y68742D02*
X29464Y68542D01*
X29464Y67875D02*
X29464Y67675D01*
X29464Y67008D02*
X29464Y66808D01*
X29464Y66142D02*
X29464Y65942D01*
X29464Y65275D02*
X29464Y65075D01*
X29464Y64408D02*
X29464Y64208D01*
X29464Y63542D02*
X29464Y63342D01*
X29464Y62675D02*
X29464Y62475D01*
X29464Y61808D02*
X29464Y61608D01*
X29464Y60942D02*
X29464Y60742D01*
X29464Y60075D02*
X29464Y59875D01*
X29464Y59208D02*
X29464Y59008D01*
X29464Y58342D02*
X29464Y58142D01*
X29464Y57475D02*
X29464Y57275D01*
X29464Y56608D02*
X29464Y56408D01*
X29464Y55742D02*
X29464Y55542D01*
X29464Y54875D02*
X29464Y54675D01*
X29464Y54008D02*
X29464Y53808D01*
X29464Y53142D02*
X29464Y52942D01*
X29464Y52275D02*
X29464Y52075D01*
X29464Y51408D02*
X29464Y51208D01*
X29464Y50542D02*
X29464Y50342D01*
X29464Y49675D02*
X29464Y49475D01*
X29464Y48808D02*
X29464Y48608D01*
X29464Y47942D02*
X29464Y47742D01*
X29464Y47075D02*
X29464Y46875D01*
X29464Y46208D02*
X29464Y46008D01*
X29464Y45342D02*
X29464Y45142D01*
X29464Y44475D02*
X29464Y44275D01*
X29464Y43608D02*
X29464Y43408D01*
X29464Y42742D02*
X29464Y42542D01*
X29464Y41875D02*
X29464Y41675D01*
X29464Y41008D02*
X29464Y40808D01*
X29464Y40142D02*
X29464Y39942D01*
X29464Y39275D02*
X29464Y39075D01*
X29464Y38408D02*
X29464Y38208D01*
X29464Y37542D02*
X29464Y37342D01*
X29464Y36675D02*
X29464Y36475D01*
X29464Y35808D02*
X29464Y35608D01*
X29464Y34942D02*
X29464Y34742D01*
X29464Y34075D02*
X29464Y33875D01*
X29464Y33208D02*
X29464Y33008D01*
X29464Y32342D02*
X29464Y32142D01*
X29464Y31475D02*
X29464Y31275D01*
X29464Y30608D02*
X29464Y30408D01*
X29234Y29971D02*
X29034Y29971D01*
X28368Y29971D02*
X28168Y29971D01*
X27501Y29971D02*
X27301Y29971D01*
X26634Y29971D02*
X26434Y29971D01*
X25768Y29971D02*
X25568Y29971D01*
X24901Y29971D02*
X24701Y29971D01*
X24034Y29971D02*
X23834Y29971D01*
X23168Y29971D02*
X22968Y29971D01*
X22301Y29971D02*
X22101Y29971D01*
X21434Y29971D02*
X21234Y29971D01*
X20568Y29971D02*
X20368Y29971D01*
X19701Y29971D02*
X19501Y29971D01*
X18834Y29971D02*
X18634Y29971D01*
X17968Y29971D02*
X17768Y29971D01*
X17101Y29971D02*
X16901Y29971D01*
X16234Y29971D02*
X16034Y29971D01*
X15368Y29971D02*
X15168Y29971D01*
X14501Y29971D02*
X14301Y29971D01*
X13634Y29971D02*
X13434Y29971D01*
X12768Y29971D02*
X12568Y29971D01*
X11901Y29971D02*
X11701Y29971D01*
X11034Y29971D02*
X10834Y29971D01*
X10168Y29971D02*
X9968Y29971D01*
X9301Y29971D02*
X9101Y29971D01*
X8434Y29971D02*
X8234Y29971D01*
X7568Y29971D02*
X7368Y29971D01*
X6701Y29971D02*
X6501Y29971D01*
X5834Y29971D02*
X5634Y29971D01*
X4968Y29971D02*
X4768Y29971D01*
X4101Y29971D02*
X3901Y29971D01*
X3234Y29971D02*
X3034Y29971D01*
X2368Y29971D02*
X2168Y29971D01*
X1501Y29971D02*
X1301Y29971D01*
X634Y29971D02*
X434Y29971D01*
X-232Y29971D02*
X-432Y29971D01*
X-1099Y29971D02*
X-1299Y29971D01*
X-1966Y29971D02*
X-2166Y29971D01*
X-2832Y29971D02*
X-3032Y29971D01*
X-3699Y29971D02*
X-3899Y29971D01*
X-4566Y29971D02*
X-4766Y29971D01*
X-5432Y29971D02*
X-5632Y29971D01*
X-6299Y29971D02*
X-6499Y29971D01*
X-7166Y29971D02*
X-7366Y29971D01*
X-8032Y29971D02*
X-8232Y29971D01*
X-8899Y29971D02*
X-9099Y29971D01*
X-9766Y29971D02*
X-9966Y29971D01*
X-10632Y29971D02*
X-10832Y29971D01*
X-11499Y29971D02*
X-11699Y29971D01*
X-12366Y29971D02*
X-12566Y29971D01*
X-13232Y29971D02*
X-13432Y29971D01*
X-14099Y29971D02*
X-14299Y29971D01*
X-14966Y29971D02*
X-15166Y29971D01*
X-15832Y29971D02*
X-16032Y29971D01*
X-16699Y29971D02*
X-16899Y29971D01*
X-17566Y29971D02*
X-17766Y29971D01*
X-18432Y29971D02*
X-18632Y29971D01*
X-19299Y29971D02*
X-19499Y29971D01*
X-20166Y29971D02*
X-20366Y29971D01*
X-21032Y29971D02*
X-21232Y29971D01*
X-21899Y29971D02*
X-22099Y29971D01*
X-22100Y30637D02*
X-22100Y30837D01*
X-22100Y31503D02*
X-22100Y31703D01*
X-22100Y32370D02*
X-22100Y32570D01*
X-22100Y33237D02*
X-22100Y33437D01*
X-22100Y34103D02*
X-22100Y34303D01*
X-22100Y34970D02*
X-22100Y35170D01*
X-22100Y35837D02*
X-22100Y36037D01*
X-22100Y36703D02*
X-22100Y36903D01*
X-22100Y37570D02*
X-22100Y37770D01*
X-22100Y38437D02*
X-22100Y38637D01*
X-22100Y39303D02*
X-22100Y39503D01*
X-22100Y40170D02*
X-22100Y40370D01*
X-22100Y41037D02*
X-22100Y41237D01*
X-22100Y41903D02*
X-22100Y42103D01*
X-22100Y42770D02*
X-22100Y42970D01*
X-22100Y43637D02*
X-22100Y43837D01*
X-22100Y44503D02*
X-22100Y44703D01*
X-22100Y45370D02*
X-22100Y45570D01*
X-22100Y46237D02*
X-22100Y46437D01*
X-22100Y47103D02*
X-22100Y47303D01*
X-22100Y47970D02*
X-22100Y48170D01*
X-22100Y48837D02*
X-22100Y49037D01*
X-22100Y49703D02*
X-22100Y49903D01*
X-22100Y50570D02*
X-22100Y50770D01*
X-22100Y51437D02*
X-22100Y51637D01*
X-22100Y52303D02*
X-22100Y52503D01*
X-22100Y53170D02*
X-22100Y53370D01*
X-22100Y54037D02*
X-22100Y54237D01*
X-22100Y54903D02*
X-22100Y55103D01*
X-22100Y55770D02*
X-22100Y55970D01*
X-22100Y56637D02*
X-22100Y56837D01*
X-22100Y57503D02*
X-22100Y57703D01*
X-22100Y58370D02*
X-22100Y58570D01*
X-22100Y59237D02*
X-22100Y59437D01*
X-22100Y60103D02*
X-22100Y60303D01*
X-22100Y60970D02*
X-22100Y61170D01*
X-22100Y61837D02*
X-22100Y62037D01*
X-22100Y62703D02*
X-22100Y62903D01*
X-22100Y63570D02*
X-22100Y63770D01*
X-22100Y64437D02*
X-22100Y64637D01*
X-22100Y65303D02*
X-22100Y65503D01*
X-22100Y66170D02*
X-22100Y66370D01*
X-22100Y67037D02*
X-22100Y67237D01*
X-22100Y67903D02*
X-22100Y68103D01*
X-22100Y68770D02*
X-22100Y68970D01*
X-22100Y69637D02*
X-22100Y69837D01*
X-22100Y70503D02*
X-22100Y70703D01*
X-22100Y71370D02*
X-22100Y71570D01*
X-22100Y72237D02*
X-22100Y72437D01*
X30986Y72644D02*
X31186Y72644D01*
X31852Y72644D02*
X32052Y72644D01*
X32719Y72644D02*
X32919Y72644D01*
X33586Y72644D02*
X33786Y72644D01*
X34452Y72644D02*
X34652Y72644D01*
X35319Y72644D02*
X35519Y72644D01*
X36186Y72644D02*
X36386Y72644D01*
X37052Y72644D02*
X37252Y72644D01*
X37919Y72644D02*
X38119Y72644D01*
X38786Y72644D02*
X38986Y72644D01*
X39652Y72644D02*
X39852Y72644D01*
X40519Y72644D02*
X40719Y72644D01*
X41386Y72644D02*
X41586Y72644D01*
X42252Y72644D02*
X42452Y72644D01*
X43119Y72644D02*
X43319Y72644D01*
X43986Y72644D02*
X44186Y72644D01*
X44852Y72644D02*
X45052Y72644D01*
X45719Y72644D02*
X45919Y72644D01*
X46586Y72644D02*
X46786Y72644D01*
X47452Y72644D02*
X47652Y72644D01*
X48319Y72644D02*
X48519Y72644D01*
X49186Y72644D02*
X49386Y72644D01*
X50052Y72644D02*
X50252Y72644D01*
X50919Y72644D02*
X51119Y72644D01*
X51786Y72644D02*
X51986Y72644D01*
X52652Y72644D02*
X52852Y72644D01*
X53519Y72644D02*
X53719Y72644D01*
X54386Y72644D02*
X54586Y72644D01*
X55252Y72644D02*
X55452Y72644D01*
X56119Y72644D02*
X56319Y72644D01*
X56986Y72644D02*
X57186Y72644D01*
X57852Y72644D02*
X58052Y72644D01*
X58719Y72644D02*
X58919Y72644D01*
X59586Y72644D02*
X59786Y72644D01*
X60452Y72644D02*
X60652Y72644D01*
X61319Y72644D02*
X61519Y72644D01*
X62186Y72644D02*
X62386Y72644D01*
X63052Y72644D02*
X63252Y72644D01*
X63919Y72644D02*
X64119Y72644D01*
X64786Y72644D02*
X64986Y72644D01*
X65652Y72644D02*
X65852Y72644D01*
X66519Y72644D02*
X66719Y72644D01*
X67386Y72644D02*
X67586Y72644D01*
X68252Y72644D02*
X68452Y72644D01*
X69119Y72644D02*
X69319Y72644D01*
X69986Y72644D02*
X70186Y72644D01*
X70852Y72644D02*
X71052Y72644D01*
X71719Y72644D02*
X71919Y72644D01*
X72586Y72644D02*
X72786Y72644D01*
X73452Y72644D02*
X73652Y72644D01*
X74319Y72644D02*
X74519Y72644D01*
X75186Y72644D02*
X75386Y72644D01*
X76052Y72644D02*
X76252Y72644D01*
X76919Y72644D02*
X77119Y72644D01*
X77786Y72644D02*
X77986Y72644D01*
X78652Y72644D02*
X78852Y72644D01*
X79519Y72644D02*
X79719Y72644D01*
X80386Y72644D02*
X80586Y72644D01*
X81252Y72644D02*
X81452Y72644D01*
X82119Y72644D02*
X82319Y72644D01*
X82550Y72208D02*
X82550Y72008D01*
X82550Y71342D02*
X82550Y71142D01*
X82550Y70475D02*
X82550Y70275D01*
X82550Y69608D02*
X82550Y69408D01*
X82550Y68742D02*
X82550Y68542D01*
X82550Y67875D02*
X82550Y67675D01*
X82550Y67008D02*
X82550Y66808D01*
X82550Y66142D02*
X82550Y65942D01*
X82550Y65275D02*
X82550Y65075D01*
X82550Y64408D02*
X82550Y64208D01*
X82550Y63542D02*
X82550Y63342D01*
X82550Y62675D02*
X82550Y62475D01*
X82550Y61808D02*
X82550Y61608D01*
X82550Y60942D02*
X82550Y60742D01*
X82550Y60075D02*
X82550Y59875D01*
X82550Y59208D02*
X82550Y59008D01*
X82550Y58342D02*
X82550Y58142D01*
X82550Y57475D02*
X82550Y57275D01*
X82550Y56608D02*
X82550Y56408D01*
X82550Y55742D02*
X82550Y55542D01*
X82550Y54875D02*
X82550Y54675D01*
X82550Y54008D02*
X82550Y53808D01*
X82550Y53142D02*
X82550Y52942D01*
X82550Y52275D02*
X82550Y52075D01*
X82550Y51408D02*
X82550Y51208D01*
X82550Y50542D02*
X82550Y50342D01*
X82550Y49675D02*
X82550Y49475D01*
X82550Y48808D02*
X82550Y48608D01*
X82550Y47942D02*
X82550Y47742D01*
X82550Y47075D02*
X82550Y46875D01*
X82550Y46208D02*
X82550Y46008D01*
X82550Y45342D02*
X82550Y45142D01*
X82550Y44475D02*
X82550Y44275D01*
X82550Y43608D02*
X82550Y43408D01*
X82550Y42742D02*
X82550Y42542D01*
X82550Y41875D02*
X82550Y41675D01*
X82550Y41008D02*
X82550Y40808D01*
X82550Y40142D02*
X82550Y39942D01*
X82550Y39275D02*
X82550Y39075D01*
X82550Y38408D02*
X82550Y38208D01*
X82550Y37542D02*
X82550Y37342D01*
X82550Y36675D02*
X82550Y36475D01*
X82550Y35808D02*
X82550Y35608D01*
X82550Y34942D02*
X82550Y34742D01*
X82550Y34075D02*
X82550Y33875D01*
X82550Y33208D02*
X82550Y33008D01*
X82550Y32342D02*
X82550Y32142D01*
X82550Y31475D02*
X82550Y31275D01*
X82550Y30608D02*
X82550Y30408D01*
X82320Y29972D02*
X82120Y29972D01*
X81453Y29972D02*
X81253Y29972D01*
X80586Y29972D02*
X80386Y29972D01*
X79720Y29972D02*
X79520Y29972D01*
X78853Y29972D02*
X78653Y29972D01*
X77986Y29972D02*
X77786Y29972D01*
X77120Y29972D02*
X76920Y29972D01*
X76253Y29972D02*
X76053Y29972D01*
X75386Y29972D02*
X75186Y29972D01*
X74520Y29972D02*
X74320Y29972D01*
X73653Y29972D02*
X73453Y29972D01*
X72786Y29972D02*
X72586Y29972D01*
X71920Y29972D02*
X71720Y29972D01*
X71053Y29972D02*
X70853Y29972D01*
X70186Y29972D02*
X69986Y29972D01*
X69320Y29972D02*
X69120Y29972D01*
X68453Y29972D02*
X68253Y29972D01*
X67586Y29972D02*
X67386Y29972D01*
X66720Y29972D02*
X66520Y29972D01*
X65853Y29972D02*
X65653Y29972D01*
X64986Y29972D02*
X64786Y29972D01*
X64120Y29972D02*
X63920Y29972D01*
X63253Y29972D02*
X63053Y29972D01*
X62386Y29972D02*
X62186Y29972D01*
X61520Y29972D02*
X61320Y29972D01*
X60653Y29972D02*
X60453Y29972D01*
X59786Y29972D02*
X59586Y29972D01*
X58920Y29972D02*
X58720Y29972D01*
X58053Y29972D02*
X57853Y29972D01*
X57186Y29972D02*
X56986Y29972D01*
X56320Y29972D02*
X56120Y29972D01*
X55453Y29972D02*
X55253Y29972D01*
X54586Y29972D02*
X54386Y29972D01*
X53720Y29972D02*
X53520Y29972D01*
X52853Y29972D02*
X52653Y29972D01*
X51986Y29972D02*
X51786Y29972D01*
X51120Y29972D02*
X50920Y29972D01*
X50253Y29972D02*
X50053Y29972D01*
X49386Y29972D02*
X49186Y29972D01*
X48520Y29972D02*
X48320Y29972D01*
X47653Y29972D02*
X47453Y29972D01*
X46786Y29972D02*
X46586Y29972D01*
X45920Y29972D02*
X45720Y29972D01*
X45053Y29972D02*
X44853Y29972D01*
X44186Y29972D02*
X43986Y29972D01*
X43320Y29972D02*
X43120Y29972D01*
X42453Y29972D02*
X42253Y29972D01*
X41586Y29972D02*
X41386Y29972D01*
X40720Y29972D02*
X40520Y29972D01*
X39853Y29972D02*
X39653Y29972D01*
X38986Y29972D02*
X38786Y29972D01*
X38120Y29972D02*
X37920Y29972D01*
X37253Y29972D02*
X37053Y29972D01*
X36386Y29972D02*
X36186Y29972D01*
X35520Y29972D02*
X35320Y29972D01*
X34653Y29972D02*
X34453Y29972D01*
X33786Y29972D02*
X33586Y29972D01*
X32920Y29972D02*
X32720Y29972D01*
X32053Y29972D02*
X31853Y29972D01*
X31186Y29972D02*
X30986Y29972D01*
X30986Y30638D02*
X30986Y30838D01*
X30986Y31505D02*
X30986Y31705D01*
X30986Y32371D02*
X30986Y32571D01*
X30986Y33238D02*
X30986Y33438D01*
X30986Y34105D02*
X30986Y34305D01*
X30986Y34971D02*
X30986Y35171D01*
X30986Y35838D02*
X30986Y36038D01*
X30986Y36705D02*
X30986Y36905D01*
X30986Y37571D02*
X30986Y37771D01*
X30986Y38438D02*
X30986Y38638D01*
X30986Y39305D02*
X30986Y39505D01*
X30986Y40171D02*
X30986Y40371D01*
X30986Y41038D02*
X30986Y41238D01*
X30986Y41905D02*
X30986Y42105D01*
X30986Y42771D02*
X30986Y42971D01*
X30986Y43638D02*
X30986Y43838D01*
X30986Y44505D02*
X30986Y44705D01*
X30986Y45371D02*
X30986Y45571D01*
X30986Y46238D02*
X30986Y46438D01*
X30986Y47105D02*
X30986Y47305D01*
X30986Y47971D02*
X30986Y48171D01*
X30986Y48838D02*
X30986Y49038D01*
X30986Y49705D02*
X30986Y49905D01*
X30986Y50571D02*
X30986Y50771D01*
X30986Y51438D02*
X30986Y51638D01*
X30986Y52305D02*
X30986Y52505D01*
X30986Y53171D02*
X30986Y53371D01*
X30986Y54038D02*
X30986Y54238D01*
X30986Y54905D02*
X30986Y55105D01*
X30986Y55771D02*
X30986Y55971D01*
X30986Y56638D02*
X30986Y56838D01*
X30986Y57505D02*
X30986Y57705D01*
X30986Y58371D02*
X30986Y58571D01*
X30986Y59238D02*
X30986Y59438D01*
X30986Y60105D02*
X30986Y60305D01*
X30986Y60971D02*
X30986Y61171D01*
X30986Y61838D02*
X30986Y62038D01*
X30986Y62705D02*
X30986Y62905D01*
X30986Y63571D02*
X30986Y63771D01*
X30986Y64438D02*
X30986Y64638D01*
X30986Y65305D02*
X30986Y65505D01*
X30986Y66171D02*
X30986Y66371D01*
X30986Y67038D02*
X30986Y67238D01*
X30986Y67905D02*
X30986Y68105D01*
X30986Y68771D02*
X30986Y68971D01*
X30986Y69638D02*
X30986Y69838D01*
X30986Y70505D02*
X30986Y70705D01*
X30986Y71371D02*
X30986Y71571D01*
X30986Y72238D02*
X30986Y72438D01*
X-16647Y64884D02*
G75*
D01*
G02X-16647Y64884I125J0*
G01*
X36693Y64884D02*
G75*
D01*
G02X36693Y64884I125J0*
G01*
X-17663Y109588D02*
G75*
D01*
G02X-17663Y109588I125J0*
G01*
X36185Y110096D02*
G75*
D01*
G02X36185Y110096I125J0*
G01*
X12817Y98920D02*
G75*
D01*
G02X12817Y98920I125J0*
G01*
X65141Y98920D02*
G75*
D01*
G02X65141Y98920I125J0*
G01*
X11801Y57772D02*
G75*
D01*
G02X11801Y57772I125J0*
G01*
X64633Y58280D02*
G75*
D01*
G02X64633Y58280I125J0*
G01*
G54D15*
X63125Y103215D02*
X63269Y103070D01*
X63414Y103070D01*
X63558Y103215D01*
X63558Y103650D01*
X63414Y103795D01*
X63269Y103795D01*
X63125Y103650D01*
X63125Y103215D01*
X63414Y103215D02*
X63558Y103070D01*
X63775Y103650D02*
X63919Y103795D01*
X64064Y103795D01*
X64208Y103650D01*
X64208Y103578D01*
X63775Y103070D01*
X64208Y103070D01*
X64208Y103142D01*
X64425Y103070D02*
X64425Y103795D01*
X64642Y103432D01*
X64859Y103795D01*
X64859Y103070D01*
X65075Y103650D02*
X65220Y103795D01*
X65364Y103795D01*
X65509Y103650D01*
X65509Y103578D01*
X65075Y103070D01*
X65509Y103070D01*
X65509Y103142D01*
X57476Y103233D02*
X57621Y103088D01*
X57765Y103088D01*
X57910Y103233D01*
X57910Y103668D01*
X57765Y103813D01*
X57621Y103813D01*
X57476Y103668D01*
X57476Y103233D01*
X57765Y103233D02*
X57910Y103088D01*
X58560Y103378D02*
X58126Y103378D01*
X58488Y103813D01*
X58488Y103088D01*
X58415Y103088D02*
X58560Y103088D01*
X58777Y103088D02*
X58777Y103813D01*
X58993Y103451D01*
X59210Y103813D01*
X59210Y103088D01*
X59427Y103668D02*
X59571Y103813D01*
X59716Y103813D01*
X59860Y103668D01*
X59860Y103596D01*
X59427Y103088D01*
X59860Y103088D01*
X59860Y103160D01*
X49856Y103233D02*
X50001Y103088D01*
X50145Y103088D01*
X50290Y103233D01*
X50290Y103668D01*
X50145Y103813D01*
X50001Y103813D01*
X49856Y103668D01*
X49856Y103233D01*
X50145Y103233D02*
X50290Y103088D01*
X50579Y103741D02*
X50651Y103813D01*
X50795Y103813D01*
X50940Y103668D01*
X50940Y103523D01*
X50868Y103451D01*
X50940Y103378D01*
X50940Y103233D01*
X50795Y103088D01*
X50651Y103088D01*
X50579Y103160D01*
X50651Y103451D02*
X50868Y103451D01*
X51157Y103088D02*
X51157Y103813D01*
X51373Y103451D01*
X51590Y103813D01*
X51590Y103088D01*
X51807Y103668D02*
X51951Y103813D01*
X52096Y103813D01*
X52240Y103668D01*
X52240Y103596D01*
X51807Y103088D01*
X52240Y103088D01*
X52240Y103160D01*
X44014Y103233D02*
X44159Y103088D01*
X44303Y103088D01*
X44448Y103233D01*
X44448Y103668D01*
X44303Y103813D01*
X44159Y103813D01*
X44014Y103668D01*
X44014Y103233D01*
X44303Y103233D02*
X44448Y103088D01*
X44737Y103668D02*
X44881Y103813D01*
X44881Y103088D01*
X44664Y103088D02*
X45098Y103088D01*
X45315Y103088D02*
X45315Y103813D01*
X45531Y103451D01*
X45748Y103813D01*
X45748Y103088D01*
X45965Y103668D02*
X46109Y103813D01*
X46254Y103813D01*
X46398Y103668D01*
X46398Y103596D01*
X45965Y103088D01*
X46398Y103088D01*
X46398Y103160D01*
X5152Y102471D02*
X5297Y102326D01*
X5441Y102326D01*
X5586Y102471D01*
X5586Y102906D01*
X5441Y103051D01*
X5297Y103051D01*
X5152Y102906D01*
X5152Y102471D01*
X5441Y102471D02*
X5586Y102326D01*
X6236Y102616D02*
X5802Y102616D01*
X6164Y103051D01*
X6164Y102326D01*
X6091Y102326D02*
X6236Y102326D01*
X6453Y102326D02*
X6453Y103051D01*
X6669Y102689D01*
X6886Y103051D01*
X6886Y102326D01*
X7175Y102906D02*
X7320Y103051D01*
X7320Y102326D01*
X7103Y102326D02*
X7536Y102326D01*
X10740Y102471D02*
X10885Y102326D01*
X11029Y102326D01*
X11174Y102471D01*
X11174Y102906D01*
X11029Y103051D01*
X10885Y103051D01*
X10740Y102906D01*
X10740Y102471D01*
X11029Y102471D02*
X11174Y102326D01*
X11390Y102906D02*
X11535Y103051D01*
X11679Y103051D01*
X11824Y102906D01*
X11824Y102834D01*
X11390Y102326D01*
X11824Y102326D01*
X11824Y102398D01*
X12041Y102326D02*
X12041Y103051D01*
X12257Y102689D01*
X12474Y103051D01*
X12474Y102326D01*
X12763Y102906D02*
X12908Y103051D01*
X12908Y102326D01*
X12691Y102326D02*
X13124Y102326D01*
X-2976Y102471D02*
X-2831Y102326D01*
X-2687Y102326D01*
X-2542Y102471D01*
X-2542Y102906D01*
X-2687Y103051D01*
X-2831Y103051D01*
X-2976Y102906D01*
X-2976Y102471D01*
X-2687Y102471D02*
X-2542Y102326D01*
X-2253Y102979D02*
X-2181Y103051D01*
X-2037Y103051D01*
X-1892Y102906D01*
X-1892Y102761D01*
X-1964Y102689D01*
X-1892Y102616D01*
X-1892Y102471D01*
X-2037Y102326D01*
X-2181Y102326D01*
X-2253Y102398D01*
X-2181Y102689D02*
X-1964Y102689D01*
X-1675Y102326D02*
X-1675Y103051D01*
X-1459Y102689D01*
X-1242Y103051D01*
X-1242Y102326D01*
X-953Y102906D02*
X-808Y103051D01*
X-808Y102326D01*
X-1025Y102326D02*
X-592Y102326D01*
X-9072Y102471D02*
X-8927Y102326D01*
X-8783Y102326D01*
X-8638Y102471D01*
X-8638Y102906D01*
X-8783Y103051D01*
X-8927Y103051D01*
X-9072Y102906D01*
X-9072Y102471D01*
X-8783Y102471D02*
X-8638Y102326D01*
X-8349Y102906D02*
X-8205Y103051D01*
X-8205Y102326D01*
X-8422Y102326D02*
X-7988Y102326D01*
X-7771Y102326D02*
X-7771Y103051D01*
X-7555Y102689D01*
X-7338Y103051D01*
X-7338Y102326D01*
X-7049Y102906D02*
X-6904Y103051D01*
X-6904Y102326D01*
X-7121Y102326D02*
X-6688Y102326D01*
G54D16*
X-3412Y115280D02*
X-3123Y114989D01*
X-2834Y114989D01*
X-2545Y115280D01*
X-3412Y116151D01*
X-3123Y116441D01*
X-2834Y116441D01*
X-2545Y116151D01*
X-2111Y115715D02*
X-1822Y116005D01*
X-1533Y116005D01*
X-1244Y115715D01*
X-1244Y114989D01*
X-2111Y116441D02*
X-2111Y114989D01*
X-811Y115280D02*
X-522Y114989D01*
X-233Y114989D01*
X56Y115280D01*
X56Y115715D01*
X-233Y116005D01*
X-522Y116005D01*
X-811Y115715D01*
X-811Y115280D01*
X490Y116005D02*
X490Y115280D01*
X779Y114989D01*
X1068Y114989D01*
X1357Y115280D01*
X1357Y116005D01*
X1357Y115280D02*
X1357Y114989D01*
X1935Y116441D02*
X1935Y115280D01*
X2224Y114989D01*
X3958Y115280D02*
X3669Y114989D01*
X3380Y114989D01*
X3091Y115280D01*
X3091Y115570D01*
X3380Y115860D01*
X3669Y115860D01*
X3958Y115570D01*
X3958Y116441D02*
X3958Y114989D01*
X5258Y115280D02*
X4969Y114989D01*
X4680Y114989D01*
X4391Y115280D01*
X4391Y115715D01*
X4680Y116005D01*
X4969Y116005D01*
X5258Y115715D01*
X5114Y115570D01*
X4391Y115570D01*
X5692Y115570D02*
X6125Y116005D01*
X6270Y116005D01*
X6559Y115715D01*
X5692Y114989D02*
X5692Y116005D01*
X52065Y114989D02*
X51198Y114989D01*
X51198Y115715D01*
X51198Y116441D01*
X52065Y116441D01*
X51198Y115715D02*
X51776Y115715D01*
X52643Y116441D02*
X52643Y115280D01*
X52932Y114989D01*
X53799Y115280D02*
X54088Y114989D01*
X54377Y114989D01*
X54666Y115280D01*
X54666Y115570D01*
X54377Y115860D01*
X54088Y115860D01*
X53799Y115570D01*
X53799Y116441D02*
X53799Y114989D01*
X55100Y115280D02*
X55389Y114989D01*
X55678Y114989D01*
X55967Y115280D01*
X55967Y115715D01*
X55678Y116005D01*
X55389Y116005D01*
X55100Y115715D01*
X55100Y115280D01*
X56400Y116005D02*
X56545Y114989D01*
X56834Y115425D01*
X57123Y114989D01*
X57267Y116005D01*
X-2142Y71991D02*
X-1997Y70539D01*
X-1708Y71120D01*
X-1419Y70539D01*
X-1275Y71991D01*
X-841Y71120D02*
X-408Y71555D01*
X-263Y71555D01*
X26Y71265D01*
X-841Y70539D02*
X-841Y71555D01*
X893Y70539D02*
X893Y71410D01*
X893Y71701D02*
X893Y71846D01*
X1760Y70830D02*
X2049Y70539D01*
X2338Y70539D01*
X2627Y70830D01*
X1760Y71265D01*
X2049Y71555D01*
X2338Y71555D01*
X2627Y71265D01*
X3783Y70685D02*
X3638Y70539D01*
X3494Y70685D01*
X3494Y71991D01*
X3205Y71555D02*
X3783Y71555D01*
X53335Y71084D02*
X53046Y70793D01*
X52757Y70793D01*
X52468Y71084D01*
X52468Y71955D01*
X52757Y72245D01*
X53046Y72245D01*
X53335Y71955D01*
X53913Y72245D02*
X53913Y71084D01*
X54202Y70793D01*
X55214Y71809D02*
X55647Y71809D01*
X55792Y71664D01*
X55792Y70939D01*
X55647Y70793D01*
X55214Y70793D01*
X55069Y70939D01*
X55069Y71229D01*
X55214Y71374D01*
X55792Y71374D01*
X55792Y70939D02*
X55936Y70793D01*
X56370Y71809D02*
X56514Y70793D01*
X56803Y71229D01*
X57092Y70793D01*
X57237Y71809D01*
G54D17*
X65015Y62047D02*
X65165Y61896D01*
X65316Y61896D01*
X65466Y62047D01*
X65466Y62500D01*
X65316Y62652D01*
X65165Y62652D01*
X65015Y62500D01*
X65015Y62047D01*
X65316Y62047D02*
X65466Y61896D01*
X65692Y62500D02*
X65842Y62652D01*
X65993Y62652D01*
X66143Y62500D01*
X66143Y62425D01*
X65692Y61896D01*
X66143Y61896D01*
X66143Y61971D01*
X66369Y61896D02*
X66369Y62652D01*
X66595Y62274D01*
X66821Y62652D01*
X66821Y61896D01*
X67498Y62198D02*
X67047Y62198D01*
X67423Y62652D01*
X67423Y61896D01*
X67348Y61896D02*
X67498Y61896D01*
X-11101Y61550D02*
X-10950Y61398D01*
X-10800Y61398D01*
X-10649Y61550D01*
X-10649Y62003D01*
X-10800Y62154D01*
X-10950Y62154D01*
X-11101Y62003D01*
X-11101Y61550D01*
X-10800Y61550D02*
X-10649Y61398D01*
X-10348Y62003D02*
X-10198Y62154D01*
X-10198Y61398D01*
X-10423Y61398D02*
X-9972Y61398D01*
X-9746Y61398D02*
X-9746Y62154D01*
X-9520Y61776D01*
X-9295Y62154D01*
X-9295Y61398D01*
X-8994Y62079D02*
X-8918Y62154D01*
X-8768Y62154D01*
X-8617Y62003D01*
X-8617Y61852D01*
X-8693Y61776D01*
X-8617Y61701D01*
X-8617Y61550D01*
X-8768Y61398D01*
X-8918Y61398D01*
X-8994Y61474D01*
X-8918Y61776D02*
X-8693Y61776D01*
X9473Y61550D02*
X9624Y61398D01*
X9774Y61398D01*
X9925Y61550D01*
X9925Y62003D01*
X9774Y62154D01*
X9624Y62154D01*
X9473Y62003D01*
X9473Y61550D01*
X9774Y61550D02*
X9925Y61398D01*
X10151Y62003D02*
X10301Y62154D01*
X10452Y62154D01*
X10602Y62003D01*
X10602Y61928D01*
X10151Y61398D01*
X10602Y61398D01*
X10602Y61474D01*
X10828Y61398D02*
X10828Y62154D01*
X11054Y61776D01*
X11279Y62154D01*
X11279Y61398D01*
X11580Y62079D02*
X11656Y62154D01*
X11806Y62154D01*
X11957Y62003D01*
X11957Y61852D01*
X11881Y61776D01*
X11957Y61701D01*
X11957Y61550D01*
X11806Y61398D01*
X11656Y61398D01*
X11580Y61474D01*
X11656Y61776D02*
X11881Y61776D01*
X42239Y62820D02*
X42390Y62668D01*
X42540Y62668D01*
X42691Y62820D01*
X42691Y63273D01*
X42540Y63424D01*
X42390Y63424D01*
X42239Y63273D01*
X42239Y62820D01*
X42540Y62820D02*
X42691Y62668D01*
X42992Y63273D02*
X43142Y63424D01*
X43142Y62668D01*
X42917Y62668D02*
X43368Y62668D01*
X43594Y62668D02*
X43594Y63424D01*
X43820Y63046D01*
X44045Y63424D01*
X44045Y62668D01*
X44723Y62971D02*
X44271Y62971D01*
X44647Y63424D01*
X44647Y62668D01*
X44572Y62668D02*
X44723Y62668D01*
G54D18*
X-20904Y31056D02*
X-20193Y31056D01*
X-19838Y31413D01*
X-19838Y31591D01*
X-20193Y31949D01*
X-19838Y32306D01*
X-19838Y32484D01*
X-20193Y32841D01*
X-20726Y32841D01*
X-20904Y32841D01*
X-20726Y31949D02*
X-20193Y31949D01*
X-20726Y32841D02*
X-20726Y31056D01*
X-19304Y31056D02*
X-19304Y32841D01*
X-18771Y31949D01*
X-18238Y32841D01*
X-18238Y31056D01*
X-17704Y32841D02*
X-17526Y31056D01*
X-17171Y31770D01*
X-16815Y31056D01*
X-16638Y32841D01*
X-16104Y32484D02*
X-15749Y32841D01*
X-15393Y32841D01*
X-15038Y32484D01*
X-15038Y31413D01*
X-15393Y31056D01*
X-15749Y31056D01*
X-16104Y31413D01*
X-16104Y32484D01*
X-15038Y32484D02*
X-16104Y31413D01*
X-13438Y31770D02*
X-14504Y31770D01*
X-13615Y32841D01*
X-13615Y31056D01*
X-13793Y31056D02*
X-13438Y31056D01*
X-12726Y32484D02*
X-12371Y32841D01*
X-12371Y31056D01*
X-12904Y31056D02*
X-11838Y31056D01*
X-11304Y32484D02*
X-10949Y32841D01*
X-10593Y32841D01*
X-10238Y32484D01*
X-10238Y31413D01*
X-10593Y31056D01*
X-10949Y31056D01*
X-11304Y31413D01*
X-11304Y32484D01*
X-10238Y32484D02*
X-11304Y31413D01*
G54D19*
X-23622Y27940D02*
X-23622Y36982D01*
X-23622Y27940D02*
X-12827Y27940D01*
X84328Y27940D02*
X73533Y27940D01*
X84328Y27940D02*
X84328Y36982D01*
X84328Y118364D02*
X84328Y109322D01*
X84328Y118364D02*
X73533Y118364D01*
X-23622Y118364D02*
X-12827Y118364D01*
X-23622Y118364D02*
X-23622Y109322D01*
X-28622Y27940D02*
X-38622Y27940D01*
X-33622Y22940D02*
X-33622Y32940D01*
X-37372Y27940D02*
G75*
D01*
G02X-37372Y27940I3750J0*
G01*
X89328Y27940D02*
X99328Y27940D01*
X94328Y22940D02*
X94328Y32940D01*
X90578Y27940D02*
G75*
D01*
G02X90578Y27940I3750J0*
G01*
X93078Y27940D02*
G75*
D01*
G02X93078Y27940I1250J0*
G01*
X-28622Y118364D02*
X-38622Y118364D01*
X-33622Y113364D02*
X-33622Y123364D01*
X-37372Y118364D02*
G75*
D01*
G02X-37372Y118364I3750J0*
G01*
X-36122Y118364D02*
G75*
D01*
G02X-36122Y118364I2500J0*
G01*
X-34872Y118364D02*
G75*
D01*
G02X-34872Y118364I1250J0*
G01*

M02*
