G04 Generated by Ultiboard 14.2 *
%FSLAX33Y33*%
%MOMM*%

%ADD10C,0.001*%
%ADD11C,0.254*%
%ADD12C,0.127*%
%ADD13C,1.609*%
%ADD14R,0.529X0.529*%
%ADD15C,0.995*%
%ADD16C,1.537*%
%ADD17C,1.245*%
%ADD18C,1.397*%


G04 ColorRGB FF66CC for the following layer *
%LNCopper Inner 4*%
%LPD*%
G54D10*
G36*
X83691Y28577D02*
X83691Y28577D01*
X-22985Y28577D01*
X-22985Y117727D01*
X83691Y117727D01*
X83691Y28577D01*
D02*
G37*
%LPC*%
G36*
X71522Y113041D02*
X71522Y113041D01*
X71522Y112511D01*
G75*
D01*
G03X72379Y111654I857J0*
G01*
X72379Y111654D01*
X72909Y111654D01*
G75*
D01*
G03X73766Y112511I0J857*
G01*
X73766Y112511D01*
X73766Y113041D01*
G74*
D01*
G03X72909Y113898I857J0*
G01*
X72909Y113898D01*
X72379Y113898D01*
G75*
D01*
G03X71522Y113041I0J-857*
G01*
D02*
G37*
G36*
X72249Y109910D02*
G75*
D01*
G03X72249Y109910I-621J-722*
G01*
D02*
G37*
G36*
X72249Y46908D02*
G75*
D01*
G03X72249Y46908I903J304*
G01*
D02*
G37*
G36*
X72249Y32208D02*
G75*
D01*
G03X72249Y32208I903J304*
G01*
D02*
G37*
G36*
X72249Y49480D02*
G75*
D01*
G03X72249Y49480I903J304*
G01*
D02*
G37*
G36*
X72249Y95210D02*
G75*
D01*
G03X72249Y95210I-621J-722*
G01*
D02*
G37*
G36*
X72249Y92130D02*
G75*
D01*
G03X72249Y92130I-621J-722*
G01*
D02*
G37*
G36*
X79639Y75839D02*
X79639Y75839D01*
X79248Y76230D01*
X78857Y75839D01*
G75*
D01*
G03X79639Y75839I391J869*
G01*
D02*
G37*
G36*
X72249Y75986D02*
G75*
D01*
G03X72249Y75986I-621J722*
G01*
D02*
G37*
G36*
X72249Y64788D02*
G75*
D01*
G03X72249Y64788I903J-304*
G01*
D02*
G37*
G36*
X24249Y112022D02*
G75*
D01*
G03X24249Y112022I-881J754*
G01*
D02*
G37*
G36*
X249Y94140D02*
G75*
D01*
G03X249Y94140I767J856*
G01*
D02*
G37*
G36*
X249Y54250D02*
G75*
D01*
G03X249Y54250I-249J1122*
G01*
D02*
G37*
G36*
X48249Y49072D02*
G75*
D01*
G03X48249Y49072I-497J-812*
G01*
D02*
G37*
G36*
X18450Y75811D02*
G75*
D01*
G03X18450Y75811I854J421*
G01*
D02*
G37*
G36*
X48249Y90996D02*
G75*
D01*
G03X48249Y90996I11J952*
G01*
D02*
G37*
G36*
X48249Y96076D02*
G75*
D01*
G03X48249Y96076I11J952*
G01*
D02*
G37*
G36*
X26631Y75811D02*
G75*
D01*
G03X26631Y75811I-215J389*
G01*
D02*
G37*
G36*
X27285Y75809D02*
G75*
D01*
G03X27285Y76591I-869J391*
G01*
X27285Y76591D01*
X26894Y76200D01*
X27283Y75811D01*
X27285Y75809D01*
D02*
G37*
G36*
X25547Y75809D02*
X25547Y75809D01*
X25549Y75811D01*
X25938Y76200D01*
X25547Y76591D01*
G75*
D01*
G03X25547Y75809I869J-391*
G01*
D02*
G37*
G36*
X48249Y52528D02*
G75*
D01*
G03X48249Y52528I-497J812*
G01*
D02*
G37*
G36*
X78296Y109220D02*
G75*
D01*
G03X78296Y109220I952J0*
G01*
D02*
G37*
G36*
X74024Y112776D02*
G75*
D01*
G03X74024Y112776I1160J0*
G01*
D02*
G37*
G36*
X78296Y49816D02*
G75*
D01*
G03X78296Y49816I952J0*
G01*
D02*
G37*
G36*
X79639Y31643D02*
X79639Y31643D01*
X79248Y32034D01*
X78857Y31643D01*
G75*
D01*
G03X79639Y31643I391J869*
G01*
D02*
G37*
G36*
X80117Y32903D02*
X80117Y32903D01*
X79726Y32512D01*
X80117Y32121D01*
G75*
D01*
G03X80117Y32903I-869J391*
G01*
D02*
G37*
G36*
X78379Y32903D02*
G75*
D01*
G03X78379Y32121I869J-391*
G01*
X78379Y32121D01*
X78770Y32512D01*
X78379Y32903D01*
D02*
G37*
G36*
X78857Y33381D02*
X78857Y33381D01*
X79248Y32990D01*
X79639Y33381D01*
G75*
D01*
G03X78857Y33381I-391J-869*
G01*
D02*
G37*
G36*
X78804Y32512D02*
G75*
D01*
G03X78804Y32512I444J0*
G01*
D02*
G37*
G36*
X78296Y47212D02*
G75*
D01*
G03X78296Y47212I952J0*
G01*
D02*
G37*
G36*
X78296Y94520D02*
G75*
D01*
G03X78296Y94520I952J0*
G01*
D02*
G37*
G36*
X80117Y77099D02*
X80117Y77099D01*
X79726Y76708D01*
X80117Y76317D01*
G75*
D01*
G03X80117Y77099I-869J391*
G01*
D02*
G37*
G36*
X78379Y77099D02*
G75*
D01*
G03X78379Y76317I869J-391*
G01*
X78379Y76317D01*
X78770Y76708D01*
X78379Y77099D01*
D02*
G37*
G36*
X78857Y77577D02*
X78857Y77577D01*
X79248Y77186D01*
X79639Y77577D01*
G75*
D01*
G03X78857Y77577I-391J-869*
G01*
D02*
G37*
G36*
X78804Y76708D02*
G75*
D01*
G03X78804Y76708I444J0*
G01*
D02*
G37*
G36*
X78296Y91408D02*
G75*
D01*
G03X78296Y91408I952J0*
G01*
D02*
G37*
G36*
X78296Y64516D02*
G75*
D01*
G03X78296Y64516I952J0*
G01*
D02*
G37*
G36*
X73554Y68337D02*
X73554Y68337D01*
X73554Y67807D01*
G75*
D01*
G03X74411Y66950I857J0*
G01*
X74411Y66950D01*
X74941Y66950D01*
G75*
D01*
G03X75798Y67807I0J857*
G01*
X75798Y67807D01*
X75798Y68337D01*
G74*
D01*
G03X74941Y69194I857J0*
G01*
X74941Y69194D01*
X74411Y69194D01*
G75*
D01*
G03X73554Y68337I0J-857*
G01*
D02*
G37*
G36*
X76056Y68072D02*
G75*
D01*
G03X76056Y68072I1160J0*
G01*
D02*
G37*
G36*
X-9277Y106172D02*
G75*
D01*
G03X-9277Y106172I1149J0*
G01*
D02*
G37*
G36*
X-2673Y106172D02*
G75*
D01*
G03X-2673Y106172I1149J0*
G01*
D02*
G37*
G36*
X-9277Y108712D02*
G75*
D01*
G03X-9277Y108712I1149J0*
G01*
D02*
G37*
G36*
X-1097Y109120D02*
X-1097Y109120D01*
X-449Y109120D01*
G74*
D01*
G03X-1116Y109787I1075J408*
G01*
X-1116Y109787D01*
X-1116Y109139D01*
G75*
D01*
G03X-1932Y109139I-408J-427*
G01*
X-1932Y109139D01*
X-1932Y109787D01*
G74*
D01*
G03X-2599Y109120I408J1075*
G01*
X-2599Y109120D01*
X-1951Y109120D01*
G75*
D01*
G03X-1951Y108304I427J-408*
G01*
X-1951Y108304D01*
X-2599Y108304D01*
G74*
D01*
G03X-1932Y107637I1075J408*
G01*
X-1932Y107637D01*
X-1932Y108285D01*
G75*
D01*
G03X-1116Y108285I408J427*
G01*
X-1116Y108285D01*
X-1116Y107637D01*
G74*
D01*
G03X-449Y108304I408J1075*
G01*
X-449Y108304D01*
X-1097Y108304D01*
G75*
D01*
G03X-1097Y109120I-427J408*
G01*
D02*
G37*
G36*
X-19918Y112533D02*
X-19918Y112533D01*
X-19918Y112003D01*
G75*
D01*
G03X-19061Y111146I857J0*
G01*
X-19061Y111146D01*
X-18531Y111146D01*
G75*
D01*
G03X-17674Y112003I0J857*
G01*
X-17674Y112003D01*
X-17674Y112533D01*
G74*
D01*
G03X-18531Y113390I857J0*
G01*
X-18531Y113390D01*
X-19061Y113390D01*
G75*
D01*
G03X-19918Y112533I0J-857*
G01*
D02*
G37*
G36*
X-17416Y112268D02*
G75*
D01*
G03X-17416Y112268I1160J0*
G01*
D02*
G37*
G36*
X-9277Y111252D02*
G75*
D01*
G03X-9277Y111252I1149J0*
G01*
D02*
G37*
G36*
X-2673Y111252D02*
G75*
D01*
G03X-2673Y111252I1149J0*
G01*
D02*
G37*
G36*
X3931Y106172D02*
G75*
D01*
G03X3931Y106172I1149J0*
G01*
D02*
G37*
G36*
X10535Y106172D02*
G75*
D01*
G03X10535Y106172I1149J0*
G01*
D02*
G37*
G36*
X5507Y109120D02*
X5507Y109120D01*
X6155Y109120D01*
G74*
D01*
G03X5488Y109787I1075J408*
G01*
X5488Y109787D01*
X5488Y109139D01*
G75*
D01*
G03X4672Y109139I-408J-427*
G01*
X4672Y109139D01*
X4672Y109787D01*
G74*
D01*
G03X4005Y109120I408J1075*
G01*
X4005Y109120D01*
X4653Y109120D01*
G75*
D01*
G03X4653Y108304I427J-408*
G01*
X4653Y108304D01*
X4005Y108304D01*
G74*
D01*
G03X4672Y107637I1075J408*
G01*
X4672Y107637D01*
X4672Y108285D01*
G75*
D01*
G03X5488Y108285I408J427*
G01*
X5488Y108285D01*
X5488Y107637D01*
G74*
D01*
G03X6155Y108304I408J1075*
G01*
X6155Y108304D01*
X5507Y108304D01*
G75*
D01*
G03X5507Y109120I-427J408*
G01*
D02*
G37*
G36*
X10535Y108712D02*
G75*
D01*
G03X10535Y108712I1149J0*
G01*
D02*
G37*
G36*
X18352Y109188D02*
G75*
D01*
G03X18352Y109188I952J0*
G01*
D02*
G37*
G36*
X3931Y111252D02*
G75*
D01*
G03X3931Y111252I1149J0*
G01*
D02*
G37*
G36*
X10535Y111252D02*
G75*
D01*
G03X10535Y111252I1149J0*
G01*
D02*
G37*
G36*
X19706Y113041D02*
X19706Y113041D01*
X19706Y112511D01*
G75*
D01*
G03X20563Y111654I857J0*
G01*
X20563Y111654D01*
X21093Y111654D01*
G75*
D01*
G03X21950Y112511I0J857*
G01*
X21950Y112511D01*
X21950Y113041D01*
G74*
D01*
G03X21093Y113898I857J0*
G01*
X21093Y113898D01*
X20563Y113898D01*
G75*
D01*
G03X19706Y113041I0J-857*
G01*
D02*
G37*
G36*
X50159Y106680D02*
G75*
D01*
G03X50159Y106680I1149J0*
G01*
D02*
G37*
G36*
X56255Y106680D02*
G75*
D01*
G03X56255Y106680I1149J0*
G01*
D02*
G37*
G36*
X62859Y106680D02*
G75*
D01*
G03X62859Y106680I1149J0*
G01*
D02*
G37*
G36*
X51735Y109628D02*
X51735Y109628D01*
X52383Y109628D01*
G74*
D01*
G03X51716Y110295I1075J408*
G01*
X51716Y110295D01*
X51716Y109647D01*
G75*
D01*
G03X50900Y109647I-408J-427*
G01*
X50900Y109647D01*
X50900Y110295D01*
G74*
D01*
G03X50233Y109628I408J1075*
G01*
X50233Y109628D01*
X50881Y109628D01*
G75*
D01*
G03X50881Y108812I427J-408*
G01*
X50881Y108812D01*
X50233Y108812D01*
G74*
D01*
G03X50900Y108145I1075J408*
G01*
X50900Y108145D01*
X50900Y108793D01*
G75*
D01*
G03X51716Y108793I408J427*
G01*
X51716Y108793D01*
X51716Y108145D01*
G74*
D01*
G03X52383Y108812I408J1075*
G01*
X52383Y108812D01*
X51735Y108812D01*
G75*
D01*
G03X51735Y109628I-427J408*
G01*
D02*
G37*
G36*
X57831Y109628D02*
X57831Y109628D01*
X58479Y109628D01*
G74*
D01*
G03X57812Y110295I1075J408*
G01*
X57812Y110295D01*
X57812Y109647D01*
G75*
D01*
G03X56996Y109647I-408J-427*
G01*
X56996Y109647D01*
X56996Y110295D01*
G74*
D01*
G03X56329Y109628I408J1075*
G01*
X56329Y109628D01*
X56977Y109628D01*
G75*
D01*
G03X56977Y108812I427J-408*
G01*
X56977Y108812D01*
X56329Y108812D01*
G74*
D01*
G03X56996Y108145I1075J408*
G01*
X56996Y108145D01*
X56996Y108793D01*
G75*
D01*
G03X57812Y108793I408J427*
G01*
X57812Y108793D01*
X57812Y108145D01*
G74*
D01*
G03X58479Y108812I408J1075*
G01*
X58479Y108812D01*
X57831Y108812D01*
G75*
D01*
G03X57831Y109628I-427J408*
G01*
D02*
G37*
G36*
X62859Y109220D02*
G75*
D01*
G03X62859Y109220I1149J0*
G01*
D02*
G37*
G36*
X50159Y111760D02*
G75*
D01*
G03X50159Y111760I1149J0*
G01*
D02*
G37*
G36*
X56255Y111760D02*
G75*
D01*
G03X56255Y111760I1149J0*
G01*
D02*
G37*
G36*
X62859Y111760D02*
G75*
D01*
G03X62859Y111760I1149J0*
G01*
D02*
G37*
G36*
X44063Y106680D02*
G75*
D01*
G03X44063Y106680I1149J0*
G01*
D02*
G37*
G36*
X25464Y109220D02*
G75*
D01*
G03X25464Y109220I952J0*
G01*
D02*
G37*
G36*
X44063Y109220D02*
G75*
D01*
G03X44063Y109220I1149J0*
G01*
D02*
G37*
G36*
X33930Y113041D02*
X33930Y113041D01*
X33930Y112511D01*
G75*
D01*
G03X34787Y111654I857J0*
G01*
X34787Y111654D01*
X35317Y111654D01*
G75*
D01*
G03X36174Y112511I0J857*
G01*
X36174Y112511D01*
X36174Y113041D01*
G74*
D01*
G03X35317Y113898I857J0*
G01*
X35317Y113898D01*
X34787Y113898D01*
G75*
D01*
G03X33930Y113041I0J-857*
G01*
D02*
G37*
G36*
X36432Y112776D02*
G75*
D01*
G03X36432Y112776I1160J0*
G01*
D02*
G37*
G36*
X44063Y111760D02*
G75*
D01*
G03X44063Y111760I1149J0*
G01*
D02*
G37*
G36*
X-6032Y48768D02*
G75*
D01*
G03X-6032Y48768I952J0*
G01*
D02*
G37*
G36*
X-4000Y36576D02*
G75*
D01*
G03X-4000Y36576I952J0*
G01*
D02*
G37*
G36*
X-3968Y41656D02*
G75*
D01*
G03X-3968Y41656I952J0*
G01*
D02*
G37*
G36*
X-20732Y48768D02*
G75*
D01*
G03X-20732Y48768I952J0*
G01*
D02*
G37*
G36*
X-6540Y96520D02*
G75*
D01*
G03X-6540Y96520I952J0*
G01*
D02*
G37*
G36*
X-4000Y79248D02*
G75*
D01*
G03X-4000Y79248I952J0*
G01*
D02*
G37*
G36*
X-18421Y81280D02*
G75*
D01*
G03X-18421Y81280I1149J0*
G01*
D02*
G37*
G36*
X-14305Y81688D02*
X-14305Y81688D01*
X-13657Y81688D01*
G74*
D01*
G03X-14324Y82355I1075J408*
G01*
X-14324Y82355D01*
X-14324Y81707D01*
G75*
D01*
G03X-15140Y81707I-408J-427*
G01*
X-15140Y81707D01*
X-15140Y82355D01*
G74*
D01*
G03X-15807Y81688I408J1075*
G01*
X-15807Y81688D01*
X-15159Y81688D01*
G75*
D01*
G03X-15159Y80872I427J-408*
G01*
X-15159Y80872D01*
X-15807Y80872D01*
G74*
D01*
G03X-15140Y80205I1075J408*
G01*
X-15140Y80205D01*
X-15140Y80853D01*
G75*
D01*
G03X-14324Y80853I408J427*
G01*
X-14324Y80853D01*
X-14324Y80205D01*
G74*
D01*
G03X-13657Y80872I408J1075*
G01*
X-13657Y80872D01*
X-14305Y80872D01*
G75*
D01*
G03X-14305Y81688I-427J408*
G01*
D02*
G37*
G36*
X-13341Y81280D02*
G75*
D01*
G03X-13341Y81280I1149J0*
G01*
D02*
G37*
G36*
X-10801Y81280D02*
G75*
D01*
G03X-10801Y81280I1149J0*
G01*
D02*
G37*
G36*
X-3968Y84328D02*
G75*
D01*
G03X-3968Y84328I952J0*
G01*
D02*
G37*
G36*
X-21240Y91440D02*
G75*
D01*
G03X-21240Y91440I952J0*
G01*
D02*
G37*
G36*
X-6540Y91440D02*
G75*
D01*
G03X-6540Y91440I952J0*
G01*
D02*
G37*
G36*
X-21240Y96520D02*
G75*
D01*
G03X-21240Y96520I952J0*
G01*
D02*
G37*
G36*
X-3039Y65777D02*
G75*
D01*
G03X-2549Y65777I245J1025*
G01*
G75*
D01*
G03X-2485Y65099I1025J-245*
G01*
X-2485Y65099D01*
X-2053Y65532D01*
X-2361Y65841D01*
G74*
D01*
G03X-1833Y66369I433J961*
G01*
X-1833Y66369D01*
X-1524Y66061D01*
X-1091Y66493D01*
G75*
D01*
G03X-1769Y66557I-433J-961*
G01*
G75*
D01*
G03X-3819Y66557I-1025J245*
G01*
G75*
D01*
G03X-3039Y65777I-245J-1025*
G01*
D02*
G37*
G36*
X-20732Y53848D02*
G75*
D01*
G03X-20732Y53848I952J0*
G01*
D02*
G37*
G36*
X-6032Y53848D02*
G75*
D01*
G03X-6032Y53848I952J0*
G01*
D02*
G37*
G36*
X-9496Y65122D02*
G75*
D01*
G03X-10316Y65122I-410J-860*
G01*
G75*
D01*
G03X-10766Y64672I-860J410*
G01*
G75*
D01*
G03X-9046Y64672I860J-410*
G01*
G75*
D01*
G03X-9496Y65122I410J860*
G01*
D02*
G37*
G36*
X-2032Y65532D02*
G75*
D01*
G03X-2032Y65532I508J0*
G01*
D02*
G37*
G36*
X-563Y65965D02*
X-563Y65965D01*
X-995Y65532D01*
X-563Y65099D01*
G75*
D01*
G03X-563Y65965I-961J433*
G01*
D02*
G37*
G36*
X-1091Y64571D02*
X-1091Y64571D01*
X-1524Y65003D01*
X-1957Y64571D01*
G75*
D01*
G03X-1091Y64571I433J961*
G01*
D02*
G37*
G36*
X-19410Y68337D02*
X-19410Y68337D01*
X-19410Y67807D01*
G75*
D01*
G03X-18553Y66950I857J0*
G01*
X-18553Y66950D01*
X-18023Y66950D01*
G75*
D01*
G03X-17166Y67807I0J857*
G01*
X-17166Y67807D01*
X-17166Y68337D01*
G74*
D01*
G03X-18023Y69194I857J0*
G01*
X-18023Y69194D01*
X-18553Y69194D01*
G75*
D01*
G03X-19410Y68337I0J-857*
G01*
D02*
G37*
G36*
X-16908Y68072D02*
G75*
D01*
G03X-16908Y68072I1160J0*
G01*
D02*
G37*
G36*
X17844Y49276D02*
G75*
D01*
G03X17844Y49276I952J0*
G01*
D02*
G37*
G36*
X17844Y31528D02*
G75*
D01*
G03X17844Y31528I952J0*
G01*
D02*
G37*
G36*
X10700Y36576D02*
G75*
D01*
G03X10700Y36576I952J0*
G01*
D02*
G37*
G36*
X10815Y42047D02*
G75*
D01*
G03X10815Y41265I869J-391*
G01*
X10815Y41265D01*
X11206Y41656D01*
X10815Y42047D01*
D02*
G37*
G36*
X12075Y40787D02*
X12075Y40787D01*
X11684Y41178D01*
X11293Y40787D01*
G75*
D01*
G03X12075Y40787I391J869*
G01*
D02*
G37*
G36*
X11240Y41656D02*
G75*
D01*
G03X11240Y41656I444J0*
G01*
D02*
G37*
G36*
X12553Y42047D02*
X12553Y42047D01*
X12162Y41656D01*
X12553Y41265D01*
G75*
D01*
G03X12553Y42047I-869J391*
G01*
D02*
G37*
G36*
X11293Y42525D02*
X11293Y42525D01*
X11684Y42134D01*
X12075Y42525D01*
G75*
D01*
G03X11293Y42525I-391J-869*
G01*
D02*
G37*
G36*
X17844Y46228D02*
G75*
D01*
G03X17844Y46228I952J0*
G01*
D02*
G37*
G36*
X49340Y38100D02*
G75*
D01*
G03X49340Y38100I952J0*
G01*
D02*
G37*
G36*
X64040Y38100D02*
G75*
D01*
G03X64040Y38100I952J0*
G01*
D02*
G37*
G36*
X49372Y43180D02*
G75*
D01*
G03X49372Y43180I952J0*
G01*
D02*
G37*
G36*
X64633Y44049D02*
X64633Y44049D01*
X65024Y43658D01*
X65415Y44049D01*
G75*
D01*
G03X64633Y44049I-391J-869*
G01*
D02*
G37*
G36*
X64155Y43571D02*
G75*
D01*
G03X64155Y42789I869J-391*
G01*
X64155Y42789D01*
X64546Y43180D01*
X64155Y43571D01*
D02*
G37*
G36*
X65893Y43571D02*
X65893Y43571D01*
X65502Y43180D01*
X65893Y42789D01*
G75*
D01*
G03X65893Y43571I-869J391*
G01*
D02*
G37*
G36*
X65415Y42311D02*
X65415Y42311D01*
X65024Y42702D01*
X64633Y42311D01*
G75*
D01*
G03X65415Y42311I391J869*
G01*
D02*
G37*
G36*
X64580Y43180D02*
G75*
D01*
G03X64580Y43180I444J0*
G01*
D02*
G37*
G36*
X24448Y49308D02*
G75*
D01*
G03X24448Y49308I952J0*
G01*
D02*
G37*
G36*
X25009Y32365D02*
X25009Y32365D01*
X25400Y31974D01*
X25791Y32365D01*
G75*
D01*
G03X25009Y32365I-391J-869*
G01*
D02*
G37*
G36*
X26269Y31887D02*
X26269Y31887D01*
X25878Y31496D01*
X26269Y31105D01*
G75*
D01*
G03X26269Y31887I-869J391*
G01*
D02*
G37*
G36*
X24531Y31887D02*
G75*
D01*
G03X24531Y31105I869J-391*
G01*
X24531Y31105D01*
X24922Y31496D01*
X24531Y31887D01*
D02*
G37*
G36*
X25791Y30627D02*
X25791Y30627D01*
X25400Y31018D01*
X25009Y30627D01*
G75*
D01*
G03X25791Y30627I391J869*
G01*
D02*
G37*
G36*
X24956Y31496D02*
G75*
D01*
G03X24956Y31496I444J0*
G01*
D02*
G37*
G36*
X24448Y46196D02*
G75*
D01*
G03X24448Y46196I952J0*
G01*
D02*
G37*
G36*
X32100Y48260D02*
G75*
D01*
G03X32100Y48260I952J0*
G01*
D02*
G37*
G36*
X18352Y94488D02*
G75*
D01*
G03X18352Y94488I952J0*
G01*
D02*
G37*
G36*
X10700Y79248D02*
G75*
D01*
G03X10700Y79248I952J0*
G01*
D02*
G37*
G36*
X10815Y84719D02*
G75*
D01*
G03X10815Y83937I869J-391*
G01*
X10815Y83937D01*
X11206Y84328D01*
X10815Y84719D01*
D02*
G37*
G36*
X12075Y83459D02*
X12075Y83459D01*
X11684Y83850D01*
X11293Y83459D01*
G75*
D01*
G03X12075Y83459I391J869*
G01*
D02*
G37*
G36*
X11240Y84328D02*
G75*
D01*
G03X11240Y84328I444J0*
G01*
D02*
G37*
G36*
X12553Y84719D02*
X12553Y84719D01*
X12162Y84328D01*
X12553Y83937D01*
G75*
D01*
G03X12553Y84719I-869J391*
G01*
D02*
G37*
G36*
X11293Y85197D02*
X11293Y85197D01*
X11684Y84806D01*
X12075Y85197D01*
G75*
D01*
G03X11293Y85197I-391J-869*
G01*
D02*
G37*
G36*
X18352Y90932D02*
G75*
D01*
G03X18352Y90932I952J0*
G01*
D02*
G37*
G36*
X2407Y94996D02*
G75*
D01*
G03X2407Y94996I1149J0*
G01*
D02*
G37*
G36*
X49848Y79756D02*
G75*
D01*
G03X49848Y79756I952J0*
G01*
D02*
G37*
G36*
X64548Y79756D02*
G75*
D01*
G03X64548Y79756I952J0*
G01*
D02*
G37*
G36*
X49880Y84836D02*
G75*
D01*
G03X49880Y84836I952J0*
G01*
D02*
G37*
G36*
X65923Y83967D02*
X65923Y83967D01*
X65532Y84358D01*
X65141Y83967D01*
G75*
D01*
G03X65923Y83967I391J869*
G01*
D02*
G37*
G36*
X64663Y85227D02*
G75*
D01*
G03X64663Y84445I869J-391*
G01*
X64663Y84445D01*
X65054Y84836D01*
X64663Y85227D01*
D02*
G37*
G36*
X65141Y85705D02*
X65141Y85705D01*
X65532Y85314D01*
X65923Y85705D01*
G75*
D01*
G03X65141Y85705I-391J-869*
G01*
D02*
G37*
G36*
X65088Y84836D02*
G75*
D01*
G03X65088Y84836I444J0*
G01*
D02*
G37*
G36*
X66401Y85227D02*
X66401Y85227D01*
X66010Y84836D01*
X66401Y84445D01*
G75*
D01*
G03X66401Y85227I-869J391*
G01*
D02*
G37*
G36*
X52699Y95504D02*
G75*
D01*
G03X52699Y95504I1149J0*
G01*
D02*
G37*
G36*
X55239Y95504D02*
G75*
D01*
G03X55239Y95504I1149J0*
G01*
D02*
G37*
G36*
X1391Y55372D02*
G75*
D01*
G03X1391Y55372I1149J0*
G01*
D02*
G37*
G36*
X11840Y65122D02*
G75*
D01*
G03X11020Y65122I-410J-860*
G01*
G75*
D01*
G03X10570Y64672I-860J410*
G01*
G75*
D01*
G03X12290Y64672I860J-410*
G01*
G75*
D01*
G03X11840Y65122I410J860*
G01*
D02*
G37*
G36*
X17844Y63976D02*
G75*
D01*
G03X17844Y63976I952J0*
G01*
D02*
G37*
G36*
X5343Y66557D02*
G75*
D01*
G03X3293Y66557I-1025J245*
G01*
G75*
D01*
G03X4073Y65777I-245J-1025*
G01*
G75*
D01*
G03X4563Y65777I245J1025*
G01*
G75*
D01*
G03X4627Y65099I1025J-245*
G01*
X4627Y65099D01*
X5059Y65532D01*
X4751Y65841D01*
G74*
D01*
G03X5279Y66369I433J961*
G01*
X5279Y66369D01*
X5588Y66061D01*
X6021Y66493D01*
G75*
D01*
G03X5343Y66557I-433J-961*
G01*
D02*
G37*
G36*
X6021Y64571D02*
X6021Y64571D01*
X5588Y65003D01*
X5155Y64571D01*
G75*
D01*
G03X6021Y64571I433J961*
G01*
D02*
G37*
G36*
X5080Y65532D02*
G75*
D01*
G03X5080Y65532I508J0*
G01*
D02*
G37*
G36*
X6549Y65965D02*
X6549Y65965D01*
X6117Y65532D01*
X6549Y65099D01*
G75*
D01*
G03X6549Y65965I-961J433*
G01*
D02*
G37*
G36*
X19198Y68337D02*
X19198Y68337D01*
X19198Y67807D01*
G75*
D01*
G03X20055Y66950I857J0*
G01*
X20055Y66950D01*
X20585Y66950D01*
G75*
D01*
G03X21442Y67807I0J857*
G01*
X21442Y67807D01*
X21442Y68337D01*
G74*
D01*
G03X20585Y69194I857J0*
G01*
X20585Y69194D01*
X20055Y69194D01*
G75*
D01*
G03X19198Y68337I0J-857*
G01*
D02*
G37*
G36*
X21700Y68072D02*
G75*
D01*
G03X21700Y68072I1160J0*
G01*
D02*
G37*
G36*
X26025Y77069D02*
X26025Y77069D01*
X26416Y76678D01*
X26807Y77069D01*
G75*
D01*
G03X26025Y77069I-391J-869*
G01*
D02*
G37*
G36*
X25464Y90900D02*
G75*
D01*
G03X25464Y90900I952J0*
G01*
D02*
G37*
G36*
X32608Y91948D02*
G75*
D01*
G03X32608Y91948I952J0*
G01*
D02*
G37*
G36*
X25464Y94520D02*
G75*
D01*
G03X25464Y94520I952J0*
G01*
D02*
G37*
G36*
X32608Y97028D02*
G75*
D01*
G03X32608Y97028I952J0*
G01*
D02*
G37*
G36*
X53207Y55372D02*
G75*
D01*
G03X53207Y55372I1149J0*
G01*
D02*
G37*
G36*
X55747Y55372D02*
G75*
D01*
G03X55747Y55372I1149J0*
G01*
D02*
G37*
G36*
X51995Y66349D02*
G74*
D01*
G03X52523Y66877I433J961*
G01*
X52523Y66877D01*
X52832Y66569D01*
X53265Y67001D01*
G75*
D01*
G03X52587Y67065I-433J-961*
G01*
G75*
D01*
G03X50537Y67065I-1025J245*
G01*
G75*
D01*
G03X51317Y66285I-245J-1025*
G01*
G75*
D01*
G03X51807Y66285I245J1025*
G01*
G75*
D01*
G03X51871Y65607I1025J-245*
G01*
X51871Y65607D01*
X52303Y66040D01*
X51995Y66349D01*
D02*
G37*
G36*
X52324Y66040D02*
G75*
D01*
G03X52324Y66040I508J0*
G01*
D02*
G37*
G36*
X53793Y66473D02*
X53793Y66473D01*
X53361Y66040D01*
X53793Y65607D01*
G75*
D01*
G03X53793Y66473I-961J433*
G01*
D02*
G37*
G36*
X53265Y65079D02*
X53265Y65079D01*
X52832Y65511D01*
X52399Y65079D01*
G75*
D01*
G03X53265Y65079I433J961*
G01*
D02*
G37*
G36*
X59107Y66349D02*
G74*
D01*
G03X59635Y66877I433J961*
G01*
X59635Y66877D01*
X59944Y66569D01*
X60377Y67001D01*
G75*
D01*
G03X59699Y67065I-433J-961*
G01*
G75*
D01*
G03X57649Y67065I-1025J245*
G01*
G75*
D01*
G03X58429Y66285I-245J-1025*
G01*
G75*
D01*
G03X58919Y66285I245J1025*
G01*
G75*
D01*
G03X58983Y65607I1025J-245*
G01*
X58983Y65607D01*
X59415Y66040D01*
X59107Y66349D01*
D02*
G37*
G36*
X59436Y66040D02*
G75*
D01*
G03X59436Y66040I508J0*
G01*
D02*
G37*
G36*
X60377Y65079D02*
X60377Y65079D01*
X59944Y65511D01*
X59511Y65079D01*
G75*
D01*
G03X60377Y65079I433J961*
G01*
D02*
G37*
G36*
X60905Y66473D02*
X60905Y66473D01*
X60473Y66040D01*
X60905Y65607D01*
G75*
D01*
G03X60905Y66473I-961J433*
G01*
D02*
G37*
G36*
X66704Y66138D02*
G75*
D01*
G03X65884Y66138I-410J-860*
G01*
G75*
D01*
G03X65434Y65688I-860J410*
G01*
G75*
D01*
G03X67154Y65688I860J-410*
G01*
G75*
D01*
G03X66704Y66138I410J860*
G01*
D02*
G37*
G36*
X26807Y75331D02*
X26807Y75331D01*
X26416Y75722D01*
X26025Y75331D01*
G75*
D01*
G03X26807Y75331I391J869*
G01*
D02*
G37*
G36*
X32100Y53340D02*
G75*
D01*
G03X32100Y53340I952J0*
G01*
D02*
G37*
G36*
X24448Y64008D02*
G75*
D01*
G03X24448Y64008I952J0*
G01*
D02*
G37*
G36*
X44352Y66138D02*
G75*
D01*
G03X43532Y66138I-410J-860*
G01*
G75*
D01*
G03X43082Y65688I-860J410*
G01*
G75*
D01*
G03X44802Y65688I860J-410*
G01*
G75*
D01*
G03X44352Y66138I410J860*
G01*
D02*
G37*
G36*
X33422Y68337D02*
X33422Y68337D01*
X33422Y67807D01*
G75*
D01*
G03X34279Y66950I857J0*
G01*
X34279Y66950D01*
X34809Y66950D01*
G75*
D01*
G03X35666Y67807I0J857*
G01*
X35666Y67807D01*
X35666Y68337D01*
G74*
D01*
G03X34809Y69194I857J0*
G01*
X34809Y69194D01*
X34279Y69194D01*
G75*
D01*
G03X33422Y68337I0J-857*
G01*
D02*
G37*
G36*
X35924Y68072D02*
G75*
D01*
G03X35924Y68072I1160J0*
G01*
D02*
G37*
%LPD*%
G54D11*
X71522Y113041D02*
X71522Y112511D01*
G75*
D01*
G03X72379Y111654I857J0*
G01*
X72909Y111654D01*
G75*
D01*
G03X73766Y112511I0J857*
G01*
X73766Y113041D01*
G74*
D01*
G03X72909Y113898I857J0*
G01*
X72379Y113898D01*
G75*
D01*
G03X71522Y113041I0J-857*
G01*
X72249Y109910D02*
G75*
D01*
G03X72249Y109910I-621J-722*
G01*
X72249Y46908D02*
G75*
D01*
G03X72249Y46908I903J304*
G01*
X72249Y32208D02*
G75*
D01*
G03X72249Y32208I903J304*
G01*
X72249Y49480D02*
G75*
D01*
G03X72249Y49480I903J304*
G01*
X72249Y95210D02*
G75*
D01*
G03X72249Y95210I-621J-722*
G01*
X72249Y92130D02*
G75*
D01*
G03X72249Y92130I-621J-722*
G01*
X79639Y75839D02*
X79248Y76230D01*
X78857Y75839D01*
G75*
D01*
G03X79639Y75839I391J869*
G01*
X72249Y75986D02*
G75*
D01*
G03X72249Y75986I-621J722*
G01*
X72249Y64788D02*
G75*
D01*
G03X72249Y64788I903J-304*
G01*
X24249Y112022D02*
G75*
D01*
G03X24249Y112022I-881J754*
G01*
X249Y94140D02*
G75*
D01*
G03X249Y94140I767J856*
G01*
X249Y54250D02*
G75*
D01*
G03X249Y54250I-249J1122*
G01*
X48249Y49072D02*
G75*
D01*
G03X48249Y49072I-497J-812*
G01*
X18450Y75811D02*
G75*
D01*
G03X18450Y75811I854J421*
G01*
X48249Y90996D02*
G75*
D01*
G03X48249Y90996I11J952*
G01*
X48249Y96076D02*
G75*
D01*
G03X48249Y96076I11J952*
G01*
X26631Y75811D02*
G75*
D01*
G03X26631Y75811I-215J389*
G01*
X27285Y75809D02*
G75*
D01*
G03X27285Y76591I-869J391*
G01*
X26894Y76200D01*
X27283Y75811D01*
X27285Y75809D01*
X25547Y75809D02*
X25549Y75811D01*
X25938Y76200D01*
X25547Y76591D01*
G75*
D01*
G03X25547Y75809I869J-391*
G01*
X48249Y52528D02*
G75*
D01*
G03X48249Y52528I-497J812*
G01*
X78296Y109220D02*
G75*
D01*
G03X78296Y109220I952J0*
G01*
X74024Y112776D02*
G75*
D01*
G03X74024Y112776I1160J0*
G01*
X78296Y49816D02*
G75*
D01*
G03X78296Y49816I952J0*
G01*
X79639Y31643D02*
X79248Y32034D01*
X78857Y31643D01*
G75*
D01*
G03X79639Y31643I391J869*
G01*
X80117Y32903D02*
X79726Y32512D01*
X80117Y32121D01*
G75*
D01*
G03X80117Y32903I-869J391*
G01*
X78379Y32903D02*
G75*
D01*
G03X78379Y32121I869J-391*
G01*
X78770Y32512D01*
X78379Y32903D01*
X78857Y33381D02*
X79248Y32990D01*
X79639Y33381D01*
G75*
D01*
G03X78857Y33381I-391J-869*
G01*
X78804Y32512D02*
G75*
D01*
G03X78804Y32512I444J0*
G01*
X78296Y47212D02*
G75*
D01*
G03X78296Y47212I952J0*
G01*
X78296Y94520D02*
G75*
D01*
G03X78296Y94520I952J0*
G01*
X80117Y77099D02*
X79726Y76708D01*
X80117Y76317D01*
G75*
D01*
G03X80117Y77099I-869J391*
G01*
X78379Y77099D02*
G75*
D01*
G03X78379Y76317I869J-391*
G01*
X78770Y76708D01*
X78379Y77099D01*
X78857Y77577D02*
X79248Y77186D01*
X79639Y77577D01*
G75*
D01*
G03X78857Y77577I-391J-869*
G01*
X78804Y76708D02*
G75*
D01*
G03X78804Y76708I444J0*
G01*
X78296Y91408D02*
G75*
D01*
G03X78296Y91408I952J0*
G01*
X78296Y64516D02*
G75*
D01*
G03X78296Y64516I952J0*
G01*
X73554Y68337D02*
X73554Y67807D01*
G75*
D01*
G03X74411Y66950I857J0*
G01*
X74941Y66950D01*
G75*
D01*
G03X75798Y67807I0J857*
G01*
X75798Y68337D01*
G74*
D01*
G03X74941Y69194I857J0*
G01*
X74411Y69194D01*
G75*
D01*
G03X73554Y68337I0J-857*
G01*
X76056Y68072D02*
G75*
D01*
G03X76056Y68072I1160J0*
G01*
X-9277Y106172D02*
G75*
D01*
G03X-9277Y106172I1149J0*
G01*
X-2673Y106172D02*
G75*
D01*
G03X-2673Y106172I1149J0*
G01*
X-9277Y108712D02*
G75*
D01*
G03X-9277Y108712I1149J0*
G01*
X-1097Y109120D02*
X-449Y109120D01*
G74*
D01*
G03X-1116Y109787I1075J408*
G01*
X-1116Y109139D01*
G75*
D01*
G03X-1932Y109139I-408J-427*
G01*
X-1932Y109787D01*
G74*
D01*
G03X-2599Y109120I408J1075*
G01*
X-1951Y109120D01*
G75*
D01*
G03X-1951Y108304I427J-408*
G01*
X-2599Y108304D01*
G74*
D01*
G03X-1932Y107637I1075J408*
G01*
X-1932Y108285D01*
G75*
D01*
G03X-1116Y108285I408J427*
G01*
X-1116Y107637D01*
G74*
D01*
G03X-449Y108304I408J1075*
G01*
X-1097Y108304D01*
G75*
D01*
G03X-1097Y109120I-427J408*
G01*
X-19918Y112533D02*
X-19918Y112003D01*
G75*
D01*
G03X-19061Y111146I857J0*
G01*
X-18531Y111146D01*
G75*
D01*
G03X-17674Y112003I0J857*
G01*
X-17674Y112533D01*
G74*
D01*
G03X-18531Y113390I857J0*
G01*
X-19061Y113390D01*
G75*
D01*
G03X-19918Y112533I0J-857*
G01*
X-17416Y112268D02*
G75*
D01*
G03X-17416Y112268I1160J0*
G01*
X-9277Y111252D02*
G75*
D01*
G03X-9277Y111252I1149J0*
G01*
X-2673Y111252D02*
G75*
D01*
G03X-2673Y111252I1149J0*
G01*
X3931Y106172D02*
G75*
D01*
G03X3931Y106172I1149J0*
G01*
X10535Y106172D02*
G75*
D01*
G03X10535Y106172I1149J0*
G01*
X5507Y109120D02*
X6155Y109120D01*
G74*
D01*
G03X5488Y109787I1075J408*
G01*
X5488Y109139D01*
G75*
D01*
G03X4672Y109139I-408J-427*
G01*
X4672Y109787D01*
G74*
D01*
G03X4005Y109120I408J1075*
G01*
X4653Y109120D01*
G75*
D01*
G03X4653Y108304I427J-408*
G01*
X4005Y108304D01*
G74*
D01*
G03X4672Y107637I1075J408*
G01*
X4672Y108285D01*
G75*
D01*
G03X5488Y108285I408J427*
G01*
X5488Y107637D01*
G74*
D01*
G03X6155Y108304I408J1075*
G01*
X5507Y108304D01*
G75*
D01*
G03X5507Y109120I-427J408*
G01*
X10535Y108712D02*
G75*
D01*
G03X10535Y108712I1149J0*
G01*
X18352Y109188D02*
G75*
D01*
G03X18352Y109188I952J0*
G01*
X3931Y111252D02*
G75*
D01*
G03X3931Y111252I1149J0*
G01*
X10535Y111252D02*
G75*
D01*
G03X10535Y111252I1149J0*
G01*
X19706Y113041D02*
X19706Y112511D01*
G75*
D01*
G03X20563Y111654I857J0*
G01*
X21093Y111654D01*
G75*
D01*
G03X21950Y112511I0J857*
G01*
X21950Y113041D01*
G74*
D01*
G03X21093Y113898I857J0*
G01*
X20563Y113898D01*
G75*
D01*
G03X19706Y113041I0J-857*
G01*
X50159Y106680D02*
G75*
D01*
G03X50159Y106680I1149J0*
G01*
X56255Y106680D02*
G75*
D01*
G03X56255Y106680I1149J0*
G01*
X62859Y106680D02*
G75*
D01*
G03X62859Y106680I1149J0*
G01*
X51735Y109628D02*
X52383Y109628D01*
G74*
D01*
G03X51716Y110295I1075J408*
G01*
X51716Y109647D01*
G75*
D01*
G03X50900Y109647I-408J-427*
G01*
X50900Y110295D01*
G74*
D01*
G03X50233Y109628I408J1075*
G01*
X50881Y109628D01*
G75*
D01*
G03X50881Y108812I427J-408*
G01*
X50233Y108812D01*
G74*
D01*
G03X50900Y108145I1075J408*
G01*
X50900Y108793D01*
G75*
D01*
G03X51716Y108793I408J427*
G01*
X51716Y108145D01*
G74*
D01*
G03X52383Y108812I408J1075*
G01*
X51735Y108812D01*
G75*
D01*
G03X51735Y109628I-427J408*
G01*
X57831Y109628D02*
X58479Y109628D01*
G74*
D01*
G03X57812Y110295I1075J408*
G01*
X57812Y109647D01*
G75*
D01*
G03X56996Y109647I-408J-427*
G01*
X56996Y110295D01*
G74*
D01*
G03X56329Y109628I408J1075*
G01*
X56977Y109628D01*
G75*
D01*
G03X56977Y108812I427J-408*
G01*
X56329Y108812D01*
G74*
D01*
G03X56996Y108145I1075J408*
G01*
X56996Y108793D01*
G75*
D01*
G03X57812Y108793I408J427*
G01*
X57812Y108145D01*
G74*
D01*
G03X58479Y108812I408J1075*
G01*
X57831Y108812D01*
G75*
D01*
G03X57831Y109628I-427J408*
G01*
X62859Y109220D02*
G75*
D01*
G03X62859Y109220I1149J0*
G01*
X50159Y111760D02*
G75*
D01*
G03X50159Y111760I1149J0*
G01*
X56255Y111760D02*
G75*
D01*
G03X56255Y111760I1149J0*
G01*
X62859Y111760D02*
G75*
D01*
G03X62859Y111760I1149J0*
G01*
X44063Y106680D02*
G75*
D01*
G03X44063Y106680I1149J0*
G01*
X25464Y109220D02*
G75*
D01*
G03X25464Y109220I952J0*
G01*
X44063Y109220D02*
G75*
D01*
G03X44063Y109220I1149J0*
G01*
X33930Y113041D02*
X33930Y112511D01*
G75*
D01*
G03X34787Y111654I857J0*
G01*
X35317Y111654D01*
G75*
D01*
G03X36174Y112511I0J857*
G01*
X36174Y113041D01*
G74*
D01*
G03X35317Y113898I857J0*
G01*
X34787Y113898D01*
G75*
D01*
G03X33930Y113041I0J-857*
G01*
X36432Y112776D02*
G75*
D01*
G03X36432Y112776I1160J0*
G01*
X44063Y111760D02*
G75*
D01*
G03X44063Y111760I1149J0*
G01*
X-6032Y48768D02*
G75*
D01*
G03X-6032Y48768I952J0*
G01*
X-4000Y36576D02*
G75*
D01*
G03X-4000Y36576I952J0*
G01*
X-3968Y41656D02*
G75*
D01*
G03X-3968Y41656I952J0*
G01*
X-20732Y48768D02*
G75*
D01*
G03X-20732Y48768I952J0*
G01*
X-6540Y96520D02*
G75*
D01*
G03X-6540Y96520I952J0*
G01*
X-4000Y79248D02*
G75*
D01*
G03X-4000Y79248I952J0*
G01*
X-18421Y81280D02*
G75*
D01*
G03X-18421Y81280I1149J0*
G01*
X-14305Y81688D02*
X-13657Y81688D01*
G74*
D01*
G03X-14324Y82355I1075J408*
G01*
X-14324Y81707D01*
G75*
D01*
G03X-15140Y81707I-408J-427*
G01*
X-15140Y82355D01*
G74*
D01*
G03X-15807Y81688I408J1075*
G01*
X-15159Y81688D01*
G75*
D01*
G03X-15159Y80872I427J-408*
G01*
X-15807Y80872D01*
G74*
D01*
G03X-15140Y80205I1075J408*
G01*
X-15140Y80853D01*
G75*
D01*
G03X-14324Y80853I408J427*
G01*
X-14324Y80205D01*
G74*
D01*
G03X-13657Y80872I408J1075*
G01*
X-14305Y80872D01*
G75*
D01*
G03X-14305Y81688I-427J408*
G01*
X-13341Y81280D02*
G75*
D01*
G03X-13341Y81280I1149J0*
G01*
X-10801Y81280D02*
G75*
D01*
G03X-10801Y81280I1149J0*
G01*
X-3968Y84328D02*
G75*
D01*
G03X-3968Y84328I952J0*
G01*
X-21240Y91440D02*
G75*
D01*
G03X-21240Y91440I952J0*
G01*
X-6540Y91440D02*
G75*
D01*
G03X-6540Y91440I952J0*
G01*
X-21240Y96520D02*
G75*
D01*
G03X-21240Y96520I952J0*
G01*
X-3039Y65777D02*
G75*
D01*
G03X-2549Y65777I245J1025*
G01*
G75*
D01*
G03X-2485Y65099I1025J-245*
G01*
X-2053Y65532D01*
X-2361Y65841D01*
G74*
D01*
G03X-1833Y66369I433J961*
G01*
X-1524Y66061D01*
X-1091Y66493D01*
G75*
D01*
G03X-1769Y66557I-433J-961*
G01*
G75*
D01*
G03X-3819Y66557I-1025J245*
G01*
G75*
D01*
G03X-3039Y65777I-245J-1025*
G01*
X-20732Y53848D02*
G75*
D01*
G03X-20732Y53848I952J0*
G01*
X-6032Y53848D02*
G75*
D01*
G03X-6032Y53848I952J0*
G01*
X-9496Y65122D02*
G75*
D01*
G03X-10316Y65122I-410J-860*
G01*
G75*
D01*
G03X-10766Y64672I-860J410*
G01*
G75*
D01*
G03X-9046Y64672I860J-410*
G01*
G75*
D01*
G03X-9496Y65122I410J860*
G01*
X-2032Y65532D02*
G75*
D01*
G03X-2032Y65532I508J0*
G01*
X-563Y65965D02*
X-995Y65532D01*
X-563Y65099D01*
G75*
D01*
G03X-563Y65965I-961J433*
G01*
X-1091Y64571D02*
X-1524Y65003D01*
X-1957Y64571D01*
G75*
D01*
G03X-1091Y64571I433J961*
G01*
X-19410Y68337D02*
X-19410Y67807D01*
G75*
D01*
G03X-18553Y66950I857J0*
G01*
X-18023Y66950D01*
G75*
D01*
G03X-17166Y67807I0J857*
G01*
X-17166Y68337D01*
G74*
D01*
G03X-18023Y69194I857J0*
G01*
X-18553Y69194D01*
G75*
D01*
G03X-19410Y68337I0J-857*
G01*
X-16908Y68072D02*
G75*
D01*
G03X-16908Y68072I1160J0*
G01*
X17844Y49276D02*
G75*
D01*
G03X17844Y49276I952J0*
G01*
X17844Y31528D02*
G75*
D01*
G03X17844Y31528I952J0*
G01*
X10700Y36576D02*
G75*
D01*
G03X10700Y36576I952J0*
G01*
X10815Y42047D02*
G75*
D01*
G03X10815Y41265I869J-391*
G01*
X11206Y41656D01*
X10815Y42047D01*
X12075Y40787D02*
X11684Y41178D01*
X11293Y40787D01*
G75*
D01*
G03X12075Y40787I391J869*
G01*
X11240Y41656D02*
G75*
D01*
G03X11240Y41656I444J0*
G01*
X12553Y42047D02*
X12162Y41656D01*
X12553Y41265D01*
G75*
D01*
G03X12553Y42047I-869J391*
G01*
X11293Y42525D02*
X11684Y42134D01*
X12075Y42525D01*
G75*
D01*
G03X11293Y42525I-391J-869*
G01*
X17844Y46228D02*
G75*
D01*
G03X17844Y46228I952J0*
G01*
X49340Y38100D02*
G75*
D01*
G03X49340Y38100I952J0*
G01*
X64040Y38100D02*
G75*
D01*
G03X64040Y38100I952J0*
G01*
X49372Y43180D02*
G75*
D01*
G03X49372Y43180I952J0*
G01*
X64633Y44049D02*
X65024Y43658D01*
X65415Y44049D01*
G75*
D01*
G03X64633Y44049I-391J-869*
G01*
X64155Y43571D02*
G75*
D01*
G03X64155Y42789I869J-391*
G01*
X64546Y43180D01*
X64155Y43571D01*
X65893Y43571D02*
X65502Y43180D01*
X65893Y42789D01*
G75*
D01*
G03X65893Y43571I-869J391*
G01*
X65415Y42311D02*
X65024Y42702D01*
X64633Y42311D01*
G75*
D01*
G03X65415Y42311I391J869*
G01*
X64580Y43180D02*
G75*
D01*
G03X64580Y43180I444J0*
G01*
X24448Y49308D02*
G75*
D01*
G03X24448Y49308I952J0*
G01*
X25009Y32365D02*
X25400Y31974D01*
X25791Y32365D01*
G75*
D01*
G03X25009Y32365I-391J-869*
G01*
X26269Y31887D02*
X25878Y31496D01*
X26269Y31105D01*
G75*
D01*
G03X26269Y31887I-869J391*
G01*
X24531Y31887D02*
G75*
D01*
G03X24531Y31105I869J-391*
G01*
X24922Y31496D01*
X24531Y31887D01*
X25791Y30627D02*
X25400Y31018D01*
X25009Y30627D01*
G75*
D01*
G03X25791Y30627I391J869*
G01*
X24956Y31496D02*
G75*
D01*
G03X24956Y31496I444J0*
G01*
X24448Y46196D02*
G75*
D01*
G03X24448Y46196I952J0*
G01*
X32100Y48260D02*
G75*
D01*
G03X32100Y48260I952J0*
G01*
X18352Y94488D02*
G75*
D01*
G03X18352Y94488I952J0*
G01*
X10700Y79248D02*
G75*
D01*
G03X10700Y79248I952J0*
G01*
X10815Y84719D02*
G75*
D01*
G03X10815Y83937I869J-391*
G01*
X11206Y84328D01*
X10815Y84719D01*
X12075Y83459D02*
X11684Y83850D01*
X11293Y83459D01*
G75*
D01*
G03X12075Y83459I391J869*
G01*
X11240Y84328D02*
G75*
D01*
G03X11240Y84328I444J0*
G01*
X12553Y84719D02*
X12162Y84328D01*
X12553Y83937D01*
G75*
D01*
G03X12553Y84719I-869J391*
G01*
X11293Y85197D02*
X11684Y84806D01*
X12075Y85197D01*
G75*
D01*
G03X11293Y85197I-391J-869*
G01*
X18352Y90932D02*
G75*
D01*
G03X18352Y90932I952J0*
G01*
X2407Y94996D02*
G75*
D01*
G03X2407Y94996I1149J0*
G01*
X49848Y79756D02*
G75*
D01*
G03X49848Y79756I952J0*
G01*
X64548Y79756D02*
G75*
D01*
G03X64548Y79756I952J0*
G01*
X49880Y84836D02*
G75*
D01*
G03X49880Y84836I952J0*
G01*
X65923Y83967D02*
X65532Y84358D01*
X65141Y83967D01*
G75*
D01*
G03X65923Y83967I391J869*
G01*
X64663Y85227D02*
G75*
D01*
G03X64663Y84445I869J-391*
G01*
X65054Y84836D01*
X64663Y85227D01*
X65141Y85705D02*
X65532Y85314D01*
X65923Y85705D01*
G75*
D01*
G03X65141Y85705I-391J-869*
G01*
X65088Y84836D02*
G75*
D01*
G03X65088Y84836I444J0*
G01*
X66401Y85227D02*
X66010Y84836D01*
X66401Y84445D01*
G75*
D01*
G03X66401Y85227I-869J391*
G01*
X52699Y95504D02*
G75*
D01*
G03X52699Y95504I1149J0*
G01*
X55239Y95504D02*
G75*
D01*
G03X55239Y95504I1149J0*
G01*
X1391Y55372D02*
G75*
D01*
G03X1391Y55372I1149J0*
G01*
X11840Y65122D02*
G75*
D01*
G03X11020Y65122I-410J-860*
G01*
G75*
D01*
G03X10570Y64672I-860J410*
G01*
G75*
D01*
G03X12290Y64672I860J-410*
G01*
G75*
D01*
G03X11840Y65122I410J860*
G01*
X17844Y63976D02*
G75*
D01*
G03X17844Y63976I952J0*
G01*
X5343Y66557D02*
G75*
D01*
G03X3293Y66557I-1025J245*
G01*
G75*
D01*
G03X4073Y65777I-245J-1025*
G01*
G75*
D01*
G03X4563Y65777I245J1025*
G01*
G75*
D01*
G03X4627Y65099I1025J-245*
G01*
X5059Y65532D01*
X4751Y65841D01*
G74*
D01*
G03X5279Y66369I433J961*
G01*
X5588Y66061D01*
X6021Y66493D01*
G75*
D01*
G03X5343Y66557I-433J-961*
G01*
X6021Y64571D02*
X5588Y65003D01*
X5155Y64571D01*
G75*
D01*
G03X6021Y64571I433J961*
G01*
X5080Y65532D02*
G75*
D01*
G03X5080Y65532I508J0*
G01*
X6549Y65965D02*
X6117Y65532D01*
X6549Y65099D01*
G75*
D01*
G03X6549Y65965I-961J433*
G01*
X19198Y68337D02*
X19198Y67807D01*
G75*
D01*
G03X20055Y66950I857J0*
G01*
X20585Y66950D01*
G75*
D01*
G03X21442Y67807I0J857*
G01*
X21442Y68337D01*
G74*
D01*
G03X20585Y69194I857J0*
G01*
X20055Y69194D01*
G75*
D01*
G03X19198Y68337I0J-857*
G01*
X21700Y68072D02*
G75*
D01*
G03X21700Y68072I1160J0*
G01*
X26025Y77069D02*
X26416Y76678D01*
X26807Y77069D01*
G75*
D01*
G03X26025Y77069I-391J-869*
G01*
X25464Y90900D02*
G75*
D01*
G03X25464Y90900I952J0*
G01*
X32608Y91948D02*
G75*
D01*
G03X32608Y91948I952J0*
G01*
X25464Y94520D02*
G75*
D01*
G03X25464Y94520I952J0*
G01*
X32608Y97028D02*
G75*
D01*
G03X32608Y97028I952J0*
G01*
X53207Y55372D02*
G75*
D01*
G03X53207Y55372I1149J0*
G01*
X55747Y55372D02*
G75*
D01*
G03X55747Y55372I1149J0*
G01*
X51995Y66349D02*
G74*
D01*
G03X52523Y66877I433J961*
G01*
X52832Y66569D01*
X53265Y67001D01*
G75*
D01*
G03X52587Y67065I-433J-961*
G01*
G75*
D01*
G03X50537Y67065I-1025J245*
G01*
G75*
D01*
G03X51317Y66285I-245J-1025*
G01*
G75*
D01*
G03X51807Y66285I245J1025*
G01*
G75*
D01*
G03X51871Y65607I1025J-245*
G01*
X52303Y66040D01*
X51995Y66349D01*
X52324Y66040D02*
G75*
D01*
G03X52324Y66040I508J0*
G01*
X53793Y66473D02*
X53361Y66040D01*
X53793Y65607D01*
G75*
D01*
G03X53793Y66473I-961J433*
G01*
X53265Y65079D02*
X52832Y65511D01*
X52399Y65079D01*
G75*
D01*
G03X53265Y65079I433J961*
G01*
X59107Y66349D02*
G74*
D01*
G03X59635Y66877I433J961*
G01*
X59944Y66569D01*
X60377Y67001D01*
G75*
D01*
G03X59699Y67065I-433J-961*
G01*
G75*
D01*
G03X57649Y67065I-1025J245*
G01*
G75*
D01*
G03X58429Y66285I-245J-1025*
G01*
G75*
D01*
G03X58919Y66285I245J1025*
G01*
G75*
D01*
G03X58983Y65607I1025J-245*
G01*
X59415Y66040D01*
X59107Y66349D01*
X59436Y66040D02*
G75*
D01*
G03X59436Y66040I508J0*
G01*
X60377Y65079D02*
X59944Y65511D01*
X59511Y65079D01*
G75*
D01*
G03X60377Y65079I433J961*
G01*
X60905Y66473D02*
X60473Y66040D01*
X60905Y65607D01*
G75*
D01*
G03X60905Y66473I-961J433*
G01*
X66704Y66138D02*
G75*
D01*
G03X65884Y66138I-410J-860*
G01*
G75*
D01*
G03X65434Y65688I-860J410*
G01*
G75*
D01*
G03X67154Y65688I860J-410*
G01*
G75*
D01*
G03X66704Y66138I410J860*
G01*
X26807Y75331D02*
X26416Y75722D01*
X26025Y75331D01*
G75*
D01*
G03X26807Y75331I391J869*
G01*
X32100Y53340D02*
G75*
D01*
G03X32100Y53340I952J0*
G01*
X24448Y64008D02*
G75*
D01*
G03X24448Y64008I952J0*
G01*
X44352Y66138D02*
G75*
D01*
G03X43532Y66138I-410J-860*
G01*
G75*
D01*
G03X43082Y65688I-860J410*
G01*
G75*
D01*
G03X44802Y65688I860J-410*
G01*
G75*
D01*
G03X44352Y66138I410J860*
G01*
X33422Y68337D02*
X33422Y67807D01*
G75*
D01*
G03X34279Y66950I857J0*
G01*
X34809Y66950D01*
G75*
D01*
G03X35666Y67807I0J857*
G01*
X35666Y68337D01*
G74*
D01*
G03X34809Y69194I857J0*
G01*
X34279Y69194D01*
G75*
D01*
G03X33422Y68337I0J-857*
G01*
X35924Y68072D02*
G75*
D01*
G03X35924Y68072I1160J0*
G01*
X83691Y28577D02*
X-22985Y28577D01*
X-22985Y117727D01*
X83691Y117727D01*
X83691Y28577D01*
G54D12*
X-23622Y27940D02*
X-23622Y36982D01*
X-23622Y27940D02*
X-12827Y27940D01*
X84328Y27940D02*
X73533Y27940D01*
X84328Y27940D02*
X84328Y36982D01*
X84328Y118364D02*
X84328Y109322D01*
X84328Y118364D02*
X73533Y118364D01*
X-23622Y118364D02*
X-12827Y118364D01*
X-23622Y118364D02*
X-23622Y109322D01*
X-28622Y27940D02*
X-38622Y27940D01*
X-33622Y22940D02*
X-33622Y32940D01*
X-37372Y27940D02*
G75*
D01*
G02X-37372Y27940I3750J0*
G01*
X89328Y27940D02*
X99328Y27940D01*
X94328Y22940D02*
X94328Y32940D01*
X90578Y27940D02*
G75*
D01*
G02X90578Y27940I3750J0*
G01*
X93078Y27940D02*
G75*
D01*
G02X93078Y27940I1250J0*
G01*
X-28622Y118364D02*
X-38622Y118364D01*
X-33622Y113364D02*
X-33622Y123364D01*
X-37372Y118364D02*
G75*
D01*
G02X-37372Y118364I3750J0*
G01*
X-36122Y118364D02*
G75*
D01*
G02X-36122Y118364I2500J0*
G01*
X-34872Y118364D02*
G75*
D01*
G02X-34872Y118364I1250J0*
G01*
G54D13*
X-16256Y112268D03*
X23368Y112776D03*
X37592Y112776D03*
X75184Y112776D03*
X-15748Y68072D03*
X22860Y68072D03*
X37084Y68072D03*
X77216Y68072D03*
G54D14*
X-18796Y112268D03*
X20828Y112776D03*
X35052Y112776D03*
X72644Y112776D03*
X-18288Y68072D03*
X20320Y68072D03*
X34544Y68072D03*
X74676Y68072D03*
G54D15*
X-19060Y112004D02*
X-18532Y112004D01*
X-18532Y112532D01*
X-19060Y112532D01*
X-19060Y112004D01*D02*
X20564Y112512D02*
X21092Y112512D01*
X21092Y113040D01*
X20564Y113040D01*
X20564Y112512D01*D02*
X34788Y112512D02*
X35316Y112512D01*
X35316Y113040D01*
X34788Y113040D01*
X34788Y112512D01*D02*
X72380Y112512D02*
X72908Y112512D01*
X72908Y113040D01*
X72380Y113040D01*
X72380Y112512D01*D02*
X-18552Y67808D02*
X-18024Y67808D01*
X-18024Y68336D01*
X-18552Y68336D01*
X-18552Y67808D01*D02*
X20056Y67808D02*
X20584Y67808D01*
X20584Y68336D01*
X20056Y68336D01*
X20056Y67808D01*D02*
X34280Y67808D02*
X34808Y67808D01*
X34808Y68336D01*
X34280Y68336D01*
X34280Y67808D01*D02*
X74412Y67808D02*
X74940Y67808D01*
X74940Y68336D01*
X74412Y68336D01*
X74412Y67808D01*D02*
G54D16*
X-12192Y81280D03*
X-14732Y81280D03*
X-17272Y81280D03*
X-9652Y81280D03*
X1016Y94996D03*
X3556Y94996D03*
X53848Y95504D03*
X56388Y95504D03*
X64008Y106680D03*
X64008Y109220D03*
X64008Y111760D03*
X2540Y55372D03*
X0Y55372D03*
X56896Y55372D03*
X54356Y55372D03*
X57404Y109220D03*
X57404Y106680D03*
X57404Y111760D03*
X51308Y109220D03*
X51308Y106680D03*
X51308Y111760D03*
X45212Y106680D03*
X45212Y109220D03*
X45212Y111760D03*
X5080Y108712D03*
X5080Y106172D03*
X5080Y111252D03*
X11684Y106172D03*
X11684Y108712D03*
X11684Y111252D03*
X-1524Y108712D03*
X-1524Y106172D03*
X-1524Y111252D03*
X-8128Y106172D03*
X-8128Y108712D03*
X-8128Y111252D03*
G54D17*
X11652Y79248D03*
X-3048Y79248D03*
X-3016Y84328D03*
X11684Y84328D03*
X-20288Y91440D03*
X-5588Y91440D03*
X-20288Y96520D03*
X-5588Y96520D03*
X19304Y76232D03*
X19304Y90932D03*
X26416Y90900D03*
X26416Y76200D03*
X19304Y109188D03*
X19304Y94488D03*
X26416Y94520D03*
X26416Y109220D03*
X33560Y91948D03*
X48260Y91948D03*
X33560Y97028D03*
X48260Y97028D03*
X65500Y79756D03*
X50800Y79756D03*
X50832Y84836D03*
X65532Y84836D03*
X71628Y76708D03*
X71628Y91408D03*
X79248Y91408D03*
X79248Y76708D03*
X71628Y109188D03*
X71628Y94488D03*
X79248Y94520D03*
X79248Y109220D03*
X11652Y36576D03*
X-3048Y36576D03*
X18796Y31528D03*
X18796Y46228D03*
X25400Y46196D03*
X25400Y31496D03*
X-3016Y41656D03*
X11684Y41656D03*
X-19780Y48768D03*
X-5080Y48768D03*
X18796Y63976D03*
X18796Y49276D03*
X25400Y49308D03*
X25400Y64008D03*
X-19780Y53848D03*
X-5080Y53848D03*
X73152Y32512D03*
X73152Y47212D03*
X79248Y47212D03*
X79248Y32512D03*
X64992Y38100D03*
X50292Y38100D03*
X50324Y43180D03*
X65024Y43180D03*
X33052Y48260D03*
X47752Y48260D03*
X73152Y64484D03*
X73152Y49784D03*
X79248Y49816D03*
X79248Y64516D03*
X33052Y53340D03*
X47752Y53340D03*
X66294Y65278D03*
X67564Y66548D03*
X65024Y66548D03*
X-9906Y64262D03*
X-8636Y65532D03*
X-11176Y65532D03*
X11430Y64262D03*
X12700Y65532D03*
X10160Y65532D03*
X43942Y65278D03*
X45212Y66548D03*
X42672Y66548D03*
G54D18*
X-4064Y65532D03*
X-2794Y66802D03*
X-1524Y65532D03*
X3048Y65532D03*
X4318Y66802D03*
X5588Y65532D03*
X50292Y66040D03*
X51562Y67310D03*
X52832Y66040D03*
X57404Y66040D03*
X58674Y67310D03*
X59944Y66040D03*

M02*
