M48
INCH,TZ
VER,1
FMAT,2
DETECT,ON
ATC,ON
T1C0.0350
T2C0.0392
T3C0.0465
T4C0.0400
%
T1
X-6400Y44200
X4587Y31200
X-1200
X-1187Y33200
X4600
X-7987Y36000
X-2200
X-7987Y38000
X-2200
X7600Y30013
Y35800
X10400Y35787
Y30000
X7600Y42987
Y37200
X10400Y37213
Y43000
X9200Y44400
X13213Y36200
X19000
X13213Y38200
X19000
X14800Y44400
X25787Y31400
X20000
X20013Y33400
X25800
X28200Y30200
Y35987
X31200
Y30200
X28200Y42987
Y37200
X31200Y37213
Y43000
X29600Y44400
X4587Y14400
X-1200
X7400Y12413
Y18200
X10000Y18187
Y12400
X-1187Y16400
X4600
X-7787Y19200
X-2000
X7400Y25187
Y19400
X10000Y19413
Y25200
X-7787Y21200
X-2000
X-6200Y26800
X9000
X28800Y12800
Y18587
X31200
Y12800
X25587Y15000
X19800
X19813Y17000
X25600
X13013Y19000
X18800
X28800Y25387
Y19600
X31200Y19613
Y25400
X13013Y21000
X18800
X26100Y25700
X26600Y26200
X25600
X14600Y26800
X30400
X-3900Y25300
X-3400Y25800
X-4400
X4500Y25300
X5000Y25800
X4000
X17300Y25700
X17800Y26200
X16800
T2
X-7400Y44200
X8200Y44400
X13800
X28600
X-7200Y26800
X8000
X13600
X29400
T3
X-4800Y32000
X-5800
X-6800
X-3800
X400Y37400
X1400
X21200Y37600
X22200
X25200Y42000
Y43000
Y44000
X1000Y21800
X0
X22400
X21400
X22600Y43000
Y42000
Y44000
X20200Y43000
Y42000
Y44000
X17800Y42000
Y43000
Y44000
X2000Y42800
Y41800
Y43800
X4600Y41800
Y42800
Y43800
X-600Y42800
Y41800
Y43800
X-3200Y41800
Y42800
Y43800
T4
X-1600Y25800
X-1100Y26300
X-600Y25800
X1200
X1700Y26300
X2200Y25800
X19800Y26000
X20300Y26500
X20800Y26000
X22600
X23100Y26500
X23600Y26000
M30
